M48
; DRILL file {KiCad 7.0.7} date Thu Sep 14 15:12:24 2023
; FORMAT={-:-/ absolute / inch / decimal}
; #@! TF.CreationDate,2023-09-14T15:12:24+02:00
; #@! TF.GenerationSoftware,Kicad,Pcbnew,7.0.7
; #@! TF.FileFunction,Plated,1,2,PTH
FMAT,2
INCH
; #@! TA.AperFunction,Plated,PTH,ViaDrill
T1C0.0157
; #@! TA.AperFunction,Plated,PTH,ComponentDrill
T2C0.0591
; #@! TA.AperFunction,Plated,PTH,ComponentDrill
T3C0.0669
; #@! TA.AperFunction,Plated,PTH,ComponentDrill
T4C0.1614
; #@! TA.AperFunction,Plated,PTH,ComponentDrill
T5C0.2047
%
G90
G05
T1
X3.99Y-3.48
X3.99Y-3.58
X3.99Y-3.68
X3.99Y-3.78
X3.99Y-3.88
X3.99Y-3.98
X3.99Y-4.08
X3.99Y-4.18
X3.99Y-4.28
X3.99Y-4.38
X3.99Y-4.48
X3.99Y-4.58
X3.99Y-4.68
X3.99Y-4.78
X3.99Y-4.88
X3.99Y-4.98
X3.99Y-5.08
X3.99Y-5.18
X4.0384Y-3.3056
X4.0384Y-3.3843
X4.0384Y-5.2938
X4.0384Y-5.3725
X4.064Y-3.58
X4.064Y-3.68
X4.064Y-3.78
X4.064Y-3.88
X4.064Y-3.98
X4.064Y-4.08
X4.064Y-4.18
X4.064Y-4.28
X4.064Y-4.38
X4.064Y-4.48
X4.064Y-4.58
X4.064Y-4.68
X4.064Y-4.78
X4.064Y-4.88
X4.064Y-4.98
X4.064Y-5.08
X4.0778Y-3.2465
X4.0778Y-3.4434
X4.0778Y-5.2347
X4.0778Y-5.4316
X4.1349Y-4.1383
X4.1349Y-4.5438
X4.1565Y-3.2269
X4.1565Y-3.4631
X4.1565Y-5.215
X4.1565Y-5.4513
X4.1723Y-4.1383
X4.1723Y-4.5438
X4.2097Y-4.1383
X4.2097Y-4.5438
X4.2156Y-3.2465
X4.2156Y-3.4434
X4.2156Y-5.2347
X4.2156Y-5.4316
X4.2471Y-4.1383
X4.2471Y-4.5438
X4.255Y-3.3056
X4.255Y-3.3843
X4.255Y-5.2938
X4.255Y-5.3725
X4.28Y-3.19
X4.28Y-3.2662
X4.2845Y-4.1383
X4.2845Y-4.5438
X4.3Y-5.408
X4.3Y-5.48
X4.3219Y-4.1383
X4.3219Y-4.5438
X4.38Y-3.19
X4.38Y-3.2662
X4.4Y-5.408
X4.4Y-5.48
X4.48Y-3.19
X4.48Y-3.2662
X4.4853Y-4.093
X4.4853Y-4.591
X4.5Y-5.408
X4.5Y-5.48
X4.5227Y-4.093
X4.5227Y-4.591
X4.5601Y-4.093
X4.5601Y-4.591
X4.58Y-3.19
X4.58Y-3.2662
X4.6Y-5.408
X4.6Y-5.48
X4.68Y-3.19
X4.68Y-3.2662
X4.7Y-5.408
X4.7Y-5.48
X4.7057Y-4.591
X4.7077Y-4.093
X4.7431Y-4.591
X4.7451Y-4.093
X4.78Y-3.19
X4.78Y-3.2662
X4.7806Y-4.591
X4.7825Y-4.093
X4.8Y-5.408
X4.8Y-5.48
X4.8648Y-4.4118
X4.8648Y-4.5118
X4.8648Y-4.6118
X4.8648Y-4.7118
X4.8652Y-3.9701
X4.8652Y-4.0701
X4.8652Y-4.1701
X4.8652Y-4.2701
X4.8652Y-4.3406
X4.88Y-3.19
X4.88Y-3.2662
X4.9Y-5.408
X4.9Y-5.48
X4.91Y-3.87
X4.91Y-4.81
X4.98Y-3.19
X4.98Y-3.2662
X5.0Y-5.408
X5.0Y-5.48
X5.01Y-3.87
X5.01Y-4.34
X5.01Y-4.81
X5.08Y-3.19
X5.08Y-3.2662
X5.1Y-5.408
X5.1Y-5.48
X5.11Y-3.87
X5.11Y-4.34
X5.11Y-4.81
X5.18Y-3.19
X5.18Y-3.2662
X5.2Y-5.408
X5.2Y-5.48
X5.21Y-3.87
X5.21Y-4.34
X5.21Y-4.81
X5.2707Y-4.1717
X5.2707Y-4.7406
X5.28Y-3.19
X5.28Y-3.2662
X5.3Y-5.408
X5.3Y-5.48
X5.31Y-3.87
X5.31Y-4.34
X5.31Y-4.81
X5.3416Y-4.1717
X5.3435Y-4.7406
X5.38Y-3.19
X5.38Y-3.2662
X5.4Y-5.408
X5.4Y-5.48
X5.41Y-3.87
X5.41Y-4.34
X5.41Y-4.81
X5.4597Y-4.1678
X5.4597Y-4.5162
X5.48Y-3.19
X5.48Y-3.2662
X5.4991Y-4.1678
X5.4991Y-4.5162
X5.5Y-5.408
X5.5Y-5.48
X5.51Y-3.87
X5.51Y-4.34
X5.51Y-4.81
X5.5384Y-4.1678
X5.5384Y-4.5162
X5.5778Y-4.1678
X5.5778Y-4.5162
X5.58Y-3.19
X5.58Y-3.2662
X5.6Y-5.408
X5.6Y-5.48
X5.61Y-3.87
X5.61Y-4.34
X5.61Y-4.81
X5.68Y-3.19
X5.68Y-3.2662
X5.7Y-5.408
X5.7Y-5.48
X5.71Y-3.87
X5.71Y-4.34
X5.71Y-4.81
X5.78Y-3.19
X5.78Y-3.2662
X5.7983Y-4.1658
X5.7983Y-4.5143
X5.8Y-5.408
X5.8Y-5.48
X5.81Y-3.87
X5.81Y-4.34
X5.81Y-4.81
X5.8376Y-4.1658
X5.8376Y-4.5143
X5.877Y-4.1658
X5.877Y-4.5143
X5.88Y-3.19
X5.88Y-3.2662
X5.9Y-5.408
X5.9Y-5.48
X5.91Y-3.87
X5.91Y-4.34
X5.91Y-4.81
X5.9164Y-4.1658
X5.9164Y-4.5143
X5.9754Y-4.1737
X5.9754Y-4.7446
X5.98Y-3.19
X5.98Y-3.2662
X6.0Y-5.408
X6.0Y-5.48
X6.01Y-3.87
X6.01Y-4.34
X6.01Y-4.81
X6.0463Y-4.1737
X6.0463Y-4.7446
X6.08Y-3.19
X6.08Y-3.2662
X6.1Y-5.408
X6.1Y-5.48
X6.11Y-3.87
X6.11Y-4.34
X6.11Y-4.81
X6.18Y-3.19
X6.18Y-3.2662
X6.2Y-5.408
X6.2Y-5.48
X6.21Y-3.87
X6.21Y-4.34
X6.21Y-4.81
X6.28Y-3.19
X6.28Y-3.2662
X6.2865Y-4.1658
X6.2865Y-4.5143
X6.3Y-5.408
X6.3Y-5.48
X6.31Y-3.87
X6.31Y-4.34
X6.31Y-4.81
X6.3258Y-4.1658
X6.3258Y-4.5143
X6.3652Y-4.1658
X6.3652Y-4.5143
X6.38Y-3.19
X6.38Y-3.2662
X6.4Y-5.408
X6.4Y-5.48
X6.4046Y-4.1658
X6.4046Y-4.5143
X6.41Y-3.87
X6.41Y-4.34
X6.41Y-4.81
X6.48Y-3.19
X6.48Y-3.2662
X6.5Y-5.408
X6.5Y-5.48
X6.51Y-3.87
X6.51Y-4.34
X6.51Y-4.81
X6.58Y-3.19
X6.58Y-3.2662
X6.6Y-5.408
X6.6Y-5.48
X6.6034Y-4.1914
X6.6073Y-4.7446
X6.61Y-3.87
X6.61Y-4.34
X6.61Y-4.81
X6.6447Y-4.1914
X6.6487Y-4.7446
X6.68Y-3.19
X6.68Y-3.2662
X6.6861Y-4.1914
X6.69Y-4.7446
X6.7Y-5.408
X6.7Y-5.48
X6.71Y-3.87
X6.71Y-4.34
X6.71Y-4.81
X6.78Y-3.19
X6.78Y-3.2662
X6.8Y-5.408
X6.8Y-5.48
X6.81Y-3.87
X6.81Y-4.34
X6.81Y-4.81
X6.88Y-3.19
X6.88Y-3.2662
X6.8849Y-4.1658
X6.8849Y-4.5143
X6.9Y-5.408
X6.9Y-5.48
X6.91Y-3.87
X6.91Y-4.34
X6.91Y-4.81
X6.9243Y-4.1658
X6.9243Y-4.5143
X6.9636Y-4.1658
X6.9636Y-4.5143
X6.98Y-3.19
X6.98Y-3.2662
X7.0Y-5.408
X7.0Y-5.48
X7.003Y-4.1658
X7.003Y-4.5143
X7.01Y-3.87
X7.01Y-4.34
X7.01Y-4.81
X7.08Y-3.19
X7.08Y-3.2662
X7.1Y-5.408
X7.1Y-5.48
X7.11Y-3.87
X7.11Y-4.34
X7.11Y-4.81
X7.18Y-3.19
X7.18Y-3.2662
X7.2Y-5.408
X7.2Y-5.48
X7.21Y-3.87
X7.21Y-4.34
X7.21Y-4.81
X7.2313Y-4.1658
X7.2313Y-4.5143
X7.2707Y-4.1658
X7.2707Y-4.5143
X7.28Y-3.19
X7.28Y-3.2662
X7.3Y-3.87
X7.3Y-4.81
X7.3Y-5.408
X7.3Y-5.48
X7.31Y-4.34
X7.3101Y-4.1658
X7.3101Y-4.5143
X7.3494Y-4.1658
X7.3494Y-4.5143
X7.38Y-3.19
X7.38Y-3.2662
X7.4Y-5.408
X7.4Y-5.48
X7.41Y-4.34
X7.44Y-4.282
X7.44Y-4.3981
X7.48Y-3.19
X7.48Y-3.2662
X7.4813Y-4.282
X7.4813Y-4.3981
X7.5Y-5.408
X7.5Y-5.48
X7.51Y-4.34
X7.5227Y-4.282
X7.5227Y-4.3981
X7.58Y-3.19
X7.58Y-3.2662
X7.6Y-5.408
X7.6Y-5.48
X7.68Y-3.19
X7.68Y-3.2662
X7.7Y-5.408
X7.7Y-5.48
X7.7096Y-4.6112
X7.7096Y-4.7112
X7.7096Y-4.8112
X7.71Y-3.8695
X7.71Y-3.9695
X7.71Y-4.0695
X7.7589Y-4.8213
X7.7786Y-3.8568
X7.78Y-3.19
X7.78Y-3.2662
X7.8Y-5.408
X7.8Y-5.48
X7.8376Y-4.8213
X7.877Y-3.8568
X7.88Y-3.19
X7.88Y-3.2662
X7.9Y-5.408
X7.9Y-5.48
X7.9164Y-4.8213
X7.9754Y-3.8568
X7.98Y-3.19
X7.98Y-3.2662
X7.9951Y-4.8213
X8.0Y-5.408
X8.0Y-5.48
X8.0345Y-4.9001
X8.0542Y-3.3056
X8.0542Y-3.3843
X8.0542Y-5.2938
X8.0542Y-5.3725
X8.0739Y-3.5615
X8.0739Y-3.6599
X8.0739Y-3.7583
X8.0739Y-4.9394
X8.0739Y-5.0379
X8.0739Y-5.1363
X8.0935Y-3.2465
X8.0935Y-3.4434
X8.0935Y-5.2347
X8.0935Y-5.4316
X8.1723Y-3.2269
X8.1723Y-3.4631
X8.1723Y-5.215
X8.1723Y-5.4513
X8.2313Y-3.2465
X8.2313Y-3.4434
X8.2313Y-5.2347
X8.2313Y-5.4316
X8.2372Y-3.5796
X8.2372Y-3.6796
X8.2372Y-3.7796
X8.2372Y-3.8796
X8.2372Y-3.9796
X8.2372Y-4.0796
X8.2372Y-4.1796
X8.2372Y-4.2796
X8.2372Y-4.3796
X8.2372Y-4.4796
X8.2372Y-4.5796
X8.2372Y-4.6796
X8.2372Y-4.7796
X8.2372Y-4.8796
X8.2372Y-4.9796
X8.2372Y-5.0796
X8.2707Y-3.3056
X8.2707Y-3.3843
X8.2707Y-5.2938
X8.2707Y-5.3725
X8.32Y-3.48
X8.32Y-3.58
X8.32Y-3.68
X8.32Y-3.78
X8.32Y-3.88
X8.32Y-3.98
X8.32Y-4.08
X8.32Y-4.18
X8.32Y-4.28
X8.32Y-4.38
X8.32Y-4.48
X8.32Y-4.58
X8.32Y-4.68
X8.32Y-4.78
X8.32Y-4.88
X8.32Y-4.98
X8.32Y-5.08
X8.32Y-5.18
T2
X5.062Y-4.0553
X5.062Y-4.6245
T3
X4.962Y-3.9553
X4.962Y-4.1553
X4.962Y-4.5245
X4.962Y-4.7245
X5.162Y-3.9553
X5.162Y-4.1553
X5.162Y-4.5245
X5.162Y-4.7245
T4
X4.1428Y-3.345
X4.1428Y-5.3331
X8.1624Y-3.345
X8.1624Y-5.3331
T5
X4.5306Y-3.5906
X4.5306Y-4.341
X4.5306Y-5.0914
X7.7746Y-3.5906
X7.7746Y-4.341
X7.7746Y-5.0914
T0
M30
