G04 #@! TF.GenerationSoftware,KiCad,Pcbnew,7.0.7*
G04 #@! TF.CreationDate,2023-09-14T15:12:29+02:00*
G04 #@! TF.ProjectId,5uH_LISN,3575485f-4c49-4534-9e2e-6b696361645f,V1 R0*
G04 #@! TF.SameCoordinates,Original*
G04 #@! TF.FileFunction,Copper,L1,Top*
G04 #@! TF.FilePolarity,Positive*
%FSLAX46Y46*%
G04 Gerber Fmt 4.6, Leading zero omitted, Abs format (unit mm)*
G04 Created by KiCad (PCBNEW 7.0.7) date 2023-09-14 15:12:29*
%MOMM*%
%LPD*%
G01*
G04 APERTURE LIST*
G04 #@! TA.AperFunction,ComponentPad*
%ADD10C,2.050000*%
G04 #@! TD*
G04 #@! TA.AperFunction,ComponentPad*
%ADD11C,2.250000*%
G04 #@! TD*
G04 #@! TA.AperFunction,ComponentPad*
%ADD12C,10.000000*%
G04 #@! TD*
G04 #@! TA.AperFunction,ComponentPad*
%ADD13C,8.000000*%
G04 #@! TD*
G04 #@! TA.AperFunction,ViaPad*
%ADD14C,0.900000*%
G04 #@! TD*
G04 #@! TA.AperFunction,ViaPad*
%ADD15C,0.800000*%
G04 #@! TD*
G04 APERTURE END LIST*
D10*
X128576000Y-103005500D03*
D11*
X126036000Y-100465500D03*
X131116000Y-105545500D03*
X126036000Y-105545500D03*
X131116000Y-100465500D03*
D10*
X128576000Y-117462000D03*
D11*
X126036000Y-114922000D03*
X126036000Y-120002000D03*
X131116000Y-120002000D03*
X131116000Y-114922000D03*
D12*
X115076000Y-110262000D03*
D13*
X105226000Y-135462000D03*
X105226000Y-84962000D03*
X207326000Y-84962000D03*
X207326000Y-135462000D03*
D12*
X115076000Y-91202000D03*
X115076000Y-129322000D03*
X197476000Y-110262000D03*
X197476000Y-91202000D03*
X197476000Y-129322000D03*
D14*
X111252000Y-81026000D03*
X113792000Y-81026000D03*
X116332000Y-81026000D03*
X118872000Y-81026000D03*
X121412000Y-81026000D03*
X123952000Y-81026000D03*
X126492000Y-81026000D03*
X129032000Y-81026000D03*
X131572000Y-81026000D03*
X134112000Y-81026000D03*
X136652000Y-81026000D03*
X139192000Y-81026000D03*
X141732000Y-81026000D03*
X144272000Y-81026000D03*
X146812000Y-81026000D03*
X149352000Y-81026000D03*
X151892000Y-81026000D03*
X154432000Y-81026000D03*
X156972000Y-81026000D03*
X159512000Y-81026000D03*
X162052000Y-81026000D03*
X164592000Y-81026000D03*
X167132000Y-81026000D03*
X169672000Y-81026000D03*
X172212000Y-81026000D03*
X174752000Y-81026000D03*
X177292000Y-81026000D03*
X179832000Y-81026000D03*
X182372000Y-81026000D03*
X184912000Y-81026000D03*
X187452000Y-81026000D03*
X189992000Y-81026000D03*
X192532000Y-81026000D03*
X195072000Y-81026000D03*
X197612000Y-81026000D03*
X200152000Y-81026000D03*
X202692000Y-81026000D03*
X172720000Y-139192000D03*
X175260000Y-139192000D03*
X127000000Y-139192000D03*
X162560000Y-139192000D03*
X165100000Y-139192000D03*
X187960000Y-139192000D03*
X190500000Y-139192000D03*
X119380000Y-139192000D03*
X132080000Y-139192000D03*
X134620000Y-139192000D03*
X142240000Y-139192000D03*
X144780000Y-139192000D03*
X147320000Y-139192000D03*
X149860000Y-139192000D03*
X121920000Y-139192000D03*
X177800000Y-139192000D03*
X180340000Y-139192000D03*
X203200000Y-139192000D03*
X114300000Y-139192000D03*
X116840000Y-139192000D03*
X109220000Y-139192000D03*
X193040000Y-139192000D03*
X195580000Y-139192000D03*
X182880000Y-139192000D03*
X185420000Y-139192000D03*
X167640000Y-139192000D03*
X170180000Y-139192000D03*
X152400000Y-139192000D03*
X154940000Y-139192000D03*
X129540000Y-139192000D03*
X198120000Y-139192000D03*
X200660000Y-139192000D03*
X124460000Y-139192000D03*
X111760000Y-139192000D03*
X137160000Y-139192000D03*
X139700000Y-139192000D03*
X157480000Y-139192000D03*
X160020000Y-139192000D03*
X165354000Y-110236000D03*
X167894000Y-110236000D03*
X155194000Y-110236000D03*
X157734000Y-110236000D03*
X180594000Y-110236000D03*
X183134000Y-110236000D03*
X127254000Y-110236000D03*
X134874000Y-110236000D03*
X137414000Y-110236000D03*
X139954000Y-110236000D03*
X142494000Y-110236000D03*
X170434000Y-110236000D03*
X172974000Y-110236000D03*
X185674000Y-110236000D03*
X188214000Y-110236000D03*
X175514000Y-110236000D03*
X178054000Y-110236000D03*
X160274000Y-110236000D03*
X162814000Y-110236000D03*
X145034000Y-110236000D03*
X147574000Y-110236000D03*
X190754000Y-110236000D03*
X129794000Y-110236000D03*
X132334000Y-110236000D03*
X150114000Y-110236000D03*
X152654000Y-110236000D03*
D15*
X160274000Y-98298000D03*
X162814000Y-98298000D03*
X137414000Y-98298000D03*
X172974000Y-98298000D03*
X170434000Y-98298000D03*
X165354000Y-98298000D03*
X157734000Y-98298000D03*
X152654000Y-98298000D03*
X127254000Y-98298000D03*
X139954000Y-98298000D03*
X142494000Y-98298000D03*
X145034000Y-98298000D03*
X147574000Y-98298000D03*
X167894000Y-98298000D03*
X180594000Y-98298000D03*
X124714000Y-98298000D03*
X132334000Y-98298000D03*
X150114000Y-98298000D03*
X129794000Y-98298000D03*
X134874000Y-98298000D03*
X155194000Y-98298000D03*
X175514000Y-98298000D03*
X178054000Y-98298000D03*
X183134000Y-98298000D03*
X162814000Y-122174000D03*
X178054000Y-122174000D03*
X183134000Y-122174000D03*
X165354000Y-122174000D03*
X170434000Y-122174000D03*
X180594000Y-122174000D03*
X124714000Y-122174000D03*
X172974000Y-122174000D03*
X160274000Y-122174000D03*
X157734000Y-122174000D03*
X155194000Y-122174000D03*
X175514000Y-122174000D03*
X129794000Y-122174000D03*
X134874000Y-122174000D03*
X152654000Y-122174000D03*
X139954000Y-122174000D03*
X137414000Y-122174000D03*
X142494000Y-122174000D03*
X147574000Y-122174000D03*
X167894000Y-122174000D03*
X127254000Y-122174000D03*
X132334000Y-122174000D03*
X150114000Y-122174000D03*
X145034000Y-122174000D03*
D14*
X211328000Y-88392000D03*
X211328000Y-90932000D03*
X211328000Y-93472000D03*
X211328000Y-96012000D03*
X211328000Y-98552000D03*
X211328000Y-101092000D03*
X211328000Y-103632000D03*
X211328000Y-106172000D03*
X211328000Y-108712000D03*
X211328000Y-111252000D03*
X211328000Y-113792000D03*
X211328000Y-116332000D03*
X211328000Y-118872000D03*
X211328000Y-121412000D03*
X211328000Y-123952000D03*
X211328000Y-126492000D03*
X211328000Y-129032000D03*
X211328000Y-131572000D03*
X101346000Y-108712000D03*
X101346000Y-118872000D03*
X101346000Y-121412000D03*
X101346000Y-129032000D03*
X101346000Y-131572000D03*
X101346000Y-93472000D03*
X101346000Y-98552000D03*
X101346000Y-111252000D03*
X101346000Y-103632000D03*
X101346000Y-96012000D03*
X101346000Y-101092000D03*
X101346000Y-123952000D03*
X101346000Y-126492000D03*
X101346000Y-106172000D03*
X101346000Y-113792000D03*
X101346000Y-116332000D03*
X101346000Y-88392000D03*
X101346000Y-90932000D03*
D15*
X185420000Y-98298000D03*
X185420000Y-122174000D03*
X195834000Y-98285300D03*
X195834000Y-100825300D03*
X195834000Y-103365300D03*
X195823840Y-122204480D03*
X195823840Y-117124480D03*
X195823840Y-119664480D03*
X123576000Y-108460540D03*
X123565840Y-112059720D03*
X123576000Y-103380540D03*
X123576000Y-100840540D03*
X123576000Y-105920540D03*
X123565840Y-119679720D03*
X123565840Y-117139720D03*
X123576000Y-110251240D03*
X123565840Y-114599720D03*
D14*
X135726000Y-120412000D03*
X205076000Y-130462000D03*
X103226000Y-90932000D03*
X103226000Y-111252000D03*
X105576000Y-132462000D03*
X133876000Y-120412000D03*
X185676000Y-114662000D03*
X182880000Y-137362000D03*
X141676000Y-105862000D03*
X209226000Y-113782000D03*
X103576000Y-132962000D03*
X210076000Y-85962000D03*
X199076000Y-122462000D03*
X159676000Y-105812000D03*
X148276000Y-105812000D03*
X116840000Y-137362000D03*
X152400000Y-137362000D03*
X108076000Y-85962000D03*
X175876000Y-114662000D03*
X185676000Y-105812000D03*
X174876000Y-105812000D03*
X207576000Y-81962000D03*
X210076000Y-83962000D03*
X118872000Y-82962000D03*
X169826000Y-106462000D03*
X205076000Y-92962000D03*
X151776000Y-106012000D03*
X200076000Y-97962000D03*
X147276000Y-114662000D03*
X119526000Y-116612000D03*
X114876000Y-116612000D03*
X210076000Y-136462000D03*
X150276000Y-105812000D03*
X102576000Y-134462000D03*
X102576000Y-136462000D03*
X123952000Y-82962000D03*
X156972000Y-82962000D03*
X191076000Y-108762000D03*
X151776000Y-120512000D03*
X105026000Y-105112000D03*
X103576000Y-87462000D03*
X142240000Y-137362000D03*
X139676000Y-105862000D03*
X157480000Y-137362000D03*
X167826000Y-120512000D03*
X103226000Y-118872000D03*
X144780000Y-137362000D03*
X195072000Y-82962000D03*
X111760000Y-137362000D03*
X131572000Y-82962000D03*
X209226000Y-93462000D03*
X198120000Y-137362000D03*
X119380000Y-137362000D03*
X127000000Y-137362000D03*
X105576000Y-138462000D03*
X102576000Y-85962000D03*
X179832000Y-82962000D03*
X113926000Y-103962000D03*
X108076000Y-136462000D03*
X102576000Y-83962000D03*
X168876000Y-120512000D03*
X209226000Y-116322000D03*
X106926000Y-115412000D03*
X103226000Y-113792000D03*
X189992000Y-82962000D03*
X135676000Y-105962000D03*
X180340000Y-137362000D03*
X209226000Y-111242000D03*
X182372000Y-82962000D03*
X116332000Y-82962000D03*
X148276000Y-114662000D03*
X108826000Y-105112000D03*
X209226000Y-121402000D03*
X105576000Y-87962000D03*
X109776000Y-105112000D03*
X205076000Y-127962000D03*
X197612000Y-82962000D03*
X183676000Y-114662000D03*
X204576000Y-83962000D03*
X185420000Y-137362000D03*
X105026000Y-115412000D03*
X209226000Y-108702000D03*
X203200000Y-137362000D03*
X136652000Y-82962000D03*
X205576000Y-132962000D03*
X177876000Y-105812000D03*
X175260000Y-137362000D03*
X162052000Y-82962000D03*
X202576000Y-97962000D03*
X121426000Y-116612000D03*
X147276000Y-105812000D03*
X137160000Y-137362000D03*
X149276000Y-114662000D03*
X172212000Y-82962000D03*
X165100000Y-137362000D03*
X121920000Y-137362000D03*
X103226000Y-93472000D03*
X174752000Y-82962000D03*
X197576000Y-97962000D03*
X205076000Y-125462000D03*
X202692000Y-82962000D03*
X151892000Y-82962000D03*
X187960000Y-137362000D03*
X103576000Y-137962000D03*
X107076000Y-132962000D03*
X114300000Y-137362000D03*
X141732000Y-82962000D03*
X149860000Y-137362000D03*
X103226000Y-101092000D03*
X209226000Y-123942000D03*
X176876000Y-114662000D03*
X204076000Y-124462000D03*
X149352000Y-82962000D03*
X200660000Y-137362000D03*
X134112000Y-82962000D03*
X187452000Y-82962000D03*
X161676000Y-114662000D03*
X195580000Y-137362000D03*
X172720000Y-137362000D03*
X205076000Y-90462000D03*
X190026000Y-111712000D03*
X177800000Y-137362000D03*
X103226000Y-126492000D03*
X174876000Y-114662000D03*
X168776000Y-106462000D03*
X153576000Y-120512000D03*
X205076000Y-95462000D03*
X188976000Y-111712000D03*
X154432000Y-82962000D03*
X176876000Y-105812000D03*
X167726000Y-106462000D03*
X167132000Y-82962000D03*
X177876000Y-114662000D03*
X167640000Y-137362000D03*
X126492000Y-82962000D03*
X115826000Y-103962000D03*
X164592000Y-82962000D03*
X114876000Y-103962000D03*
X140676000Y-114712000D03*
X204576000Y-134462000D03*
X159676000Y-114662000D03*
X129032000Y-82962000D03*
X205576000Y-87462000D03*
X162676000Y-114662000D03*
X103226000Y-121412000D03*
X108076000Y-83962000D03*
X205576000Y-82462000D03*
X205576000Y-137962000D03*
X210076000Y-134462000D03*
X144272000Y-82962000D03*
X161676000Y-105812000D03*
X197076000Y-122462000D03*
X201076000Y-122462000D03*
X209226000Y-129022000D03*
X106926000Y-105112000D03*
X188976000Y-108762000D03*
X146812000Y-82962000D03*
X129540000Y-137362000D03*
X184676000Y-114662000D03*
X108712000Y-82962000D03*
X207576000Y-132462000D03*
X108826000Y-115412000D03*
X209226000Y-98542000D03*
X103226000Y-108712000D03*
X162560000Y-137362000D03*
X105976000Y-105112000D03*
X140676000Y-105862000D03*
X139192000Y-82962000D03*
X107076000Y-82462000D03*
X138676000Y-105862000D03*
X108076000Y-134462000D03*
X200152000Y-82962000D03*
X103576000Y-82462000D03*
X160676000Y-114662000D03*
X209226000Y-90922000D03*
X107876000Y-105112000D03*
X209076000Y-87462000D03*
X162676000Y-105812000D03*
X209226000Y-106162000D03*
X184676000Y-105812000D03*
X183676000Y-105812000D03*
X209226000Y-96002000D03*
X209226000Y-118862000D03*
X105976000Y-115412000D03*
X107076000Y-87462000D03*
X169672000Y-82962000D03*
X109220000Y-137362000D03*
X193040000Y-137362000D03*
X209226000Y-101082000D03*
X170180000Y-137362000D03*
X190500000Y-137362000D03*
X192532000Y-82962000D03*
X177292000Y-82962000D03*
X203076000Y-122462000D03*
X109776000Y-115412000D03*
X160020000Y-137362000D03*
X111252000Y-82962000D03*
X209076000Y-82462000D03*
X107076000Y-137962000D03*
X138676000Y-114712000D03*
X108712000Y-81026000D03*
X209076000Y-137962000D03*
X141676000Y-114712000D03*
X207576000Y-138462000D03*
X159512000Y-82962000D03*
X150276000Y-114662000D03*
X160676000Y-105812000D03*
X113792000Y-82962000D03*
X175876000Y-105812000D03*
X120526000Y-103962000D03*
X120476000Y-116612000D03*
X169926000Y-120512000D03*
X107876000Y-115412000D03*
X190026000Y-108762000D03*
X139676000Y-114712000D03*
X204576000Y-136462000D03*
X191076000Y-111712000D03*
X184912000Y-82962000D03*
X133876000Y-105962000D03*
X113926000Y-116612000D03*
X153576000Y-106012000D03*
X103226000Y-103632000D03*
X149276000Y-105812000D03*
X154940000Y-137362000D03*
X209226000Y-103622000D03*
X119576000Y-103962000D03*
X134620000Y-137362000D03*
X139700000Y-137362000D03*
X115826000Y-116612000D03*
X103226000Y-116332000D03*
X121476000Y-103962000D03*
X103226000Y-123952000D03*
X103226000Y-106172000D03*
X103226000Y-129032000D03*
X147320000Y-137362000D03*
X121412000Y-82962000D03*
X105576000Y-81962000D03*
X132080000Y-137362000D03*
X186676000Y-114662000D03*
X209076000Y-132962000D03*
X204576000Y-85962000D03*
X103226000Y-98552000D03*
X209226000Y-126482000D03*
X186676000Y-105812000D03*
X124460000Y-137362000D03*
X103226000Y-96012000D03*
X207576000Y-87962000D03*
G04 #@! TA.AperFunction,Conductor*
G36*
X207899775Y-80056002D02*
G01*
X207910578Y-80056947D01*
X208325740Y-80111604D01*
X208336439Y-80113491D01*
X208745258Y-80204124D01*
X208755739Y-80206932D01*
X209155113Y-80332855D01*
X209165291Y-80336560D01*
X209552174Y-80496811D01*
X209562001Y-80501395D01*
X209747716Y-80598072D01*
X209933440Y-80694754D01*
X209942832Y-80700177D01*
X210295992Y-80925165D01*
X210304881Y-80931388D01*
X210637099Y-81186308D01*
X210645414Y-81193286D01*
X210954137Y-81476179D01*
X210961820Y-81483862D01*
X211244713Y-81792585D01*
X211251693Y-81800902D01*
X211506607Y-82133114D01*
X211512834Y-82142007D01*
X211737815Y-82495155D01*
X211743249Y-82504566D01*
X211936604Y-82875998D01*
X211941192Y-82885836D01*
X212036296Y-83115438D01*
X212101436Y-83272701D01*
X212105148Y-83282899D01*
X212185900Y-83539011D01*
X212231064Y-83682252D01*
X212233877Y-83692748D01*
X212324508Y-84101560D01*
X212326395Y-84112261D01*
X212381051Y-84527412D01*
X212381998Y-84538238D01*
X212400500Y-84962000D01*
X212400500Y-135462000D01*
X212381998Y-135885761D01*
X212381051Y-135896587D01*
X212326395Y-136311738D01*
X212324508Y-136322439D01*
X212233877Y-136731251D01*
X212231064Y-136741747D01*
X212105153Y-137141087D01*
X212101436Y-137151298D01*
X211941197Y-137538153D01*
X211936604Y-137548001D01*
X211743249Y-137919433D01*
X211737815Y-137928844D01*
X211512834Y-138281992D01*
X211506602Y-138290893D01*
X211251699Y-138623090D01*
X211244713Y-138631414D01*
X210961820Y-138940137D01*
X210954137Y-138947820D01*
X210645414Y-139230713D01*
X210637090Y-139237699D01*
X210304893Y-139492602D01*
X210295992Y-139498834D01*
X209942844Y-139723815D01*
X209933433Y-139729249D01*
X209562001Y-139922604D01*
X209552153Y-139927197D01*
X209165298Y-140087436D01*
X209155092Y-140091150D01*
X209035222Y-140128945D01*
X208755747Y-140217064D01*
X208745251Y-140219877D01*
X208336439Y-140310508D01*
X208325738Y-140312395D01*
X207910587Y-140367051D01*
X207899761Y-140367998D01*
X207476000Y-140386500D01*
X105076000Y-140386500D01*
X104652238Y-140367998D01*
X104641412Y-140367051D01*
X104226261Y-140312395D01*
X104215560Y-140310508D01*
X103806748Y-140219877D01*
X103796252Y-140217064D01*
X103653011Y-140171900D01*
X103396899Y-140091148D01*
X103386701Y-140087436D01*
X103237612Y-140025682D01*
X102999836Y-139927192D01*
X102989998Y-139922604D01*
X102618566Y-139729249D01*
X102609160Y-139723818D01*
X102408872Y-139596220D01*
X102256007Y-139498834D01*
X102247114Y-139492607D01*
X101914902Y-139237693D01*
X101906585Y-139230713D01*
X101597862Y-138947820D01*
X101590179Y-138940137D01*
X101307286Y-138631414D01*
X101300308Y-138623099D01*
X101045388Y-138290881D01*
X101039165Y-138281992D01*
X100814177Y-137928832D01*
X100808750Y-137919433D01*
X100615395Y-137548001D01*
X100610811Y-137538174D01*
X100450560Y-137151291D01*
X100446855Y-137141113D01*
X100320932Y-136741739D01*
X100318122Y-136731251D01*
X100227491Y-136322439D01*
X100225604Y-136311738D01*
X100170948Y-135896586D01*
X100170002Y-135885775D01*
X100151500Y-135462000D01*
X100151500Y-135437469D01*
X100151500Y-129322000D01*
X109570539Y-129322000D01*
X109590372Y-129788896D01*
X109590373Y-129788903D01*
X109590373Y-129788904D01*
X109649730Y-130252425D01*
X109649730Y-130252426D01*
X109748181Y-130709244D01*
X109748181Y-130709243D01*
X109748182Y-130709247D01*
X109748184Y-130709255D01*
X109823579Y-130955446D01*
X109885022Y-131156080D01*
X109885024Y-131156085D01*
X109885025Y-131156088D01*
X110059267Y-131589706D01*
X110269655Y-132006985D01*
X110269656Y-132006987D01*
X110269655Y-132006987D01*
X110514672Y-132404919D01*
X110792554Y-132780642D01*
X110792554Y-132780641D01*
X111101291Y-133131434D01*
X111438684Y-133454800D01*
X111802268Y-133748373D01*
X111802268Y-133748374D01*
X112189444Y-134010058D01*
X112189447Y-134010060D01*
X112307789Y-134076169D01*
X112597416Y-134237966D01*
X112597415Y-134237965D01*
X112597418Y-134237966D01*
X112597421Y-134237968D01*
X113023253Y-134430457D01*
X113317001Y-134534244D01*
X113463878Y-134586140D01*
X113916106Y-134703891D01*
X113916107Y-134703891D01*
X113916113Y-134703892D01*
X114376708Y-134782869D01*
X114842342Y-134822500D01*
X114842346Y-134822500D01*
X115309654Y-134822500D01*
X115309658Y-134822500D01*
X115775292Y-134782869D01*
X116235887Y-134703892D01*
X116235886Y-134703892D01*
X116235893Y-134703891D01*
X116235894Y-134703891D01*
X116688122Y-134586140D01*
X116834998Y-134534244D01*
X117128747Y-134430457D01*
X117554579Y-134237968D01*
X117554581Y-134237966D01*
X117554585Y-134237965D01*
X117554584Y-134237966D01*
X117844210Y-134076170D01*
X117962553Y-134010060D01*
X117962556Y-134010058D01*
X118349732Y-133748374D01*
X118349732Y-133748373D01*
X118713316Y-133454800D01*
X119050709Y-133131434D01*
X119359446Y-132780641D01*
X119359446Y-132780642D01*
X119637328Y-132404919D01*
X119882345Y-132006987D01*
X119882344Y-132006987D01*
X119882345Y-132006985D01*
X120092733Y-131589706D01*
X120266975Y-131156088D01*
X120266975Y-131156085D01*
X120266978Y-131156080D01*
X120328420Y-130955446D01*
X120403816Y-130709255D01*
X120403817Y-130709247D01*
X120403819Y-130709243D01*
X120403819Y-130709244D01*
X120502270Y-130252426D01*
X120502270Y-130252425D01*
X120561627Y-129788904D01*
X120561627Y-129788903D01*
X120561628Y-129788896D01*
X120581461Y-129322000D01*
X191970539Y-129322000D01*
X191990372Y-129788896D01*
X191990373Y-129788903D01*
X191990373Y-129788904D01*
X192049730Y-130252425D01*
X192049730Y-130252426D01*
X192148181Y-130709244D01*
X192148181Y-130709243D01*
X192148182Y-130709247D01*
X192148184Y-130709255D01*
X192223579Y-130955446D01*
X192285022Y-131156080D01*
X192285024Y-131156085D01*
X192285025Y-131156088D01*
X192459267Y-131589706D01*
X192669655Y-132006985D01*
X192669656Y-132006987D01*
X192669655Y-132006987D01*
X192914672Y-132404919D01*
X193192554Y-132780642D01*
X193192554Y-132780641D01*
X193501291Y-133131434D01*
X193838684Y-133454800D01*
X194202268Y-133748373D01*
X194202268Y-133748374D01*
X194589444Y-134010058D01*
X194589447Y-134010060D01*
X194707789Y-134076169D01*
X194997416Y-134237966D01*
X194997415Y-134237965D01*
X194997418Y-134237966D01*
X194997421Y-134237968D01*
X195423253Y-134430457D01*
X195717001Y-134534244D01*
X195863878Y-134586140D01*
X196316106Y-134703891D01*
X196316107Y-134703891D01*
X196316113Y-134703892D01*
X196776708Y-134782869D01*
X197242342Y-134822500D01*
X197242346Y-134822500D01*
X197709654Y-134822500D01*
X197709658Y-134822500D01*
X198175292Y-134782869D01*
X198635887Y-134703892D01*
X198635886Y-134703892D01*
X198635893Y-134703891D01*
X198635894Y-134703891D01*
X199088122Y-134586140D01*
X199234998Y-134534244D01*
X199528747Y-134430457D01*
X199954579Y-134237968D01*
X199954581Y-134237966D01*
X199954585Y-134237965D01*
X199954584Y-134237966D01*
X200244210Y-134076170D01*
X200362553Y-134010060D01*
X200362556Y-134010058D01*
X200749732Y-133748374D01*
X200749732Y-133748373D01*
X201113316Y-133454800D01*
X201450709Y-133131434D01*
X201759446Y-132780641D01*
X201759446Y-132780642D01*
X202037328Y-132404919D01*
X202282345Y-132006987D01*
X202282344Y-132006987D01*
X202282345Y-132006985D01*
X202492733Y-131589706D01*
X202666975Y-131156088D01*
X202666975Y-131156085D01*
X202666978Y-131156080D01*
X202728420Y-130955446D01*
X202803816Y-130709255D01*
X202803817Y-130709247D01*
X202803819Y-130709243D01*
X202803819Y-130709244D01*
X202902270Y-130252426D01*
X202902270Y-130252425D01*
X202961627Y-129788904D01*
X202961627Y-129788903D01*
X202961628Y-129788896D01*
X202981461Y-129322000D01*
X202961628Y-128855104D01*
X202902270Y-128391573D01*
X202803819Y-127934757D01*
X202803818Y-127934756D01*
X202803817Y-127934752D01*
X202803816Y-127934745D01*
X202728420Y-127688553D01*
X202666978Y-127487920D01*
X202666975Y-127487912D01*
X202492733Y-127054294D01*
X202282345Y-126637015D01*
X202282344Y-126637013D01*
X202282345Y-126637013D01*
X202037328Y-126239081D01*
X201759446Y-125863358D01*
X201759446Y-125863359D01*
X201450709Y-125512566D01*
X201113316Y-125189200D01*
X200749732Y-124895627D01*
X200749732Y-124895626D01*
X200362556Y-124633942D01*
X200362555Y-124633941D01*
X200362553Y-124633940D01*
X200244210Y-124567829D01*
X199954584Y-124406034D01*
X199954585Y-124406035D01*
X199954581Y-124406033D01*
X199954579Y-124406032D01*
X199528747Y-124213543D01*
X199234998Y-124109755D01*
X199088122Y-124057860D01*
X198635894Y-123940109D01*
X198635893Y-123940109D01*
X198569646Y-123928749D01*
X198175292Y-123861131D01*
X197709658Y-123821500D01*
X197242342Y-123821500D01*
X196776708Y-123861131D01*
X196382353Y-123928749D01*
X196316107Y-123940109D01*
X196316106Y-123940109D01*
X195863878Y-124057860D01*
X195717001Y-124109755D01*
X195423253Y-124213543D01*
X194997421Y-124406032D01*
X194997418Y-124406033D01*
X194997415Y-124406035D01*
X194997416Y-124406034D01*
X194707789Y-124567830D01*
X194589447Y-124633940D01*
X194589444Y-124633941D01*
X194589444Y-124633942D01*
X194202268Y-124895626D01*
X194202268Y-124895627D01*
X193838684Y-125189200D01*
X193501291Y-125512566D01*
X193192554Y-125863359D01*
X193192554Y-125863358D01*
X192914672Y-126239081D01*
X192669655Y-126637013D01*
X192669656Y-126637013D01*
X192669655Y-126637015D01*
X192459267Y-127054294D01*
X192285025Y-127487912D01*
X192285022Y-127487920D01*
X192223579Y-127688553D01*
X192148184Y-127934745D01*
X192148182Y-127934752D01*
X192148182Y-127934756D01*
X192049730Y-128391573D01*
X191990372Y-128855104D01*
X191970539Y-129322000D01*
X120581461Y-129322000D01*
X120561628Y-128855104D01*
X120502270Y-128391573D01*
X120403819Y-127934757D01*
X120403818Y-127934756D01*
X120403817Y-127934752D01*
X120403816Y-127934745D01*
X120328420Y-127688553D01*
X120266978Y-127487920D01*
X120266975Y-127487912D01*
X120092733Y-127054294D01*
X119882345Y-126637015D01*
X119882344Y-126637013D01*
X119882345Y-126637013D01*
X119637328Y-126239081D01*
X119359446Y-125863358D01*
X119359446Y-125863359D01*
X119050709Y-125512566D01*
X118713316Y-125189200D01*
X118349732Y-124895627D01*
X118349732Y-124895626D01*
X117962556Y-124633942D01*
X117962555Y-124633941D01*
X117962553Y-124633940D01*
X117844210Y-124567830D01*
X117554584Y-124406034D01*
X117554585Y-124406035D01*
X117554581Y-124406033D01*
X117554579Y-124406032D01*
X117128747Y-124213543D01*
X116834998Y-124109755D01*
X116688122Y-124057860D01*
X116235894Y-123940109D01*
X116235893Y-123940109D01*
X116169646Y-123928749D01*
X115775292Y-123861131D01*
X115309658Y-123821500D01*
X114842342Y-123821500D01*
X114376708Y-123861131D01*
X113982353Y-123928749D01*
X113916107Y-123940109D01*
X113916106Y-123940109D01*
X113463878Y-124057860D01*
X113317001Y-124109755D01*
X113023253Y-124213543D01*
X112597421Y-124406032D01*
X112597418Y-124406033D01*
X112597415Y-124406035D01*
X112597416Y-124406034D01*
X112307789Y-124567830D01*
X112189447Y-124633940D01*
X112189444Y-124633941D01*
X112189444Y-124633942D01*
X111802268Y-124895626D01*
X111802268Y-124895627D01*
X111438684Y-125189200D01*
X111101291Y-125512566D01*
X110792554Y-125863359D01*
X110792554Y-125863358D01*
X110514672Y-126239081D01*
X110269655Y-126637013D01*
X110269656Y-126637013D01*
X110269655Y-126637015D01*
X110059267Y-127054294D01*
X109885025Y-127487912D01*
X109885022Y-127487920D01*
X109823579Y-127688553D01*
X109748184Y-127934745D01*
X109748182Y-127934752D01*
X109748182Y-127934756D01*
X109649730Y-128391573D01*
X109590372Y-128855104D01*
X109570539Y-129322000D01*
X100151500Y-129322000D01*
X100151500Y-117462004D01*
X127045783Y-117462004D01*
X127064621Y-117701372D01*
X127064622Y-117701379D01*
X127120676Y-117934862D01*
X127120677Y-117934863D01*
X127212567Y-118156704D01*
X127338028Y-118361439D01*
X127493973Y-118544027D01*
X127676561Y-118699972D01*
X127881296Y-118825433D01*
X128103135Y-118917322D01*
X128103137Y-118917323D01*
X128336620Y-118973377D01*
X128336627Y-118973378D01*
X128575996Y-118992217D01*
X128576000Y-118992217D01*
X128576004Y-118992217D01*
X128815372Y-118973378D01*
X128815379Y-118973377D01*
X129048863Y-118917323D01*
X129270704Y-118825433D01*
X129475439Y-118699972D01*
X129658027Y-118544027D01*
X129813972Y-118361439D01*
X129939433Y-118156704D01*
X130031323Y-117934863D01*
X130087377Y-117701379D01*
X130106217Y-117462000D01*
X130106217Y-117461995D01*
X130087378Y-117222627D01*
X130087377Y-117222620D01*
X130031323Y-116989137D01*
X130031322Y-116989135D01*
X129939433Y-116767296D01*
X129813972Y-116562561D01*
X129658027Y-116379973D01*
X129475439Y-116224028D01*
X129270704Y-116098567D01*
X129159783Y-116052622D01*
X129048864Y-116006677D01*
X129048862Y-116006676D01*
X128815379Y-115950622D01*
X128815372Y-115950621D01*
X128576004Y-115931783D01*
X128575996Y-115931783D01*
X128336627Y-115950621D01*
X128336620Y-115950622D01*
X128103137Y-116006676D01*
X128103135Y-116006677D01*
X127881296Y-116098567D01*
X127676562Y-116224027D01*
X127493976Y-116379970D01*
X127493970Y-116379976D01*
X127338027Y-116562562D01*
X127212567Y-116767296D01*
X127120677Y-116989135D01*
X127120676Y-116989137D01*
X127064622Y-117222620D01*
X127064621Y-117222627D01*
X127045783Y-117461995D01*
X127045783Y-117462004D01*
X100151500Y-117462004D01*
X100151500Y-103005504D01*
X127045783Y-103005504D01*
X127064621Y-103244872D01*
X127064622Y-103244879D01*
X127120676Y-103478362D01*
X127120677Y-103478363D01*
X127212567Y-103700204D01*
X127338028Y-103904939D01*
X127493973Y-104087527D01*
X127676561Y-104243472D01*
X127881296Y-104368933D01*
X128103135Y-104460822D01*
X128103137Y-104460823D01*
X128336620Y-104516877D01*
X128336627Y-104516878D01*
X128575996Y-104535717D01*
X128576000Y-104535717D01*
X128576004Y-104535717D01*
X128815372Y-104516878D01*
X128815379Y-104516877D01*
X128815378Y-104516876D01*
X129048863Y-104460823D01*
X129270704Y-104368933D01*
X129475439Y-104243472D01*
X129658027Y-104087527D01*
X129813972Y-103904939D01*
X129939433Y-103700204D01*
X130031323Y-103478363D01*
X130087377Y-103244879D01*
X130106217Y-103005500D01*
X130106217Y-103005495D01*
X130087378Y-102766127D01*
X130087377Y-102766120D01*
X130031323Y-102532637D01*
X130031322Y-102532635D01*
X129939433Y-102310796D01*
X129813972Y-102106061D01*
X129658027Y-101923473D01*
X129475439Y-101767528D01*
X129270704Y-101642067D01*
X129159783Y-101596121D01*
X129048864Y-101550177D01*
X129048862Y-101550176D01*
X128815379Y-101494122D01*
X128815372Y-101494121D01*
X128576004Y-101475283D01*
X128575996Y-101475283D01*
X128336627Y-101494121D01*
X128336620Y-101494122D01*
X128103137Y-101550176D01*
X128103135Y-101550177D01*
X127881296Y-101642067D01*
X127676562Y-101767527D01*
X127493976Y-101923470D01*
X127493970Y-101923476D01*
X127338027Y-102106062D01*
X127212567Y-102310796D01*
X127120677Y-102532635D01*
X127120676Y-102532637D01*
X127064622Y-102766120D01*
X127064621Y-102766127D01*
X127045783Y-103005495D01*
X127045783Y-103005504D01*
X100151500Y-103005504D01*
X100151500Y-91202000D01*
X109570539Y-91202000D01*
X109590372Y-91668896D01*
X109590373Y-91668903D01*
X109590373Y-91668904D01*
X109649730Y-92132425D01*
X109649730Y-92132426D01*
X109748181Y-92589244D01*
X109748181Y-92589243D01*
X109748182Y-92589247D01*
X109748184Y-92589255D01*
X109823579Y-92835446D01*
X109885022Y-93036080D01*
X109885024Y-93036085D01*
X109885025Y-93036088D01*
X110059267Y-93469706D01*
X110269655Y-93886985D01*
X110269656Y-93886987D01*
X110269655Y-93886987D01*
X110514672Y-94284919D01*
X110792554Y-94660642D01*
X110792554Y-94660641D01*
X111101291Y-95011434D01*
X111438684Y-95334800D01*
X111802268Y-95628373D01*
X111802268Y-95628374D01*
X112189444Y-95890058D01*
X112189447Y-95890060D01*
X112307789Y-95956169D01*
X112597416Y-96117966D01*
X112597415Y-96117965D01*
X112597418Y-96117966D01*
X112597421Y-96117968D01*
X113023253Y-96310457D01*
X113317001Y-96414245D01*
X113463878Y-96466140D01*
X113916106Y-96583891D01*
X113916107Y-96583891D01*
X113916113Y-96583892D01*
X114376708Y-96662869D01*
X114842342Y-96702500D01*
X114842346Y-96702500D01*
X115309654Y-96702500D01*
X115309658Y-96702500D01*
X115775292Y-96662869D01*
X116235887Y-96583892D01*
X116235886Y-96583892D01*
X116235893Y-96583891D01*
X116235894Y-96583891D01*
X116688122Y-96466140D01*
X116834998Y-96414245D01*
X117128747Y-96310457D01*
X117554579Y-96117968D01*
X117554581Y-96117966D01*
X117554585Y-96117965D01*
X117554584Y-96117966D01*
X117844210Y-95956169D01*
X117962553Y-95890060D01*
X117962556Y-95890058D01*
X118349732Y-95628374D01*
X118349732Y-95628373D01*
X118713316Y-95334800D01*
X119050709Y-95011434D01*
X119359446Y-94660641D01*
X119359446Y-94660642D01*
X119637328Y-94284919D01*
X119882345Y-93886987D01*
X119882344Y-93886987D01*
X119882345Y-93886985D01*
X120092733Y-93469706D01*
X120266975Y-93036088D01*
X120266975Y-93036085D01*
X120266978Y-93036080D01*
X120328420Y-92835446D01*
X120403816Y-92589255D01*
X120403817Y-92589247D01*
X120403819Y-92589243D01*
X120403819Y-92589244D01*
X120502270Y-92132426D01*
X120502270Y-92132425D01*
X120561627Y-91668904D01*
X120561627Y-91668903D01*
X120561628Y-91668896D01*
X120581461Y-91202000D01*
X191970539Y-91202000D01*
X191990372Y-91668896D01*
X191990373Y-91668903D01*
X191990373Y-91668904D01*
X192049730Y-92132425D01*
X192049730Y-92132426D01*
X192148181Y-92589244D01*
X192148181Y-92589243D01*
X192148182Y-92589247D01*
X192148184Y-92589255D01*
X192223579Y-92835446D01*
X192285022Y-93036080D01*
X192285024Y-93036085D01*
X192285025Y-93036088D01*
X192459267Y-93469706D01*
X192669655Y-93886985D01*
X192669656Y-93886987D01*
X192669655Y-93886987D01*
X192914672Y-94284919D01*
X193192554Y-94660642D01*
X193192554Y-94660641D01*
X193501291Y-95011434D01*
X193838684Y-95334800D01*
X194202268Y-95628373D01*
X194202268Y-95628374D01*
X194589444Y-95890058D01*
X194589447Y-95890060D01*
X194707789Y-95956170D01*
X194997416Y-96117966D01*
X194997415Y-96117965D01*
X194997418Y-96117966D01*
X194997421Y-96117968D01*
X195423253Y-96310457D01*
X195717001Y-96414245D01*
X195863878Y-96466140D01*
X196316106Y-96583891D01*
X196316107Y-96583891D01*
X196316113Y-96583892D01*
X196776708Y-96662869D01*
X197242342Y-96702500D01*
X197242346Y-96702500D01*
X197709654Y-96702500D01*
X197709658Y-96702500D01*
X198175292Y-96662869D01*
X198635887Y-96583892D01*
X198635886Y-96583892D01*
X198635893Y-96583891D01*
X198635894Y-96583891D01*
X199088122Y-96466140D01*
X199234998Y-96414245D01*
X199528747Y-96310457D01*
X199954579Y-96117968D01*
X199954581Y-96117966D01*
X199954585Y-96117965D01*
X199954584Y-96117966D01*
X200244210Y-95956169D01*
X200362553Y-95890060D01*
X200362556Y-95890058D01*
X200749732Y-95628374D01*
X200749732Y-95628373D01*
X201113316Y-95334800D01*
X201450709Y-95011434D01*
X201759446Y-94660641D01*
X201759446Y-94660642D01*
X202037328Y-94284919D01*
X202282345Y-93886987D01*
X202282344Y-93886987D01*
X202282345Y-93886985D01*
X202492733Y-93469706D01*
X202666975Y-93036088D01*
X202666975Y-93036085D01*
X202666978Y-93036080D01*
X202728420Y-92835446D01*
X202803816Y-92589255D01*
X202803817Y-92589247D01*
X202803819Y-92589243D01*
X202803819Y-92589244D01*
X202902270Y-92132426D01*
X202902270Y-92132425D01*
X202961627Y-91668904D01*
X202961627Y-91668903D01*
X202961628Y-91668896D01*
X202981461Y-91202000D01*
X202961628Y-90735104D01*
X202902270Y-90271573D01*
X202803819Y-89814757D01*
X202803818Y-89814756D01*
X202803817Y-89814752D01*
X202803816Y-89814745D01*
X202728420Y-89568553D01*
X202666978Y-89367920D01*
X202666975Y-89367912D01*
X202492733Y-88934294D01*
X202282345Y-88517015D01*
X202282344Y-88517013D01*
X202282345Y-88517013D01*
X202037328Y-88119081D01*
X201759446Y-87743358D01*
X201759446Y-87743359D01*
X201450709Y-87392566D01*
X201113316Y-87069200D01*
X200749732Y-86775627D01*
X200749732Y-86775626D01*
X200362556Y-86513942D01*
X200362555Y-86513941D01*
X200362553Y-86513940D01*
X200244210Y-86447830D01*
X199954584Y-86286034D01*
X199954585Y-86286035D01*
X199954581Y-86286033D01*
X199954579Y-86286032D01*
X199528747Y-86093543D01*
X199234998Y-85989755D01*
X199088122Y-85937860D01*
X198635894Y-85820109D01*
X198635893Y-85820109D01*
X198569646Y-85808749D01*
X198175292Y-85741131D01*
X197709658Y-85701500D01*
X197242342Y-85701500D01*
X196776708Y-85741131D01*
X196382353Y-85808749D01*
X196316107Y-85820109D01*
X196316106Y-85820109D01*
X195863878Y-85937860D01*
X195717001Y-85989755D01*
X195423253Y-86093543D01*
X194997421Y-86286032D01*
X194997418Y-86286033D01*
X194997415Y-86286035D01*
X194997416Y-86286034D01*
X194707789Y-86447829D01*
X194589447Y-86513940D01*
X194589444Y-86513941D01*
X194589444Y-86513942D01*
X194202268Y-86775626D01*
X194202268Y-86775627D01*
X193838684Y-87069200D01*
X193501291Y-87392566D01*
X193192554Y-87743359D01*
X193192554Y-87743358D01*
X192914672Y-88119081D01*
X192669655Y-88517013D01*
X192669656Y-88517013D01*
X192669655Y-88517015D01*
X192459267Y-88934294D01*
X192285025Y-89367912D01*
X192285022Y-89367920D01*
X192223579Y-89568553D01*
X192148184Y-89814745D01*
X192148182Y-89814752D01*
X192148182Y-89814756D01*
X192049730Y-90271573D01*
X191990372Y-90735104D01*
X191970539Y-91202000D01*
X120581461Y-91202000D01*
X120561628Y-90735104D01*
X120502270Y-90271573D01*
X120403819Y-89814757D01*
X120403818Y-89814756D01*
X120403817Y-89814752D01*
X120403816Y-89814745D01*
X120328420Y-89568553D01*
X120266978Y-89367920D01*
X120266975Y-89367912D01*
X120092733Y-88934294D01*
X119882345Y-88517015D01*
X119882344Y-88517013D01*
X119882345Y-88517013D01*
X119637328Y-88119081D01*
X119359446Y-87743358D01*
X119359446Y-87743359D01*
X119050709Y-87392566D01*
X118713316Y-87069200D01*
X118349732Y-86775627D01*
X118349732Y-86775626D01*
X117962556Y-86513942D01*
X117962555Y-86513941D01*
X117962553Y-86513940D01*
X117844210Y-86447829D01*
X117554584Y-86286034D01*
X117554585Y-86286035D01*
X117554581Y-86286033D01*
X117554579Y-86286032D01*
X117128747Y-86093543D01*
X116834998Y-85989754D01*
X116688122Y-85937860D01*
X116235894Y-85820109D01*
X116235893Y-85820109D01*
X116169646Y-85808749D01*
X115775292Y-85741131D01*
X115309658Y-85701500D01*
X114842342Y-85701500D01*
X114376708Y-85741131D01*
X113982353Y-85808749D01*
X113916107Y-85820109D01*
X113916106Y-85820109D01*
X113463878Y-85937860D01*
X113317001Y-85989755D01*
X113023253Y-86093543D01*
X112597421Y-86286032D01*
X112597418Y-86286033D01*
X112597415Y-86286035D01*
X112597416Y-86286034D01*
X112307789Y-86447829D01*
X112189447Y-86513940D01*
X112189444Y-86513941D01*
X112189444Y-86513942D01*
X111802268Y-86775626D01*
X111802268Y-86775627D01*
X111438684Y-87069200D01*
X111101291Y-87392566D01*
X110792554Y-87743359D01*
X110792554Y-87743358D01*
X110514672Y-88119081D01*
X110269655Y-88517013D01*
X110269656Y-88517013D01*
X110269655Y-88517015D01*
X110059267Y-88934294D01*
X109885025Y-89367912D01*
X109885022Y-89367920D01*
X109823579Y-89568553D01*
X109748184Y-89814745D01*
X109748182Y-89814752D01*
X109748182Y-89814756D01*
X109649730Y-90271573D01*
X109590372Y-90735104D01*
X109570539Y-91202000D01*
X100151500Y-91202000D01*
X100151500Y-84962000D01*
X100170002Y-84538222D01*
X100170948Y-84527413D01*
X100170949Y-84527412D01*
X100225605Y-84112255D01*
X100227491Y-84101560D01*
X100267844Y-83919539D01*
X100318125Y-83692735D01*
X100320931Y-83682266D01*
X100446857Y-83282879D01*
X100450557Y-83272716D01*
X100610815Y-82885816D01*
X100615395Y-82875998D01*
X100690901Y-82730952D01*
X100808759Y-82504549D01*
X100814171Y-82495177D01*
X101039172Y-82141996D01*
X101045380Y-82133128D01*
X101300317Y-81800888D01*
X101307286Y-81792585D01*
X101590179Y-81483862D01*
X101597862Y-81476179D01*
X101906585Y-81193286D01*
X101914888Y-81186317D01*
X102247128Y-80931380D01*
X102255996Y-80925172D01*
X102609177Y-80700171D01*
X102618549Y-80694759D01*
X102989999Y-80501394D01*
X102999816Y-80496815D01*
X103386716Y-80336557D01*
X103396879Y-80332857D01*
X103796266Y-80206931D01*
X103806735Y-80204125D01*
X104215564Y-80113490D01*
X104226255Y-80111605D01*
X104641423Y-80056947D01*
X104652222Y-80056002D01*
X105076000Y-80037500D01*
X105100531Y-80037500D01*
X207451469Y-80037500D01*
X207476000Y-80037500D01*
X207899775Y-80056002D01*
G37*
G04 #@! TD.AperFunction*
M02*
