G04 #@! TF.GenerationSoftware,KiCad,Pcbnew,7.0.7*
G04 #@! TF.CreationDate,2023-09-14T15:12:29+02:00*
G04 #@! TF.ProjectId,5uH_LISN,3575485f-4c49-4534-9e2e-6b696361645f,V1 R0*
G04 #@! TF.SameCoordinates,Original*
G04 #@! TF.FileFunction,Soldermask,Top*
G04 #@! TF.FilePolarity,Negative*
%FSLAX46Y46*%
G04 Gerber Fmt 4.6, Leading zero omitted, Abs format (unit mm)*
G04 Created by KiCad (PCBNEW 7.0.7) date 2023-09-14 15:12:29*
%MOMM*%
%LPD*%
G01*
G04 APERTURE LIST*
G04 APERTURE END LIST*
G36*
X105323504Y-131365190D02*
G01*
X105421155Y-131365190D01*
X105524633Y-131375070D01*
X105628027Y-131380150D01*
X105718718Y-131393602D01*
X105809697Y-131402290D01*
X105917993Y-131423162D01*
X106026182Y-131439211D01*
X106109358Y-131460045D01*
X106192951Y-131476157D01*
X106304862Y-131509017D01*
X106416632Y-131537014D01*
X106491756Y-131563893D01*
X106567455Y-131586121D01*
X106681685Y-131631851D01*
X106795614Y-131672616D01*
X106862332Y-131704171D01*
X106929812Y-131731186D01*
X107044924Y-131790530D01*
X107159481Y-131844712D01*
X107217655Y-131879580D01*
X107276727Y-131910034D01*
X107391140Y-131983562D01*
X107504727Y-132051644D01*
X107554393Y-132088479D01*
X107605073Y-132121049D01*
X107717160Y-132209195D01*
X107828027Y-132291420D01*
X107869399Y-132328917D01*
X107911889Y-132362332D01*
X108019968Y-132465386D01*
X108126269Y-132561731D01*
X108159721Y-132598640D01*
X108194359Y-132631667D01*
X108296649Y-132749717D01*
X108396580Y-132859973D01*
X108422676Y-132895159D01*
X108449961Y-132926648D01*
X108544694Y-133059682D01*
X108636356Y-133183273D01*
X108655775Y-133215673D01*
X108676364Y-133244585D01*
X108761793Y-133392553D01*
X108843288Y-133528519D01*
X108856856Y-133557207D01*
X108871521Y-133582607D01*
X108945904Y-133745482D01*
X109015384Y-133892386D01*
X109024037Y-133916570D01*
X109033660Y-133937641D01*
X109095277Y-134115672D01*
X109150986Y-134271368D01*
X109155759Y-134290424D01*
X109161318Y-134306485D01*
X109208537Y-134501125D01*
X109248789Y-134661818D01*
X109250784Y-134675267D01*
X109253338Y-134685795D01*
X109284629Y-134903432D01*
X109307850Y-135059973D01*
X109308220Y-135067513D01*
X109308884Y-135072129D01*
X109322851Y-135365341D01*
X109327600Y-135462000D01*
X109322851Y-135558666D01*
X109308884Y-135851870D01*
X109308220Y-135856484D01*
X109307850Y-135864027D01*
X109284624Y-136020598D01*
X109253338Y-136238204D01*
X109250784Y-136248729D01*
X109248789Y-136262182D01*
X109208529Y-136422905D01*
X109161318Y-136617514D01*
X109155760Y-136633571D01*
X109150986Y-136652632D01*
X109095266Y-136808357D01*
X109033660Y-136986358D01*
X109024038Y-137007425D01*
X109015384Y-137031614D01*
X108945890Y-137178545D01*
X108871521Y-137341392D01*
X108856859Y-137366786D01*
X108843288Y-137395481D01*
X108761778Y-137531472D01*
X108676364Y-137679414D01*
X108655779Y-137708320D01*
X108636356Y-137740727D01*
X108544677Y-137864341D01*
X108449961Y-137997351D01*
X108422681Y-138028833D01*
X108396580Y-138064027D01*
X108296630Y-138174304D01*
X108194359Y-138292332D01*
X108159728Y-138325352D01*
X108126269Y-138362269D01*
X108019947Y-138458633D01*
X107911889Y-138561667D01*
X107869407Y-138595074D01*
X107828027Y-138632580D01*
X107717138Y-138714820D01*
X107605073Y-138802950D01*
X107554404Y-138835512D01*
X107504727Y-138872356D01*
X107391117Y-138940450D01*
X107276727Y-139013965D01*
X107217667Y-139044412D01*
X107159481Y-139079288D01*
X107044900Y-139133480D01*
X106929812Y-139192813D01*
X106862346Y-139219822D01*
X106795614Y-139251384D01*
X106681661Y-139292156D01*
X106567455Y-139337878D01*
X106491771Y-139360100D01*
X106416632Y-139386986D01*
X106304839Y-139414988D01*
X106192951Y-139447842D01*
X106109375Y-139463950D01*
X106026182Y-139484789D01*
X105917970Y-139500840D01*
X105809697Y-139521709D01*
X105718733Y-139530394D01*
X105628027Y-139543850D01*
X105524628Y-139548929D01*
X105421155Y-139558810D01*
X105323504Y-139558810D01*
X105226000Y-139563600D01*
X105128496Y-139558810D01*
X105030845Y-139558810D01*
X104927371Y-139548929D01*
X104823973Y-139543850D01*
X104733267Y-139530395D01*
X104642302Y-139521709D01*
X104534024Y-139500840D01*
X104425818Y-139484789D01*
X104342627Y-139463950D01*
X104259048Y-139447842D01*
X104147153Y-139414987D01*
X104035368Y-139386986D01*
X103960232Y-139360102D01*
X103884544Y-139337878D01*
X103770328Y-139292153D01*
X103656386Y-139251384D01*
X103589659Y-139219824D01*
X103522187Y-139192813D01*
X103407091Y-139133476D01*
X103292519Y-139079288D01*
X103234333Y-139044413D01*
X103175273Y-139013965D01*
X103060877Y-138940447D01*
X102947273Y-138872356D01*
X102897601Y-138835517D01*
X102846926Y-138802950D01*
X102734844Y-138714807D01*
X102623973Y-138632580D01*
X102582598Y-138595080D01*
X102540110Y-138561667D01*
X102432032Y-138458614D01*
X102325731Y-138362269D01*
X102292277Y-138325359D01*
X102257640Y-138292332D01*
X102155347Y-138174279D01*
X102055420Y-138064027D01*
X102029324Y-138028841D01*
X102002038Y-137997351D01*
X101907297Y-137864307D01*
X101815644Y-137740727D01*
X101796225Y-137708329D01*
X101775635Y-137679414D01*
X101690194Y-137531427D01*
X101608712Y-137395481D01*
X101595145Y-137366796D01*
X101580478Y-137341392D01*
X101506080Y-137178483D01*
X101436616Y-137031614D01*
X101427964Y-137007435D01*
X101418339Y-136986358D01*
X101356702Y-136808271D01*
X101301014Y-136652632D01*
X101296242Y-136633582D01*
X101290681Y-136617514D01*
X101243438Y-136422778D01*
X101203211Y-136262182D01*
X101201217Y-136248740D01*
X101198661Y-136238204D01*
X101167342Y-136020379D01*
X101144150Y-135864027D01*
X101143779Y-135856495D01*
X101143115Y-135851870D01*
X101129115Y-135557994D01*
X101124400Y-135462000D01*
X101129115Y-135366012D01*
X101143115Y-135072129D01*
X101143780Y-135067503D01*
X101144150Y-135059973D01*
X101167338Y-134903651D01*
X101198661Y-134685795D01*
X101201217Y-134675256D01*
X101203211Y-134661818D01*
X101243430Y-134501252D01*
X101290681Y-134306485D01*
X101296243Y-134290414D01*
X101301014Y-134271368D01*
X101356692Y-134115757D01*
X101418339Y-133937641D01*
X101427966Y-133916559D01*
X101436616Y-133892386D01*
X101506066Y-133745544D01*
X101580478Y-133582607D01*
X101595147Y-133557198D01*
X101608712Y-133528519D01*
X101690179Y-133392599D01*
X101775635Y-133244585D01*
X101796229Y-133215664D01*
X101815644Y-133183273D01*
X101907280Y-133059716D01*
X102002038Y-132926648D01*
X102029329Y-132895151D01*
X102055420Y-132859973D01*
X102155327Y-132749742D01*
X102257640Y-132631667D01*
X102292284Y-132598633D01*
X102325731Y-132561731D01*
X102432010Y-132465404D01*
X102540110Y-132362332D01*
X102582607Y-132328911D01*
X102623973Y-132291420D01*
X102734821Y-132209208D01*
X102846926Y-132121049D01*
X102897611Y-132088475D01*
X102947273Y-132051644D01*
X103060854Y-131983566D01*
X103175273Y-131910034D01*
X103234345Y-131879579D01*
X103292519Y-131844712D01*
X103407067Y-131790534D01*
X103522187Y-131731186D01*
X103589673Y-131704168D01*
X103656386Y-131672616D01*
X103770305Y-131631854D01*
X103884544Y-131586121D01*
X103960248Y-131563892D01*
X104035368Y-131537014D01*
X104147130Y-131509018D01*
X104259048Y-131476157D01*
X104342645Y-131460044D01*
X104425818Y-131439211D01*
X104534002Y-131423163D01*
X104642302Y-131402290D01*
X104733282Y-131393602D01*
X104823973Y-131380150D01*
X104927365Y-131375070D01*
X105030845Y-131365190D01*
X105128496Y-131365190D01*
X105226000Y-131360400D01*
X105323504Y-131365190D01*
G37*
G36*
X207423504Y-131365190D02*
G01*
X207521155Y-131365190D01*
X207624633Y-131375070D01*
X207728027Y-131380150D01*
X207818718Y-131393602D01*
X207909697Y-131402290D01*
X208017993Y-131423162D01*
X208126182Y-131439211D01*
X208209358Y-131460045D01*
X208292951Y-131476157D01*
X208404862Y-131509017D01*
X208516632Y-131537014D01*
X208591756Y-131563893D01*
X208667455Y-131586121D01*
X208781685Y-131631851D01*
X208895614Y-131672616D01*
X208962332Y-131704171D01*
X209029812Y-131731186D01*
X209144924Y-131790530D01*
X209259481Y-131844712D01*
X209317655Y-131879580D01*
X209376727Y-131910034D01*
X209491140Y-131983562D01*
X209604727Y-132051644D01*
X209654393Y-132088479D01*
X209705073Y-132121049D01*
X209817160Y-132209195D01*
X209928027Y-132291420D01*
X209969399Y-132328917D01*
X210011889Y-132362332D01*
X210119968Y-132465386D01*
X210226269Y-132561731D01*
X210259721Y-132598640D01*
X210294359Y-132631667D01*
X210396649Y-132749717D01*
X210496580Y-132859973D01*
X210522676Y-132895159D01*
X210549961Y-132926648D01*
X210644694Y-133059682D01*
X210736356Y-133183273D01*
X210755775Y-133215673D01*
X210776364Y-133244585D01*
X210861793Y-133392553D01*
X210943288Y-133528519D01*
X210956856Y-133557207D01*
X210971521Y-133582607D01*
X211045904Y-133745482D01*
X211115384Y-133892386D01*
X211124037Y-133916570D01*
X211133660Y-133937641D01*
X211195277Y-134115672D01*
X211250986Y-134271368D01*
X211255759Y-134290424D01*
X211261318Y-134306485D01*
X211308537Y-134501125D01*
X211348789Y-134661818D01*
X211350784Y-134675267D01*
X211353338Y-134685795D01*
X211384629Y-134903432D01*
X211407850Y-135059973D01*
X211408220Y-135067513D01*
X211408884Y-135072129D01*
X211422851Y-135365341D01*
X211427600Y-135462000D01*
X211422851Y-135558666D01*
X211408884Y-135851870D01*
X211408220Y-135856484D01*
X211407850Y-135864027D01*
X211384624Y-136020598D01*
X211353338Y-136238204D01*
X211350784Y-136248729D01*
X211348789Y-136262182D01*
X211308529Y-136422905D01*
X211261318Y-136617514D01*
X211255760Y-136633571D01*
X211250986Y-136652632D01*
X211195266Y-136808357D01*
X211133660Y-136986358D01*
X211124038Y-137007425D01*
X211115384Y-137031614D01*
X211045890Y-137178545D01*
X210971521Y-137341392D01*
X210956859Y-137366786D01*
X210943288Y-137395481D01*
X210861778Y-137531472D01*
X210776364Y-137679414D01*
X210755779Y-137708320D01*
X210736356Y-137740727D01*
X210644677Y-137864341D01*
X210549961Y-137997351D01*
X210522681Y-138028833D01*
X210496580Y-138064027D01*
X210396630Y-138174304D01*
X210294359Y-138292332D01*
X210259728Y-138325352D01*
X210226269Y-138362269D01*
X210119947Y-138458633D01*
X210011889Y-138561667D01*
X209969407Y-138595074D01*
X209928027Y-138632580D01*
X209817138Y-138714820D01*
X209705073Y-138802950D01*
X209654404Y-138835512D01*
X209604727Y-138872356D01*
X209491117Y-138940450D01*
X209376727Y-139013965D01*
X209317667Y-139044412D01*
X209259481Y-139079288D01*
X209144900Y-139133480D01*
X209029812Y-139192813D01*
X208962346Y-139219822D01*
X208895614Y-139251384D01*
X208781661Y-139292156D01*
X208667455Y-139337878D01*
X208591771Y-139360100D01*
X208516632Y-139386986D01*
X208404839Y-139414988D01*
X208292951Y-139447842D01*
X208209375Y-139463950D01*
X208126182Y-139484789D01*
X208017970Y-139500840D01*
X207909697Y-139521709D01*
X207818733Y-139530394D01*
X207728027Y-139543850D01*
X207624628Y-139548929D01*
X207521155Y-139558810D01*
X207423504Y-139558810D01*
X207326000Y-139563600D01*
X207228496Y-139558810D01*
X207130845Y-139558810D01*
X207027371Y-139548929D01*
X206923973Y-139543850D01*
X206833267Y-139530395D01*
X206742302Y-139521709D01*
X206634024Y-139500840D01*
X206525818Y-139484789D01*
X206442627Y-139463950D01*
X206359048Y-139447842D01*
X206247153Y-139414987D01*
X206135368Y-139386986D01*
X206060232Y-139360102D01*
X205984544Y-139337878D01*
X205870328Y-139292153D01*
X205756386Y-139251384D01*
X205689659Y-139219824D01*
X205622187Y-139192813D01*
X205507091Y-139133476D01*
X205392519Y-139079288D01*
X205334333Y-139044413D01*
X205275273Y-139013965D01*
X205160877Y-138940447D01*
X205047273Y-138872356D01*
X204997601Y-138835517D01*
X204946926Y-138802950D01*
X204834844Y-138714807D01*
X204723973Y-138632580D01*
X204682598Y-138595080D01*
X204640110Y-138561667D01*
X204532032Y-138458614D01*
X204425731Y-138362269D01*
X204392277Y-138325359D01*
X204357640Y-138292332D01*
X204255347Y-138174279D01*
X204155420Y-138064027D01*
X204129324Y-138028841D01*
X204102038Y-137997351D01*
X204007297Y-137864307D01*
X203915644Y-137740727D01*
X203896225Y-137708329D01*
X203875635Y-137679414D01*
X203790194Y-137531427D01*
X203708712Y-137395481D01*
X203695145Y-137366796D01*
X203680478Y-137341392D01*
X203606080Y-137178483D01*
X203536616Y-137031614D01*
X203527964Y-137007435D01*
X203518339Y-136986358D01*
X203456702Y-136808271D01*
X203401014Y-136652632D01*
X203396242Y-136633582D01*
X203390681Y-136617514D01*
X203343438Y-136422778D01*
X203303211Y-136262182D01*
X203301217Y-136248740D01*
X203298661Y-136238204D01*
X203267342Y-136020379D01*
X203244150Y-135864027D01*
X203243779Y-135856495D01*
X203243115Y-135851870D01*
X203229117Y-135558019D01*
X203224400Y-135462000D01*
X203229114Y-135366037D01*
X203243115Y-135072129D01*
X203243780Y-135067503D01*
X203244150Y-135059973D01*
X203267338Y-134903651D01*
X203298661Y-134685795D01*
X203301217Y-134675256D01*
X203303211Y-134661818D01*
X203343430Y-134501252D01*
X203390681Y-134306485D01*
X203396243Y-134290414D01*
X203401014Y-134271368D01*
X203456692Y-134115757D01*
X203518339Y-133937641D01*
X203527966Y-133916559D01*
X203536616Y-133892386D01*
X203606066Y-133745544D01*
X203680478Y-133582607D01*
X203695147Y-133557198D01*
X203708712Y-133528519D01*
X203790179Y-133392599D01*
X203875635Y-133244585D01*
X203896229Y-133215664D01*
X203915644Y-133183273D01*
X204007280Y-133059716D01*
X204102038Y-132926648D01*
X204129329Y-132895151D01*
X204155420Y-132859973D01*
X204255327Y-132749742D01*
X204357640Y-132631667D01*
X204392284Y-132598633D01*
X204425731Y-132561731D01*
X204532010Y-132465404D01*
X204640110Y-132362332D01*
X204682607Y-132328911D01*
X204723973Y-132291420D01*
X204834821Y-132209208D01*
X204946926Y-132121049D01*
X204997611Y-132088475D01*
X205047273Y-132051644D01*
X205160854Y-131983566D01*
X205275273Y-131910034D01*
X205334345Y-131879579D01*
X205392519Y-131844712D01*
X205507067Y-131790534D01*
X205622187Y-131731186D01*
X205689673Y-131704168D01*
X205756386Y-131672616D01*
X205870305Y-131631854D01*
X205984544Y-131586121D01*
X206060248Y-131563892D01*
X206135368Y-131537014D01*
X206247130Y-131509018D01*
X206359048Y-131476157D01*
X206442645Y-131460044D01*
X206525818Y-131439211D01*
X206634002Y-131423163D01*
X206742302Y-131402290D01*
X206833282Y-131393602D01*
X206923973Y-131380150D01*
X207027365Y-131375070D01*
X207130845Y-131365190D01*
X207228496Y-131365190D01*
X207326000Y-131360400D01*
X207423504Y-131365190D01*
G37*
G36*
X115520634Y-124239813D02*
G01*
X115961884Y-124297905D01*
X116396391Y-124394233D01*
X116820850Y-124528064D01*
X117232029Y-124698380D01*
X117626800Y-124903885D01*
X118002158Y-125143014D01*
X118355245Y-125413948D01*
X118683376Y-125714624D01*
X118984052Y-126042755D01*
X119254986Y-126395842D01*
X119494115Y-126771200D01*
X119699620Y-127165971D01*
X119869936Y-127577150D01*
X120003767Y-128001609D01*
X120100095Y-128436116D01*
X120158187Y-128877366D01*
X120177600Y-129322000D01*
X120158187Y-129766634D01*
X120100095Y-130207884D01*
X120003767Y-130642391D01*
X119869936Y-131066850D01*
X119699620Y-131478029D01*
X119494115Y-131872800D01*
X119254986Y-132248158D01*
X118984052Y-132601245D01*
X118683376Y-132929376D01*
X118355245Y-133230052D01*
X118002158Y-133500986D01*
X117626800Y-133740115D01*
X117232029Y-133945620D01*
X116820850Y-134115936D01*
X116396391Y-134249767D01*
X115961884Y-134346095D01*
X115520634Y-134404187D01*
X115076000Y-134423600D01*
X114631366Y-134404187D01*
X114190116Y-134346095D01*
X113755609Y-134249767D01*
X113331150Y-134115936D01*
X112919971Y-133945620D01*
X112525200Y-133740115D01*
X112149842Y-133500986D01*
X111796755Y-133230052D01*
X111468624Y-132929376D01*
X111167948Y-132601245D01*
X110897014Y-132248158D01*
X110657885Y-131872800D01*
X110452380Y-131478029D01*
X110282064Y-131066850D01*
X110148233Y-130642391D01*
X110051905Y-130207884D01*
X109993813Y-129766634D01*
X109974400Y-129322000D01*
X109993813Y-128877366D01*
X110051905Y-128436116D01*
X110148233Y-128001609D01*
X110282064Y-127577150D01*
X110452380Y-127165971D01*
X110657885Y-126771200D01*
X110897014Y-126395842D01*
X111167948Y-126042755D01*
X111468624Y-125714624D01*
X111796755Y-125413948D01*
X112149842Y-125143014D01*
X112525200Y-124903885D01*
X112919971Y-124698380D01*
X113331150Y-124528064D01*
X113755609Y-124394233D01*
X114190116Y-124297905D01*
X114631366Y-124239813D01*
X115076000Y-124220400D01*
X115520634Y-124239813D01*
G37*
G36*
X197920634Y-124239813D02*
G01*
X198361884Y-124297905D01*
X198796391Y-124394233D01*
X199220850Y-124528064D01*
X199632029Y-124698380D01*
X200026800Y-124903885D01*
X200402158Y-125143014D01*
X200755245Y-125413948D01*
X201083376Y-125714624D01*
X201384052Y-126042755D01*
X201654986Y-126395842D01*
X201894115Y-126771200D01*
X202099620Y-127165971D01*
X202269936Y-127577150D01*
X202403767Y-128001609D01*
X202500095Y-128436116D01*
X202558187Y-128877366D01*
X202577600Y-129322000D01*
X202558187Y-129766634D01*
X202500095Y-130207884D01*
X202403767Y-130642391D01*
X202269936Y-131066850D01*
X202099620Y-131478029D01*
X201894115Y-131872800D01*
X201654986Y-132248158D01*
X201384052Y-132601245D01*
X201083376Y-132929376D01*
X200755245Y-133230052D01*
X200402158Y-133500986D01*
X200026800Y-133740115D01*
X199632029Y-133945620D01*
X199220850Y-134115936D01*
X198796391Y-134249767D01*
X198361884Y-134346095D01*
X197920634Y-134404187D01*
X197476000Y-134423600D01*
X197031366Y-134404187D01*
X196590116Y-134346095D01*
X196155609Y-134249767D01*
X195731150Y-134115936D01*
X195319971Y-133945620D01*
X194925200Y-133740115D01*
X194549842Y-133500986D01*
X194196755Y-133230052D01*
X193868624Y-132929376D01*
X193567948Y-132601245D01*
X193297014Y-132248158D01*
X193057885Y-131872800D01*
X192852380Y-131478029D01*
X192682064Y-131066850D01*
X192548233Y-130642391D01*
X192451905Y-130207884D01*
X192393813Y-129766634D01*
X192374400Y-129322000D01*
X192393813Y-128877366D01*
X192451905Y-128436116D01*
X192548233Y-128001609D01*
X192682064Y-127577150D01*
X192852380Y-127165971D01*
X193057885Y-126771200D01*
X193297014Y-126395842D01*
X193567948Y-126042755D01*
X193868624Y-125714624D01*
X194196755Y-125413948D01*
X194549842Y-125143014D01*
X194925200Y-124903885D01*
X195319971Y-124698380D01*
X195731150Y-124528064D01*
X196155609Y-124394233D01*
X196590116Y-124297905D01*
X197031366Y-124239813D01*
X197476000Y-124220400D01*
X197920634Y-124239813D01*
G37*
G36*
X126087744Y-118832012D02*
G01*
X126144415Y-118832012D01*
X126194269Y-118841331D01*
X126239951Y-118845328D01*
X126296025Y-118860353D01*
X126357554Y-118871855D01*
X126399286Y-118888021D01*
X126437711Y-118898318D01*
X126495875Y-118925440D01*
X126559743Y-118950183D01*
X126592711Y-118970596D01*
X126623257Y-118984840D01*
X126680882Y-119025189D01*
X126744096Y-119064330D01*
X126768323Y-119086416D01*
X126790962Y-119102268D01*
X126845120Y-119156426D01*
X126904335Y-119210408D01*
X126920475Y-119231781D01*
X126935730Y-119247036D01*
X126983306Y-119314982D01*
X127035005Y-119383442D01*
X127044268Y-119402045D01*
X127053160Y-119414744D01*
X127091023Y-119495941D01*
X127131655Y-119577541D01*
X127135694Y-119591739D01*
X127139681Y-119600288D01*
X127164807Y-119694062D01*
X127190993Y-119786094D01*
X127191799Y-119794794D01*
X127192671Y-119798048D01*
X127202305Y-119908169D01*
X127211000Y-120002000D01*
X127202302Y-120095856D01*
X127192671Y-120205951D01*
X127191799Y-120209203D01*
X127190993Y-120217906D01*
X127164803Y-120309953D01*
X127139681Y-120403711D01*
X127135695Y-120412257D01*
X127131655Y-120426459D01*
X127091015Y-120508074D01*
X127053159Y-120589257D01*
X127044269Y-120601952D01*
X127035005Y-120620558D01*
X126983301Y-120689023D01*
X126935731Y-120756962D01*
X126920479Y-120772213D01*
X126904335Y-120793592D01*
X126845109Y-120847583D01*
X126790962Y-120901731D01*
X126768328Y-120917579D01*
X126744096Y-120939670D01*
X126680870Y-120978817D01*
X126623257Y-121019159D01*
X126592718Y-121033399D01*
X126559743Y-121053817D01*
X126495863Y-121078564D01*
X126437711Y-121105681D01*
X126399294Y-121115974D01*
X126357554Y-121132145D01*
X126296013Y-121143649D01*
X126239951Y-121158671D01*
X126194279Y-121162666D01*
X126144415Y-121171988D01*
X126087733Y-121171988D01*
X126035999Y-121176514D01*
X125984265Y-121171988D01*
X125927585Y-121171988D01*
X125877721Y-121162666D01*
X125832048Y-121158671D01*
X125775983Y-121143648D01*
X125714446Y-121132145D01*
X125672707Y-121115975D01*
X125634288Y-121105681D01*
X125576130Y-121078561D01*
X125512257Y-121053817D01*
X125479284Y-121033401D01*
X125448742Y-121019159D01*
X125391121Y-120978812D01*
X125327904Y-120939670D01*
X125303675Y-120917582D01*
X125281037Y-120901731D01*
X125226879Y-120847573D01*
X125167665Y-120793592D01*
X125151524Y-120772218D01*
X125136268Y-120756962D01*
X125088684Y-120689005D01*
X125036995Y-120620558D01*
X125027733Y-120601957D01*
X125018840Y-120589257D01*
X124980969Y-120508042D01*
X124940345Y-120426459D01*
X124936305Y-120412263D01*
X124932318Y-120403711D01*
X124907179Y-120309893D01*
X124881007Y-120217906D01*
X124880201Y-120209209D01*
X124879328Y-120205951D01*
X124869678Y-120095654D01*
X124861000Y-120002000D01*
X124869677Y-119908353D01*
X124879328Y-119798048D01*
X124880201Y-119794788D01*
X124881007Y-119786094D01*
X124907174Y-119694122D01*
X124932318Y-119600288D01*
X124936306Y-119591734D01*
X124940345Y-119577541D01*
X124980961Y-119495972D01*
X125018839Y-119414744D01*
X125027733Y-119402040D01*
X125036995Y-119383442D01*
X125088679Y-119315000D01*
X125136269Y-119247036D01*
X125151527Y-119231777D01*
X125167665Y-119210408D01*
X125226867Y-119156437D01*
X125281036Y-119102269D01*
X125303678Y-119086414D01*
X125327904Y-119064330D01*
X125391113Y-119025192D01*
X125448744Y-118984839D01*
X125479291Y-118970594D01*
X125512257Y-118950183D01*
X125576117Y-118925443D01*
X125634288Y-118898318D01*
X125672716Y-118888021D01*
X125714446Y-118871855D01*
X125775971Y-118860353D01*
X125832048Y-118845328D01*
X125877731Y-118841331D01*
X125927585Y-118832012D01*
X125984254Y-118832012D01*
X126035999Y-118827485D01*
X126087744Y-118832012D01*
G37*
G36*
X131167745Y-118832012D02*
G01*
X131224415Y-118832012D01*
X131274269Y-118841331D01*
X131319951Y-118845328D01*
X131376025Y-118860353D01*
X131437554Y-118871855D01*
X131479286Y-118888021D01*
X131517711Y-118898318D01*
X131575875Y-118925440D01*
X131639743Y-118950183D01*
X131672711Y-118970596D01*
X131703257Y-118984840D01*
X131760882Y-119025189D01*
X131824096Y-119064330D01*
X131848323Y-119086416D01*
X131870962Y-119102268D01*
X131925120Y-119156426D01*
X131984335Y-119210408D01*
X132000475Y-119231781D01*
X132015730Y-119247036D01*
X132063306Y-119314982D01*
X132115005Y-119383442D01*
X132124268Y-119402045D01*
X132133160Y-119414744D01*
X132171023Y-119495941D01*
X132211655Y-119577541D01*
X132215694Y-119591739D01*
X132219681Y-119600288D01*
X132244807Y-119694062D01*
X132270993Y-119786094D01*
X132271799Y-119794794D01*
X132272671Y-119798048D01*
X132282304Y-119908160D01*
X132291000Y-120002000D01*
X132282303Y-120095847D01*
X132272671Y-120205951D01*
X132271799Y-120209203D01*
X132270993Y-120217906D01*
X132244803Y-120309953D01*
X132219681Y-120403711D01*
X132215695Y-120412257D01*
X132211655Y-120426459D01*
X132171015Y-120508074D01*
X132133159Y-120589257D01*
X132124269Y-120601952D01*
X132115005Y-120620558D01*
X132063301Y-120689023D01*
X132015731Y-120756962D01*
X132000479Y-120772213D01*
X131984335Y-120793592D01*
X131925109Y-120847583D01*
X131870962Y-120901731D01*
X131848328Y-120917579D01*
X131824096Y-120939670D01*
X131760870Y-120978817D01*
X131703257Y-121019159D01*
X131672718Y-121033399D01*
X131639743Y-121053817D01*
X131575863Y-121078564D01*
X131517711Y-121105681D01*
X131479294Y-121115974D01*
X131437554Y-121132145D01*
X131376013Y-121143649D01*
X131319951Y-121158671D01*
X131274279Y-121162666D01*
X131224415Y-121171988D01*
X131167734Y-121171988D01*
X131116000Y-121176514D01*
X131064266Y-121171988D01*
X131007585Y-121171988D01*
X130957721Y-121162666D01*
X130912048Y-121158671D01*
X130855983Y-121143648D01*
X130794446Y-121132145D01*
X130752707Y-121115975D01*
X130714288Y-121105681D01*
X130656130Y-121078561D01*
X130592257Y-121053817D01*
X130559284Y-121033401D01*
X130528742Y-121019159D01*
X130471121Y-120978812D01*
X130407904Y-120939670D01*
X130383675Y-120917582D01*
X130361037Y-120901731D01*
X130306879Y-120847573D01*
X130247665Y-120793592D01*
X130231524Y-120772218D01*
X130216268Y-120756962D01*
X130168684Y-120689005D01*
X130116995Y-120620558D01*
X130107733Y-120601957D01*
X130098840Y-120589257D01*
X130060969Y-120508042D01*
X130020345Y-120426459D01*
X130016305Y-120412263D01*
X130012318Y-120403711D01*
X129987179Y-120309893D01*
X129961007Y-120217906D01*
X129960201Y-120209209D01*
X129959328Y-120205951D01*
X129949679Y-120095663D01*
X129941000Y-120002000D01*
X129949676Y-119908362D01*
X129959328Y-119798048D01*
X129960201Y-119794788D01*
X129961007Y-119786094D01*
X129987174Y-119694122D01*
X130012318Y-119600288D01*
X130016306Y-119591734D01*
X130020345Y-119577541D01*
X130060961Y-119495972D01*
X130098839Y-119414744D01*
X130107733Y-119402040D01*
X130116995Y-119383442D01*
X130168679Y-119315000D01*
X130216269Y-119247036D01*
X130231527Y-119231777D01*
X130247665Y-119210408D01*
X130306867Y-119156437D01*
X130361036Y-119102269D01*
X130383678Y-119086414D01*
X130407904Y-119064330D01*
X130471113Y-119025192D01*
X130528744Y-118984839D01*
X130559291Y-118970594D01*
X130592257Y-118950183D01*
X130656117Y-118925443D01*
X130714288Y-118898318D01*
X130752716Y-118888021D01*
X130794446Y-118871855D01*
X130855971Y-118860353D01*
X130912048Y-118845328D01*
X130957731Y-118841331D01*
X131007585Y-118832012D01*
X131064255Y-118832012D01*
X131116000Y-118827485D01*
X131167745Y-118832012D01*
G37*
G36*
X128870188Y-116428037D02*
G01*
X129055169Y-116499699D01*
X129223832Y-116604131D01*
X129370435Y-116737777D01*
X129489983Y-116896085D01*
X129578408Y-117073665D01*
X129632696Y-117264469D01*
X129651000Y-117462000D01*
X129632696Y-117659531D01*
X129578408Y-117850335D01*
X129489983Y-118027915D01*
X129370435Y-118186223D01*
X129223832Y-118319869D01*
X129055169Y-118424301D01*
X128870188Y-118495963D01*
X128675188Y-118532414D01*
X128476812Y-118532414D01*
X128281812Y-118495963D01*
X128096831Y-118424301D01*
X127928168Y-118319869D01*
X127781565Y-118186223D01*
X127662017Y-118027915D01*
X127573592Y-117850335D01*
X127519304Y-117659531D01*
X127501000Y-117462000D01*
X127519304Y-117264469D01*
X127573592Y-117073665D01*
X127662017Y-116896085D01*
X127781565Y-116737777D01*
X127928168Y-116604131D01*
X128096831Y-116499699D01*
X128281812Y-116428037D01*
X128476812Y-116391586D01*
X128675188Y-116391586D01*
X128870188Y-116428037D01*
G37*
G36*
X126087744Y-113752012D02*
G01*
X126144415Y-113752012D01*
X126194269Y-113761331D01*
X126239951Y-113765328D01*
X126296025Y-113780353D01*
X126357554Y-113791855D01*
X126399286Y-113808021D01*
X126437711Y-113818318D01*
X126495875Y-113845440D01*
X126559743Y-113870183D01*
X126592711Y-113890596D01*
X126623257Y-113904840D01*
X126680882Y-113945189D01*
X126744096Y-113984330D01*
X126768323Y-114006416D01*
X126790962Y-114022268D01*
X126845120Y-114076426D01*
X126904335Y-114130408D01*
X126920475Y-114151781D01*
X126935730Y-114167036D01*
X126983306Y-114234982D01*
X127035005Y-114303442D01*
X127044268Y-114322045D01*
X127053160Y-114334744D01*
X127091023Y-114415941D01*
X127131655Y-114497541D01*
X127135694Y-114511739D01*
X127139681Y-114520288D01*
X127164807Y-114614062D01*
X127190993Y-114706094D01*
X127191799Y-114714794D01*
X127192671Y-114718048D01*
X127202305Y-114828169D01*
X127211000Y-114922000D01*
X127202302Y-115015856D01*
X127192671Y-115125951D01*
X127191799Y-115129203D01*
X127190993Y-115137906D01*
X127164803Y-115229953D01*
X127139681Y-115323711D01*
X127135695Y-115332257D01*
X127131655Y-115346459D01*
X127091015Y-115428074D01*
X127053159Y-115509257D01*
X127044269Y-115521952D01*
X127035005Y-115540558D01*
X126983301Y-115609023D01*
X126935731Y-115676962D01*
X126920479Y-115692213D01*
X126904335Y-115713592D01*
X126845109Y-115767583D01*
X126790962Y-115821731D01*
X126768328Y-115837579D01*
X126744096Y-115859670D01*
X126680870Y-115898817D01*
X126623257Y-115939159D01*
X126592718Y-115953399D01*
X126559743Y-115973817D01*
X126495863Y-115998564D01*
X126437711Y-116025681D01*
X126399294Y-116035974D01*
X126357554Y-116052145D01*
X126296013Y-116063649D01*
X126239951Y-116078671D01*
X126194279Y-116082666D01*
X126144415Y-116091988D01*
X126087733Y-116091988D01*
X126035999Y-116096514D01*
X125984265Y-116091988D01*
X125927585Y-116091988D01*
X125877721Y-116082666D01*
X125832048Y-116078671D01*
X125775983Y-116063648D01*
X125714446Y-116052145D01*
X125672707Y-116035975D01*
X125634288Y-116025681D01*
X125576130Y-115998561D01*
X125512257Y-115973817D01*
X125479284Y-115953401D01*
X125448742Y-115939159D01*
X125391121Y-115898812D01*
X125327904Y-115859670D01*
X125303675Y-115837582D01*
X125281037Y-115821731D01*
X125226879Y-115767573D01*
X125167665Y-115713592D01*
X125151524Y-115692218D01*
X125136268Y-115676962D01*
X125088684Y-115609005D01*
X125036995Y-115540558D01*
X125027733Y-115521957D01*
X125018840Y-115509257D01*
X124980969Y-115428042D01*
X124940345Y-115346459D01*
X124936305Y-115332263D01*
X124932318Y-115323711D01*
X124907179Y-115229893D01*
X124881007Y-115137906D01*
X124880201Y-115129209D01*
X124879328Y-115125951D01*
X124869679Y-115015663D01*
X124861000Y-114922000D01*
X124869676Y-114828362D01*
X124879328Y-114718048D01*
X124880201Y-114714788D01*
X124881007Y-114706094D01*
X124907174Y-114614122D01*
X124932318Y-114520288D01*
X124936306Y-114511734D01*
X124940345Y-114497541D01*
X124980961Y-114415972D01*
X125018839Y-114334744D01*
X125027733Y-114322040D01*
X125036995Y-114303442D01*
X125088679Y-114235000D01*
X125136269Y-114167036D01*
X125151527Y-114151777D01*
X125167665Y-114130408D01*
X125226867Y-114076437D01*
X125281036Y-114022269D01*
X125303678Y-114006414D01*
X125327904Y-113984330D01*
X125391113Y-113945192D01*
X125448744Y-113904839D01*
X125479291Y-113890594D01*
X125512257Y-113870183D01*
X125576117Y-113845443D01*
X125634288Y-113818318D01*
X125672716Y-113808021D01*
X125714446Y-113791855D01*
X125775971Y-113780353D01*
X125832048Y-113765328D01*
X125877731Y-113761331D01*
X125927585Y-113752012D01*
X125984254Y-113752012D01*
X126035999Y-113747485D01*
X126087744Y-113752012D01*
G37*
G36*
X131167745Y-113752012D02*
G01*
X131224415Y-113752012D01*
X131274269Y-113761331D01*
X131319951Y-113765328D01*
X131376025Y-113780353D01*
X131437554Y-113791855D01*
X131479286Y-113808021D01*
X131517711Y-113818318D01*
X131575875Y-113845440D01*
X131639743Y-113870183D01*
X131672711Y-113890596D01*
X131703257Y-113904840D01*
X131760882Y-113945189D01*
X131824096Y-113984330D01*
X131848323Y-114006416D01*
X131870962Y-114022268D01*
X131925120Y-114076426D01*
X131984335Y-114130408D01*
X132000475Y-114151781D01*
X132015730Y-114167036D01*
X132063306Y-114234982D01*
X132115005Y-114303442D01*
X132124268Y-114322045D01*
X132133160Y-114334744D01*
X132171023Y-114415941D01*
X132211655Y-114497541D01*
X132215694Y-114511739D01*
X132219681Y-114520288D01*
X132244807Y-114614062D01*
X132270993Y-114706094D01*
X132271799Y-114714794D01*
X132272671Y-114718048D01*
X132282305Y-114828169D01*
X132291000Y-114922000D01*
X132282302Y-115015856D01*
X132272671Y-115125951D01*
X132271799Y-115129203D01*
X132270993Y-115137906D01*
X132244803Y-115229953D01*
X132219681Y-115323711D01*
X132215695Y-115332257D01*
X132211655Y-115346459D01*
X132171015Y-115428074D01*
X132133159Y-115509257D01*
X132124269Y-115521952D01*
X132115005Y-115540558D01*
X132063301Y-115609023D01*
X132015731Y-115676962D01*
X132000479Y-115692213D01*
X131984335Y-115713592D01*
X131925109Y-115767583D01*
X131870962Y-115821731D01*
X131848328Y-115837579D01*
X131824096Y-115859670D01*
X131760870Y-115898817D01*
X131703257Y-115939159D01*
X131672718Y-115953399D01*
X131639743Y-115973817D01*
X131575863Y-115998564D01*
X131517711Y-116025681D01*
X131479294Y-116035974D01*
X131437554Y-116052145D01*
X131376013Y-116063649D01*
X131319951Y-116078671D01*
X131274279Y-116082666D01*
X131224415Y-116091988D01*
X131167734Y-116091988D01*
X131116000Y-116096514D01*
X131064266Y-116091988D01*
X131007585Y-116091988D01*
X130957721Y-116082666D01*
X130912048Y-116078671D01*
X130855983Y-116063648D01*
X130794446Y-116052145D01*
X130752707Y-116035975D01*
X130714288Y-116025681D01*
X130656130Y-115998561D01*
X130592257Y-115973817D01*
X130559284Y-115953401D01*
X130528742Y-115939159D01*
X130471121Y-115898812D01*
X130407904Y-115859670D01*
X130383675Y-115837582D01*
X130361037Y-115821731D01*
X130306879Y-115767573D01*
X130247665Y-115713592D01*
X130231524Y-115692218D01*
X130216268Y-115676962D01*
X130168684Y-115609005D01*
X130116995Y-115540558D01*
X130107733Y-115521957D01*
X130098840Y-115509257D01*
X130060969Y-115428042D01*
X130020345Y-115346459D01*
X130016305Y-115332263D01*
X130012318Y-115323711D01*
X129987179Y-115229893D01*
X129961007Y-115137906D01*
X129960201Y-115129209D01*
X129959328Y-115125951D01*
X129949679Y-115015663D01*
X129941000Y-114922000D01*
X129949676Y-114828362D01*
X129959328Y-114718048D01*
X129960201Y-114714788D01*
X129961007Y-114706094D01*
X129987174Y-114614122D01*
X130012318Y-114520288D01*
X130016306Y-114511734D01*
X130020345Y-114497541D01*
X130060961Y-114415972D01*
X130098839Y-114334744D01*
X130107733Y-114322040D01*
X130116995Y-114303442D01*
X130168679Y-114235000D01*
X130216269Y-114167036D01*
X130231527Y-114151777D01*
X130247665Y-114130408D01*
X130306867Y-114076437D01*
X130361036Y-114022269D01*
X130383678Y-114006414D01*
X130407904Y-113984330D01*
X130471113Y-113945192D01*
X130528744Y-113904839D01*
X130559291Y-113890594D01*
X130592257Y-113870183D01*
X130656117Y-113845443D01*
X130714288Y-113818318D01*
X130752716Y-113808021D01*
X130794446Y-113791855D01*
X130855971Y-113780353D01*
X130912048Y-113765328D01*
X130957731Y-113761331D01*
X131007585Y-113752012D01*
X131064255Y-113752012D01*
X131116000Y-113747485D01*
X131167745Y-113752012D01*
G37*
G36*
X115520634Y-105179813D02*
G01*
X115961884Y-105237905D01*
X116396391Y-105334233D01*
X116820850Y-105468064D01*
X117232029Y-105638380D01*
X117626800Y-105843885D01*
X118002158Y-106083014D01*
X118355245Y-106353948D01*
X118683376Y-106654624D01*
X118984052Y-106982755D01*
X119254986Y-107335842D01*
X119494115Y-107711200D01*
X119699620Y-108105971D01*
X119869936Y-108517150D01*
X120003767Y-108941609D01*
X120100095Y-109376116D01*
X120158187Y-109817366D01*
X120177600Y-110262000D01*
X120158187Y-110706634D01*
X120100095Y-111147884D01*
X120003767Y-111582391D01*
X119869936Y-112006850D01*
X119699620Y-112418029D01*
X119494115Y-112812800D01*
X119254986Y-113188158D01*
X118984052Y-113541245D01*
X118683376Y-113869376D01*
X118355245Y-114170052D01*
X118002158Y-114440986D01*
X117626800Y-114680115D01*
X117232029Y-114885620D01*
X116820850Y-115055936D01*
X116396391Y-115189767D01*
X115961884Y-115286095D01*
X115520634Y-115344187D01*
X115076000Y-115363600D01*
X114631366Y-115344187D01*
X114190116Y-115286095D01*
X113755609Y-115189767D01*
X113331150Y-115055936D01*
X112919971Y-114885620D01*
X112525200Y-114680115D01*
X112149842Y-114440986D01*
X111796755Y-114170052D01*
X111468624Y-113869376D01*
X111167948Y-113541245D01*
X110897014Y-113188158D01*
X110657885Y-112812800D01*
X110452380Y-112418029D01*
X110282064Y-112006850D01*
X110148233Y-111582391D01*
X110051905Y-111147884D01*
X109993813Y-110706634D01*
X109974400Y-110262000D01*
X109993813Y-109817366D01*
X110051905Y-109376116D01*
X110148233Y-108941609D01*
X110282064Y-108517150D01*
X110452380Y-108105971D01*
X110657885Y-107711200D01*
X110897014Y-107335842D01*
X111167948Y-106982755D01*
X111468624Y-106654624D01*
X111796755Y-106353948D01*
X112149842Y-106083014D01*
X112525200Y-105843885D01*
X112919971Y-105638380D01*
X113331150Y-105468064D01*
X113755609Y-105334233D01*
X114190116Y-105237905D01*
X114631366Y-105179813D01*
X115076000Y-105160400D01*
X115520634Y-105179813D01*
G37*
G36*
X197920634Y-105179813D02*
G01*
X198361884Y-105237905D01*
X198796391Y-105334233D01*
X199220850Y-105468064D01*
X199632029Y-105638380D01*
X200026800Y-105843885D01*
X200402158Y-106083014D01*
X200755245Y-106353948D01*
X201083376Y-106654624D01*
X201384052Y-106982755D01*
X201654986Y-107335842D01*
X201894115Y-107711200D01*
X202099620Y-108105971D01*
X202269936Y-108517150D01*
X202403767Y-108941609D01*
X202500095Y-109376116D01*
X202558187Y-109817366D01*
X202577600Y-110262000D01*
X202558187Y-110706634D01*
X202500095Y-111147884D01*
X202403767Y-111582391D01*
X202269936Y-112006850D01*
X202099620Y-112418029D01*
X201894115Y-112812800D01*
X201654986Y-113188158D01*
X201384052Y-113541245D01*
X201083376Y-113869376D01*
X200755245Y-114170052D01*
X200402158Y-114440986D01*
X200026800Y-114680115D01*
X199632029Y-114885620D01*
X199220850Y-115055936D01*
X198796391Y-115189767D01*
X198361884Y-115286095D01*
X197920634Y-115344187D01*
X197476000Y-115363600D01*
X197031366Y-115344187D01*
X196590116Y-115286095D01*
X196155609Y-115189767D01*
X195731150Y-115055936D01*
X195319971Y-114885620D01*
X194925200Y-114680115D01*
X194549842Y-114440986D01*
X194196755Y-114170052D01*
X193868624Y-113869376D01*
X193567948Y-113541245D01*
X193297014Y-113188158D01*
X193057885Y-112812800D01*
X192852380Y-112418029D01*
X192682064Y-112006850D01*
X192548233Y-111582391D01*
X192451905Y-111147884D01*
X192393813Y-110706634D01*
X192374400Y-110262000D01*
X192393813Y-109817366D01*
X192451905Y-109376116D01*
X192548233Y-108941609D01*
X192682064Y-108517150D01*
X192852380Y-108105971D01*
X193057885Y-107711200D01*
X193297014Y-107335842D01*
X193567948Y-106982755D01*
X193868624Y-106654624D01*
X194196755Y-106353948D01*
X194549842Y-106083014D01*
X194925200Y-105843885D01*
X195319971Y-105638380D01*
X195731150Y-105468064D01*
X196155609Y-105334233D01*
X196590116Y-105237905D01*
X197031366Y-105179813D01*
X197476000Y-105160400D01*
X197920634Y-105179813D01*
G37*
G36*
X126087745Y-104375512D02*
G01*
X126144415Y-104375512D01*
X126194269Y-104384831D01*
X126239951Y-104388828D01*
X126296025Y-104403853D01*
X126357554Y-104415355D01*
X126399286Y-104431521D01*
X126437711Y-104441818D01*
X126495875Y-104468940D01*
X126559743Y-104493683D01*
X126592711Y-104514096D01*
X126623257Y-104528340D01*
X126680882Y-104568689D01*
X126744096Y-104607830D01*
X126768323Y-104629916D01*
X126790962Y-104645768D01*
X126845120Y-104699926D01*
X126904335Y-104753908D01*
X126920475Y-104775281D01*
X126935730Y-104790536D01*
X126983306Y-104858482D01*
X127035005Y-104926942D01*
X127044268Y-104945545D01*
X127053160Y-104958244D01*
X127091023Y-105039441D01*
X127131655Y-105121041D01*
X127135694Y-105135239D01*
X127139681Y-105143788D01*
X127164807Y-105237562D01*
X127190993Y-105329594D01*
X127191799Y-105338294D01*
X127192671Y-105341548D01*
X127202305Y-105451669D01*
X127211000Y-105545500D01*
X127202302Y-105639356D01*
X127192671Y-105749451D01*
X127191799Y-105752703D01*
X127190993Y-105761406D01*
X127164803Y-105853453D01*
X127139681Y-105947211D01*
X127135695Y-105955757D01*
X127131655Y-105969959D01*
X127091015Y-106051574D01*
X127053159Y-106132757D01*
X127044269Y-106145452D01*
X127035005Y-106164058D01*
X126983301Y-106232523D01*
X126935731Y-106300462D01*
X126920479Y-106315713D01*
X126904335Y-106337092D01*
X126845109Y-106391083D01*
X126790962Y-106445231D01*
X126768328Y-106461079D01*
X126744096Y-106483170D01*
X126680870Y-106522317D01*
X126623257Y-106562659D01*
X126592718Y-106576899D01*
X126559743Y-106597317D01*
X126495863Y-106622064D01*
X126437711Y-106649181D01*
X126399294Y-106659474D01*
X126357554Y-106675645D01*
X126296013Y-106687149D01*
X126239951Y-106702171D01*
X126194279Y-106706166D01*
X126144415Y-106715488D01*
X126087734Y-106715488D01*
X126036000Y-106720014D01*
X125984266Y-106715488D01*
X125927585Y-106715488D01*
X125877721Y-106706166D01*
X125832048Y-106702171D01*
X125775983Y-106687148D01*
X125714446Y-106675645D01*
X125672707Y-106659475D01*
X125634288Y-106649181D01*
X125576130Y-106622061D01*
X125512257Y-106597317D01*
X125479284Y-106576901D01*
X125448742Y-106562659D01*
X125391121Y-106522312D01*
X125327904Y-106483170D01*
X125303675Y-106461082D01*
X125281037Y-106445231D01*
X125226879Y-106391073D01*
X125167665Y-106337092D01*
X125151524Y-106315718D01*
X125136268Y-106300462D01*
X125088684Y-106232505D01*
X125036995Y-106164058D01*
X125027733Y-106145457D01*
X125018840Y-106132757D01*
X124980969Y-106051542D01*
X124940345Y-105969959D01*
X124936305Y-105955763D01*
X124932318Y-105947211D01*
X124907179Y-105853393D01*
X124881007Y-105761406D01*
X124880201Y-105752709D01*
X124879328Y-105749451D01*
X124869679Y-105639163D01*
X124861000Y-105545500D01*
X124869676Y-105451862D01*
X124879328Y-105341548D01*
X124880201Y-105338288D01*
X124881007Y-105329594D01*
X124907174Y-105237622D01*
X124932318Y-105143788D01*
X124936306Y-105135234D01*
X124940345Y-105121041D01*
X124980961Y-105039472D01*
X125018839Y-104958244D01*
X125027733Y-104945540D01*
X125036995Y-104926942D01*
X125088679Y-104858500D01*
X125136269Y-104790536D01*
X125151527Y-104775277D01*
X125167665Y-104753908D01*
X125226867Y-104699937D01*
X125281036Y-104645769D01*
X125303678Y-104629914D01*
X125327904Y-104607830D01*
X125391113Y-104568692D01*
X125448744Y-104528339D01*
X125479291Y-104514094D01*
X125512257Y-104493683D01*
X125576117Y-104468943D01*
X125634288Y-104441818D01*
X125672716Y-104431521D01*
X125714446Y-104415355D01*
X125775971Y-104403853D01*
X125832048Y-104388828D01*
X125877731Y-104384831D01*
X125927585Y-104375512D01*
X125984255Y-104375512D01*
X126036000Y-104370985D01*
X126087745Y-104375512D01*
G37*
G36*
X131167744Y-104375512D02*
G01*
X131224415Y-104375512D01*
X131274269Y-104384831D01*
X131319951Y-104388828D01*
X131376025Y-104403853D01*
X131437554Y-104415355D01*
X131479286Y-104431521D01*
X131517711Y-104441818D01*
X131575875Y-104468940D01*
X131639743Y-104493683D01*
X131672711Y-104514096D01*
X131703257Y-104528340D01*
X131760882Y-104568689D01*
X131824096Y-104607830D01*
X131848323Y-104629916D01*
X131870962Y-104645768D01*
X131925120Y-104699926D01*
X131984335Y-104753908D01*
X132000475Y-104775281D01*
X132015730Y-104790536D01*
X132063306Y-104858482D01*
X132115005Y-104926942D01*
X132124268Y-104945545D01*
X132133160Y-104958244D01*
X132171023Y-105039441D01*
X132211655Y-105121041D01*
X132215694Y-105135239D01*
X132219681Y-105143788D01*
X132244807Y-105237562D01*
X132270993Y-105329594D01*
X132271799Y-105338294D01*
X132272671Y-105341548D01*
X132282305Y-105451669D01*
X132291000Y-105545500D01*
X132282302Y-105639356D01*
X132272671Y-105749451D01*
X132271799Y-105752703D01*
X132270993Y-105761406D01*
X132244803Y-105853453D01*
X132219681Y-105947211D01*
X132215695Y-105955757D01*
X132211655Y-105969959D01*
X132171015Y-106051574D01*
X132133159Y-106132757D01*
X132124269Y-106145452D01*
X132115005Y-106164058D01*
X132063301Y-106232523D01*
X132015731Y-106300462D01*
X132000479Y-106315713D01*
X131984335Y-106337092D01*
X131925109Y-106391083D01*
X131870962Y-106445231D01*
X131848328Y-106461079D01*
X131824096Y-106483170D01*
X131760870Y-106522317D01*
X131703257Y-106562659D01*
X131672718Y-106576899D01*
X131639743Y-106597317D01*
X131575863Y-106622064D01*
X131517711Y-106649181D01*
X131479294Y-106659474D01*
X131437554Y-106675645D01*
X131376013Y-106687149D01*
X131319951Y-106702171D01*
X131274279Y-106706166D01*
X131224415Y-106715488D01*
X131167733Y-106715488D01*
X131115999Y-106720014D01*
X131064265Y-106715488D01*
X131007585Y-106715488D01*
X130957721Y-106706166D01*
X130912048Y-106702171D01*
X130855983Y-106687148D01*
X130794446Y-106675645D01*
X130752707Y-106659475D01*
X130714288Y-106649181D01*
X130656130Y-106622061D01*
X130592257Y-106597317D01*
X130559284Y-106576901D01*
X130528742Y-106562659D01*
X130471121Y-106522312D01*
X130407904Y-106483170D01*
X130383675Y-106461082D01*
X130361037Y-106445231D01*
X130306879Y-106391073D01*
X130247665Y-106337092D01*
X130231524Y-106315718D01*
X130216268Y-106300462D01*
X130168684Y-106232505D01*
X130116995Y-106164058D01*
X130107733Y-106145457D01*
X130098840Y-106132757D01*
X130060969Y-106051542D01*
X130020345Y-105969959D01*
X130016305Y-105955763D01*
X130012318Y-105947211D01*
X129987179Y-105853393D01*
X129961007Y-105761406D01*
X129960201Y-105752709D01*
X129959328Y-105749451D01*
X129949679Y-105639163D01*
X129941000Y-105545500D01*
X129949676Y-105451862D01*
X129959328Y-105341548D01*
X129960201Y-105338288D01*
X129961007Y-105329594D01*
X129987174Y-105237622D01*
X130012318Y-105143788D01*
X130016306Y-105135234D01*
X130020345Y-105121041D01*
X130060961Y-105039472D01*
X130098839Y-104958244D01*
X130107733Y-104945540D01*
X130116995Y-104926942D01*
X130168679Y-104858500D01*
X130216269Y-104790536D01*
X130231527Y-104775277D01*
X130247665Y-104753908D01*
X130306867Y-104699937D01*
X130361036Y-104645769D01*
X130383678Y-104629914D01*
X130407904Y-104607830D01*
X130471113Y-104568692D01*
X130528744Y-104528339D01*
X130559291Y-104514094D01*
X130592257Y-104493683D01*
X130656117Y-104468943D01*
X130714288Y-104441818D01*
X130752716Y-104431521D01*
X130794446Y-104415355D01*
X130855971Y-104403853D01*
X130912048Y-104388828D01*
X130957731Y-104384831D01*
X131007585Y-104375512D01*
X131064254Y-104375512D01*
X131115999Y-104370985D01*
X131167744Y-104375512D01*
G37*
G36*
X128870188Y-101971537D02*
G01*
X129055169Y-102043199D01*
X129223832Y-102147631D01*
X129370435Y-102281277D01*
X129489983Y-102439585D01*
X129578408Y-102617165D01*
X129632696Y-102807969D01*
X129651000Y-103005500D01*
X129632696Y-103203031D01*
X129578408Y-103393835D01*
X129489983Y-103571415D01*
X129370435Y-103729723D01*
X129223832Y-103863369D01*
X129055169Y-103967801D01*
X128870188Y-104039463D01*
X128675188Y-104075914D01*
X128476812Y-104075914D01*
X128281812Y-104039463D01*
X128096831Y-103967801D01*
X127928168Y-103863369D01*
X127781565Y-103729723D01*
X127662017Y-103571415D01*
X127573592Y-103393835D01*
X127519304Y-103203031D01*
X127501000Y-103005500D01*
X127519304Y-102807969D01*
X127573592Y-102617165D01*
X127662017Y-102439585D01*
X127781565Y-102281277D01*
X127928168Y-102147631D01*
X128096831Y-102043199D01*
X128281812Y-101971537D01*
X128476812Y-101935086D01*
X128675188Y-101935086D01*
X128870188Y-101971537D01*
G37*
G36*
X126087745Y-99295512D02*
G01*
X126144415Y-99295512D01*
X126194269Y-99304831D01*
X126239951Y-99308828D01*
X126296025Y-99323853D01*
X126357554Y-99335355D01*
X126399286Y-99351521D01*
X126437711Y-99361818D01*
X126495875Y-99388940D01*
X126559743Y-99413683D01*
X126592711Y-99434096D01*
X126623257Y-99448340D01*
X126680882Y-99488689D01*
X126744096Y-99527830D01*
X126768323Y-99549916D01*
X126790962Y-99565768D01*
X126845120Y-99619926D01*
X126904335Y-99673908D01*
X126920475Y-99695281D01*
X126935730Y-99710536D01*
X126983306Y-99778482D01*
X127035005Y-99846942D01*
X127044268Y-99865545D01*
X127053160Y-99878244D01*
X127091023Y-99959441D01*
X127131655Y-100041041D01*
X127135694Y-100055239D01*
X127139681Y-100063788D01*
X127164807Y-100157562D01*
X127190993Y-100249594D01*
X127191799Y-100258294D01*
X127192671Y-100261548D01*
X127202305Y-100371669D01*
X127211000Y-100465500D01*
X127202302Y-100559356D01*
X127192671Y-100669451D01*
X127191799Y-100672703D01*
X127190993Y-100681406D01*
X127164803Y-100773453D01*
X127139681Y-100867211D01*
X127135695Y-100875757D01*
X127131655Y-100889959D01*
X127091015Y-100971574D01*
X127053159Y-101052757D01*
X127044269Y-101065452D01*
X127035005Y-101084058D01*
X126983301Y-101152523D01*
X126935731Y-101220462D01*
X126920479Y-101235713D01*
X126904335Y-101257092D01*
X126845109Y-101311083D01*
X126790962Y-101365231D01*
X126768328Y-101381079D01*
X126744096Y-101403170D01*
X126680870Y-101442317D01*
X126623257Y-101482659D01*
X126592718Y-101496899D01*
X126559743Y-101517317D01*
X126495863Y-101542064D01*
X126437711Y-101569181D01*
X126399294Y-101579474D01*
X126357554Y-101595645D01*
X126296013Y-101607149D01*
X126239951Y-101622171D01*
X126194279Y-101626166D01*
X126144415Y-101635488D01*
X126087733Y-101635488D01*
X126035999Y-101640014D01*
X125984265Y-101635488D01*
X125927585Y-101635488D01*
X125877721Y-101626166D01*
X125832048Y-101622171D01*
X125775983Y-101607148D01*
X125714446Y-101595645D01*
X125672707Y-101579475D01*
X125634288Y-101569181D01*
X125576130Y-101542061D01*
X125512257Y-101517317D01*
X125479284Y-101496901D01*
X125448742Y-101482659D01*
X125391121Y-101442312D01*
X125327904Y-101403170D01*
X125303675Y-101381082D01*
X125281037Y-101365231D01*
X125226879Y-101311073D01*
X125167665Y-101257092D01*
X125151524Y-101235718D01*
X125136268Y-101220462D01*
X125088684Y-101152505D01*
X125036995Y-101084058D01*
X125027733Y-101065457D01*
X125018840Y-101052757D01*
X124980969Y-100971542D01*
X124940345Y-100889959D01*
X124936305Y-100875763D01*
X124932318Y-100867211D01*
X124907179Y-100773393D01*
X124881007Y-100681406D01*
X124880201Y-100672709D01*
X124879328Y-100669451D01*
X124869679Y-100559163D01*
X124861000Y-100465500D01*
X124869676Y-100371862D01*
X124879328Y-100261548D01*
X124880201Y-100258288D01*
X124881007Y-100249594D01*
X124907174Y-100157622D01*
X124932318Y-100063788D01*
X124936306Y-100055234D01*
X124940345Y-100041041D01*
X124980961Y-99959472D01*
X125018839Y-99878244D01*
X125027733Y-99865540D01*
X125036995Y-99846942D01*
X125088679Y-99778500D01*
X125136269Y-99710536D01*
X125151527Y-99695277D01*
X125167665Y-99673908D01*
X125226867Y-99619937D01*
X125281036Y-99565769D01*
X125303678Y-99549914D01*
X125327904Y-99527830D01*
X125391113Y-99488692D01*
X125448744Y-99448339D01*
X125479291Y-99434094D01*
X125512257Y-99413683D01*
X125576117Y-99388943D01*
X125634288Y-99361818D01*
X125672716Y-99351521D01*
X125714446Y-99335355D01*
X125775971Y-99323853D01*
X125832048Y-99308828D01*
X125877731Y-99304831D01*
X125927585Y-99295512D01*
X125984255Y-99295512D01*
X126036000Y-99290985D01*
X126087745Y-99295512D01*
G37*
G36*
X131167745Y-99295512D02*
G01*
X131224415Y-99295512D01*
X131274269Y-99304831D01*
X131319951Y-99308828D01*
X131376025Y-99323853D01*
X131437554Y-99335355D01*
X131479286Y-99351521D01*
X131517711Y-99361818D01*
X131575875Y-99388940D01*
X131639743Y-99413683D01*
X131672711Y-99434096D01*
X131703257Y-99448340D01*
X131760882Y-99488689D01*
X131824096Y-99527830D01*
X131848323Y-99549916D01*
X131870962Y-99565768D01*
X131925120Y-99619926D01*
X131984335Y-99673908D01*
X132000475Y-99695281D01*
X132015730Y-99710536D01*
X132063306Y-99778482D01*
X132115005Y-99846942D01*
X132124268Y-99865545D01*
X132133160Y-99878244D01*
X132171023Y-99959441D01*
X132211655Y-100041041D01*
X132215694Y-100055239D01*
X132219681Y-100063788D01*
X132244807Y-100157562D01*
X132270993Y-100249594D01*
X132271799Y-100258294D01*
X132272671Y-100261548D01*
X132282305Y-100371669D01*
X132291000Y-100465500D01*
X132282302Y-100559356D01*
X132272671Y-100669451D01*
X132271799Y-100672703D01*
X132270993Y-100681406D01*
X132244803Y-100773453D01*
X132219681Y-100867211D01*
X132215695Y-100875757D01*
X132211655Y-100889959D01*
X132171015Y-100971574D01*
X132133159Y-101052757D01*
X132124269Y-101065452D01*
X132115005Y-101084058D01*
X132063301Y-101152523D01*
X132015731Y-101220462D01*
X132000479Y-101235713D01*
X131984335Y-101257092D01*
X131925109Y-101311083D01*
X131870962Y-101365231D01*
X131848328Y-101381079D01*
X131824096Y-101403170D01*
X131760870Y-101442317D01*
X131703257Y-101482659D01*
X131672718Y-101496899D01*
X131639743Y-101517317D01*
X131575863Y-101542064D01*
X131517711Y-101569181D01*
X131479294Y-101579474D01*
X131437554Y-101595645D01*
X131376013Y-101607149D01*
X131319951Y-101622171D01*
X131274279Y-101626166D01*
X131224415Y-101635488D01*
X131167734Y-101635488D01*
X131116000Y-101640014D01*
X131064266Y-101635488D01*
X131007585Y-101635488D01*
X130957721Y-101626166D01*
X130912048Y-101622171D01*
X130855983Y-101607148D01*
X130794446Y-101595645D01*
X130752707Y-101579475D01*
X130714288Y-101569181D01*
X130656130Y-101542061D01*
X130592257Y-101517317D01*
X130559284Y-101496901D01*
X130528742Y-101482659D01*
X130471121Y-101442312D01*
X130407904Y-101403170D01*
X130383675Y-101381082D01*
X130361037Y-101365231D01*
X130306879Y-101311073D01*
X130247665Y-101257092D01*
X130231524Y-101235718D01*
X130216268Y-101220462D01*
X130168684Y-101152505D01*
X130116995Y-101084058D01*
X130107733Y-101065457D01*
X130098840Y-101052757D01*
X130060969Y-100971542D01*
X130020345Y-100889959D01*
X130016305Y-100875763D01*
X130012318Y-100867211D01*
X129987179Y-100773393D01*
X129961007Y-100681406D01*
X129960201Y-100672709D01*
X129959328Y-100669451D01*
X129949679Y-100559163D01*
X129941000Y-100465500D01*
X129949676Y-100371862D01*
X129959328Y-100261548D01*
X129960201Y-100258288D01*
X129961007Y-100249594D01*
X129987174Y-100157622D01*
X130012318Y-100063788D01*
X130016306Y-100055234D01*
X130020345Y-100041041D01*
X130060961Y-99959472D01*
X130098839Y-99878244D01*
X130107733Y-99865540D01*
X130116995Y-99846942D01*
X130168679Y-99778500D01*
X130216269Y-99710536D01*
X130231527Y-99695277D01*
X130247665Y-99673908D01*
X130306867Y-99619937D01*
X130361036Y-99565769D01*
X130383678Y-99549914D01*
X130407904Y-99527830D01*
X130471113Y-99488692D01*
X130528744Y-99448339D01*
X130559291Y-99434094D01*
X130592257Y-99413683D01*
X130656117Y-99388943D01*
X130714288Y-99361818D01*
X130752716Y-99351521D01*
X130794446Y-99335355D01*
X130855971Y-99323853D01*
X130912048Y-99308828D01*
X130957731Y-99304831D01*
X131007585Y-99295512D01*
X131064255Y-99295512D01*
X131116000Y-99290985D01*
X131167745Y-99295512D01*
G37*
G36*
X115520634Y-86119813D02*
G01*
X115961884Y-86177905D01*
X116396391Y-86274233D01*
X116820850Y-86408064D01*
X117232029Y-86578380D01*
X117626800Y-86783885D01*
X118002158Y-87023014D01*
X118355245Y-87293948D01*
X118683376Y-87594624D01*
X118984052Y-87922755D01*
X119254986Y-88275842D01*
X119494115Y-88651200D01*
X119699620Y-89045971D01*
X119869936Y-89457150D01*
X120003767Y-89881609D01*
X120100095Y-90316116D01*
X120158187Y-90757366D01*
X120177600Y-91202000D01*
X120158187Y-91646634D01*
X120100095Y-92087884D01*
X120003767Y-92522391D01*
X119869936Y-92946850D01*
X119699620Y-93358029D01*
X119494115Y-93752800D01*
X119254986Y-94128158D01*
X118984052Y-94481245D01*
X118683376Y-94809376D01*
X118355245Y-95110052D01*
X118002158Y-95380986D01*
X117626800Y-95620115D01*
X117232029Y-95825620D01*
X116820850Y-95995936D01*
X116396391Y-96129767D01*
X115961884Y-96226095D01*
X115520634Y-96284187D01*
X115076000Y-96303600D01*
X114631366Y-96284187D01*
X114190116Y-96226095D01*
X113755609Y-96129767D01*
X113331150Y-95995936D01*
X112919971Y-95825620D01*
X112525200Y-95620115D01*
X112149842Y-95380986D01*
X111796755Y-95110052D01*
X111468624Y-94809376D01*
X111167948Y-94481245D01*
X110897014Y-94128158D01*
X110657885Y-93752800D01*
X110452380Y-93358029D01*
X110282064Y-92946850D01*
X110148233Y-92522391D01*
X110051905Y-92087884D01*
X109993813Y-91646634D01*
X109974400Y-91202000D01*
X109993813Y-90757366D01*
X110051905Y-90316116D01*
X110148233Y-89881609D01*
X110282064Y-89457150D01*
X110452380Y-89045971D01*
X110657885Y-88651200D01*
X110897014Y-88275842D01*
X111167948Y-87922755D01*
X111468624Y-87594624D01*
X111796755Y-87293948D01*
X112149842Y-87023014D01*
X112525200Y-86783885D01*
X112919971Y-86578380D01*
X113331150Y-86408064D01*
X113755609Y-86274233D01*
X114190116Y-86177905D01*
X114631366Y-86119813D01*
X115076000Y-86100400D01*
X115520634Y-86119813D01*
G37*
G36*
X197920634Y-86119813D02*
G01*
X198361884Y-86177905D01*
X198796391Y-86274233D01*
X199220850Y-86408064D01*
X199632029Y-86578380D01*
X200026800Y-86783885D01*
X200402158Y-87023014D01*
X200755245Y-87293948D01*
X201083376Y-87594624D01*
X201384052Y-87922755D01*
X201654986Y-88275842D01*
X201894115Y-88651200D01*
X202099620Y-89045971D01*
X202269936Y-89457150D01*
X202403767Y-89881609D01*
X202500095Y-90316116D01*
X202558187Y-90757366D01*
X202577600Y-91202000D01*
X202558187Y-91646634D01*
X202500095Y-92087884D01*
X202403767Y-92522391D01*
X202269936Y-92946850D01*
X202099620Y-93358029D01*
X201894115Y-93752800D01*
X201654986Y-94128158D01*
X201384052Y-94481245D01*
X201083376Y-94809376D01*
X200755245Y-95110052D01*
X200402158Y-95380986D01*
X200026800Y-95620115D01*
X199632029Y-95825620D01*
X199220850Y-95995936D01*
X198796391Y-96129767D01*
X198361884Y-96226095D01*
X197920634Y-96284187D01*
X197476000Y-96303600D01*
X197031366Y-96284187D01*
X196590116Y-96226095D01*
X196155609Y-96129767D01*
X195731150Y-95995936D01*
X195319971Y-95825620D01*
X194925200Y-95620115D01*
X194549842Y-95380986D01*
X194196755Y-95110052D01*
X193868624Y-94809376D01*
X193567948Y-94481245D01*
X193297014Y-94128158D01*
X193057885Y-93752800D01*
X192852380Y-93358029D01*
X192682064Y-92946850D01*
X192548233Y-92522391D01*
X192451905Y-92087884D01*
X192393813Y-91646634D01*
X192374400Y-91202000D01*
X192393813Y-90757366D01*
X192451905Y-90316116D01*
X192548233Y-89881609D01*
X192682064Y-89457150D01*
X192852380Y-89045971D01*
X193057885Y-88651200D01*
X193297014Y-88275842D01*
X193567948Y-87922755D01*
X193868624Y-87594624D01*
X194196755Y-87293948D01*
X194549842Y-87023014D01*
X194925200Y-86783885D01*
X195319971Y-86578380D01*
X195731150Y-86408064D01*
X196155609Y-86274233D01*
X196590116Y-86177905D01*
X197031366Y-86119813D01*
X197476000Y-86100400D01*
X197920634Y-86119813D01*
G37*
G36*
X105323504Y-80865190D02*
G01*
X105421155Y-80865190D01*
X105524633Y-80875070D01*
X105628027Y-80880150D01*
X105718718Y-80893602D01*
X105809697Y-80902290D01*
X105917993Y-80923162D01*
X106026182Y-80939211D01*
X106109358Y-80960045D01*
X106192951Y-80976157D01*
X106304862Y-81009017D01*
X106416632Y-81037014D01*
X106491756Y-81063893D01*
X106567455Y-81086121D01*
X106681685Y-81131851D01*
X106795614Y-81172616D01*
X106862332Y-81204171D01*
X106929812Y-81231186D01*
X107044924Y-81290530D01*
X107159481Y-81344712D01*
X107217655Y-81379580D01*
X107276727Y-81410034D01*
X107391140Y-81483562D01*
X107504727Y-81551644D01*
X107554393Y-81588479D01*
X107605073Y-81621049D01*
X107717160Y-81709195D01*
X107828027Y-81791420D01*
X107869399Y-81828917D01*
X107911889Y-81862332D01*
X108019968Y-81965386D01*
X108126269Y-82061731D01*
X108159721Y-82098640D01*
X108194359Y-82131667D01*
X108296649Y-82249717D01*
X108396580Y-82359973D01*
X108422676Y-82395159D01*
X108449961Y-82426648D01*
X108544694Y-82559682D01*
X108636356Y-82683273D01*
X108655775Y-82715673D01*
X108676364Y-82744585D01*
X108761793Y-82892553D01*
X108843288Y-83028519D01*
X108856856Y-83057207D01*
X108871521Y-83082607D01*
X108945904Y-83245482D01*
X109015384Y-83392386D01*
X109024037Y-83416570D01*
X109033660Y-83437641D01*
X109095277Y-83615672D01*
X109150986Y-83771368D01*
X109155759Y-83790424D01*
X109161318Y-83806485D01*
X109208537Y-84001125D01*
X109248789Y-84161818D01*
X109250784Y-84175267D01*
X109253338Y-84185795D01*
X109284629Y-84403432D01*
X109307850Y-84559973D01*
X109308220Y-84567513D01*
X109308884Y-84572129D01*
X109322851Y-84865341D01*
X109327600Y-84962000D01*
X109322851Y-85058666D01*
X109308884Y-85351870D01*
X109308220Y-85356484D01*
X109307850Y-85364027D01*
X109284624Y-85520598D01*
X109253338Y-85738204D01*
X109250784Y-85748729D01*
X109248789Y-85762182D01*
X109208529Y-85922905D01*
X109161318Y-86117514D01*
X109155760Y-86133571D01*
X109150986Y-86152632D01*
X109095266Y-86308357D01*
X109033660Y-86486358D01*
X109024038Y-86507425D01*
X109015384Y-86531614D01*
X108945890Y-86678545D01*
X108871521Y-86841392D01*
X108856859Y-86866786D01*
X108843288Y-86895481D01*
X108761778Y-87031472D01*
X108676364Y-87179414D01*
X108655779Y-87208320D01*
X108636356Y-87240727D01*
X108544677Y-87364341D01*
X108449961Y-87497351D01*
X108422681Y-87528833D01*
X108396580Y-87564027D01*
X108296630Y-87674304D01*
X108194359Y-87792332D01*
X108159728Y-87825352D01*
X108126269Y-87862269D01*
X108019947Y-87958633D01*
X107911889Y-88061667D01*
X107869407Y-88095074D01*
X107828027Y-88132580D01*
X107717138Y-88214820D01*
X107605073Y-88302950D01*
X107554404Y-88335512D01*
X107504727Y-88372356D01*
X107391117Y-88440450D01*
X107276727Y-88513965D01*
X107217667Y-88544412D01*
X107159481Y-88579288D01*
X107044900Y-88633480D01*
X106929812Y-88692813D01*
X106862346Y-88719822D01*
X106795614Y-88751384D01*
X106681661Y-88792156D01*
X106567455Y-88837878D01*
X106491771Y-88860100D01*
X106416632Y-88886986D01*
X106304839Y-88914988D01*
X106192951Y-88947842D01*
X106109375Y-88963950D01*
X106026182Y-88984789D01*
X105917970Y-89000840D01*
X105809697Y-89021709D01*
X105718733Y-89030394D01*
X105628027Y-89043850D01*
X105524628Y-89048929D01*
X105421155Y-89058810D01*
X105323504Y-89058810D01*
X105226000Y-89063600D01*
X105128496Y-89058810D01*
X105030845Y-89058810D01*
X104927371Y-89048929D01*
X104823973Y-89043850D01*
X104733267Y-89030395D01*
X104642302Y-89021709D01*
X104534024Y-89000840D01*
X104425818Y-88984789D01*
X104342627Y-88963950D01*
X104259048Y-88947842D01*
X104147153Y-88914987D01*
X104035368Y-88886986D01*
X103960232Y-88860102D01*
X103884544Y-88837878D01*
X103770328Y-88792153D01*
X103656386Y-88751384D01*
X103589659Y-88719824D01*
X103522187Y-88692813D01*
X103407091Y-88633476D01*
X103292519Y-88579288D01*
X103234333Y-88544413D01*
X103175273Y-88513965D01*
X103060877Y-88440447D01*
X102947273Y-88372356D01*
X102897601Y-88335517D01*
X102846926Y-88302950D01*
X102734844Y-88214807D01*
X102623973Y-88132580D01*
X102582598Y-88095080D01*
X102540110Y-88061667D01*
X102432032Y-87958614D01*
X102325731Y-87862269D01*
X102292277Y-87825359D01*
X102257640Y-87792332D01*
X102155347Y-87674279D01*
X102055420Y-87564027D01*
X102029324Y-87528841D01*
X102002038Y-87497351D01*
X101907297Y-87364307D01*
X101815644Y-87240727D01*
X101796225Y-87208329D01*
X101775635Y-87179414D01*
X101690194Y-87031427D01*
X101608712Y-86895481D01*
X101595145Y-86866796D01*
X101580478Y-86841392D01*
X101506080Y-86678483D01*
X101436616Y-86531614D01*
X101427964Y-86507435D01*
X101418339Y-86486358D01*
X101356702Y-86308271D01*
X101301014Y-86152632D01*
X101296242Y-86133582D01*
X101290681Y-86117514D01*
X101243438Y-85922778D01*
X101203211Y-85762182D01*
X101201217Y-85748740D01*
X101198661Y-85738204D01*
X101167342Y-85520379D01*
X101144150Y-85364027D01*
X101143779Y-85356495D01*
X101143115Y-85351870D01*
X101129115Y-85057994D01*
X101124400Y-84962000D01*
X101129115Y-84866012D01*
X101143115Y-84572129D01*
X101143780Y-84567503D01*
X101144150Y-84559973D01*
X101167338Y-84403651D01*
X101198661Y-84185795D01*
X101201217Y-84175256D01*
X101203211Y-84161818D01*
X101243430Y-84001252D01*
X101290681Y-83806485D01*
X101296243Y-83790414D01*
X101301014Y-83771368D01*
X101356692Y-83615757D01*
X101418339Y-83437641D01*
X101427966Y-83416559D01*
X101436616Y-83392386D01*
X101506066Y-83245544D01*
X101580478Y-83082607D01*
X101595147Y-83057198D01*
X101608712Y-83028519D01*
X101690179Y-82892599D01*
X101775635Y-82744585D01*
X101796229Y-82715664D01*
X101815644Y-82683273D01*
X101907280Y-82559716D01*
X102002038Y-82426648D01*
X102029329Y-82395151D01*
X102055420Y-82359973D01*
X102155327Y-82249742D01*
X102257640Y-82131667D01*
X102292284Y-82098633D01*
X102325731Y-82061731D01*
X102432010Y-81965404D01*
X102540110Y-81862332D01*
X102582607Y-81828911D01*
X102623973Y-81791420D01*
X102734821Y-81709208D01*
X102846926Y-81621049D01*
X102897611Y-81588475D01*
X102947273Y-81551644D01*
X103060854Y-81483566D01*
X103175273Y-81410034D01*
X103234345Y-81379579D01*
X103292519Y-81344712D01*
X103407067Y-81290534D01*
X103522187Y-81231186D01*
X103589673Y-81204168D01*
X103656386Y-81172616D01*
X103770305Y-81131854D01*
X103884544Y-81086121D01*
X103960248Y-81063892D01*
X104035368Y-81037014D01*
X104147130Y-81009018D01*
X104259048Y-80976157D01*
X104342645Y-80960044D01*
X104425818Y-80939211D01*
X104534002Y-80923163D01*
X104642302Y-80902290D01*
X104733282Y-80893602D01*
X104823973Y-80880150D01*
X104927365Y-80875070D01*
X105030845Y-80865190D01*
X105128496Y-80865190D01*
X105226000Y-80860400D01*
X105323504Y-80865190D01*
G37*
G36*
X207423504Y-80865190D02*
G01*
X207521155Y-80865190D01*
X207624633Y-80875070D01*
X207728027Y-80880150D01*
X207818718Y-80893602D01*
X207909697Y-80902290D01*
X208017993Y-80923162D01*
X208126182Y-80939211D01*
X208209358Y-80960045D01*
X208292951Y-80976157D01*
X208404862Y-81009017D01*
X208516632Y-81037014D01*
X208591756Y-81063893D01*
X208667455Y-81086121D01*
X208781685Y-81131851D01*
X208895614Y-81172616D01*
X208962332Y-81204171D01*
X209029812Y-81231186D01*
X209144924Y-81290530D01*
X209259481Y-81344712D01*
X209317655Y-81379580D01*
X209376727Y-81410034D01*
X209491140Y-81483562D01*
X209604727Y-81551644D01*
X209654393Y-81588479D01*
X209705073Y-81621049D01*
X209817160Y-81709195D01*
X209928027Y-81791420D01*
X209969399Y-81828917D01*
X210011889Y-81862332D01*
X210119968Y-81965386D01*
X210226269Y-82061731D01*
X210259721Y-82098640D01*
X210294359Y-82131667D01*
X210396649Y-82249717D01*
X210496580Y-82359973D01*
X210522676Y-82395159D01*
X210549961Y-82426648D01*
X210644694Y-82559682D01*
X210736356Y-82683273D01*
X210755775Y-82715673D01*
X210776364Y-82744585D01*
X210861793Y-82892553D01*
X210943288Y-83028519D01*
X210956856Y-83057207D01*
X210971521Y-83082607D01*
X211045904Y-83245482D01*
X211115384Y-83392386D01*
X211124037Y-83416570D01*
X211133660Y-83437641D01*
X211195277Y-83615672D01*
X211250986Y-83771368D01*
X211255759Y-83790424D01*
X211261318Y-83806485D01*
X211308537Y-84001125D01*
X211348789Y-84161818D01*
X211350784Y-84175267D01*
X211353338Y-84185795D01*
X211384629Y-84403432D01*
X211407850Y-84559973D01*
X211408220Y-84567513D01*
X211408884Y-84572129D01*
X211422851Y-84865341D01*
X211427600Y-84962000D01*
X211422851Y-85058666D01*
X211408884Y-85351870D01*
X211408220Y-85356484D01*
X211407850Y-85364027D01*
X211384624Y-85520598D01*
X211353338Y-85738204D01*
X211350784Y-85748729D01*
X211348789Y-85762182D01*
X211308529Y-85922905D01*
X211261318Y-86117514D01*
X211255760Y-86133571D01*
X211250986Y-86152632D01*
X211195266Y-86308357D01*
X211133660Y-86486358D01*
X211124038Y-86507425D01*
X211115384Y-86531614D01*
X211045890Y-86678545D01*
X210971521Y-86841392D01*
X210956859Y-86866786D01*
X210943288Y-86895481D01*
X210861778Y-87031472D01*
X210776364Y-87179414D01*
X210755779Y-87208320D01*
X210736356Y-87240727D01*
X210644677Y-87364341D01*
X210549961Y-87497351D01*
X210522681Y-87528833D01*
X210496580Y-87564027D01*
X210396630Y-87674304D01*
X210294359Y-87792332D01*
X210259728Y-87825352D01*
X210226269Y-87862269D01*
X210119947Y-87958633D01*
X210011889Y-88061667D01*
X209969407Y-88095074D01*
X209928027Y-88132580D01*
X209817138Y-88214820D01*
X209705073Y-88302950D01*
X209654404Y-88335512D01*
X209604727Y-88372356D01*
X209491117Y-88440450D01*
X209376727Y-88513965D01*
X209317667Y-88544412D01*
X209259481Y-88579288D01*
X209144900Y-88633480D01*
X209029812Y-88692813D01*
X208962346Y-88719822D01*
X208895614Y-88751384D01*
X208781661Y-88792156D01*
X208667455Y-88837878D01*
X208591771Y-88860100D01*
X208516632Y-88886986D01*
X208404839Y-88914988D01*
X208292951Y-88947842D01*
X208209375Y-88963950D01*
X208126182Y-88984789D01*
X208017970Y-89000840D01*
X207909697Y-89021709D01*
X207818733Y-89030394D01*
X207728027Y-89043850D01*
X207624628Y-89048929D01*
X207521155Y-89058810D01*
X207423504Y-89058810D01*
X207326000Y-89063600D01*
X207228496Y-89058810D01*
X207130845Y-89058810D01*
X207027371Y-89048929D01*
X206923973Y-89043850D01*
X206833267Y-89030395D01*
X206742302Y-89021709D01*
X206634024Y-89000840D01*
X206525818Y-88984789D01*
X206442627Y-88963950D01*
X206359048Y-88947842D01*
X206247153Y-88914987D01*
X206135368Y-88886986D01*
X206060232Y-88860102D01*
X205984544Y-88837878D01*
X205870328Y-88792153D01*
X205756386Y-88751384D01*
X205689659Y-88719824D01*
X205622187Y-88692813D01*
X205507091Y-88633476D01*
X205392519Y-88579288D01*
X205334333Y-88544413D01*
X205275273Y-88513965D01*
X205160877Y-88440447D01*
X205047273Y-88372356D01*
X204997601Y-88335517D01*
X204946926Y-88302950D01*
X204834844Y-88214807D01*
X204723973Y-88132580D01*
X204682598Y-88095080D01*
X204640110Y-88061667D01*
X204532032Y-87958614D01*
X204425731Y-87862269D01*
X204392277Y-87825359D01*
X204357640Y-87792332D01*
X204255347Y-87674279D01*
X204155420Y-87564027D01*
X204129324Y-87528841D01*
X204102038Y-87497351D01*
X204007297Y-87364307D01*
X203915644Y-87240727D01*
X203896225Y-87208329D01*
X203875635Y-87179414D01*
X203790194Y-87031427D01*
X203708712Y-86895481D01*
X203695145Y-86866796D01*
X203680478Y-86841392D01*
X203606080Y-86678483D01*
X203536616Y-86531614D01*
X203527964Y-86507435D01*
X203518339Y-86486358D01*
X203456702Y-86308271D01*
X203401014Y-86152632D01*
X203396242Y-86133582D01*
X203390681Y-86117514D01*
X203343438Y-85922778D01*
X203303211Y-85762182D01*
X203301217Y-85748740D01*
X203298661Y-85738204D01*
X203267342Y-85520379D01*
X203244150Y-85364027D01*
X203243779Y-85356495D01*
X203243115Y-85351870D01*
X203229117Y-85058019D01*
X203224400Y-84962000D01*
X203229114Y-84866037D01*
X203243115Y-84572129D01*
X203243780Y-84567503D01*
X203244150Y-84559973D01*
X203267338Y-84403651D01*
X203298661Y-84185795D01*
X203301217Y-84175256D01*
X203303211Y-84161818D01*
X203343430Y-84001252D01*
X203390681Y-83806485D01*
X203396243Y-83790414D01*
X203401014Y-83771368D01*
X203456692Y-83615757D01*
X203518339Y-83437641D01*
X203527966Y-83416559D01*
X203536616Y-83392386D01*
X203606066Y-83245544D01*
X203680478Y-83082607D01*
X203695147Y-83057198D01*
X203708712Y-83028519D01*
X203790179Y-82892599D01*
X203875635Y-82744585D01*
X203896229Y-82715664D01*
X203915644Y-82683273D01*
X204007280Y-82559716D01*
X204102038Y-82426648D01*
X204129329Y-82395151D01*
X204155420Y-82359973D01*
X204255327Y-82249742D01*
X204357640Y-82131667D01*
X204392284Y-82098633D01*
X204425731Y-82061731D01*
X204532010Y-81965404D01*
X204640110Y-81862332D01*
X204682607Y-81828911D01*
X204723973Y-81791420D01*
X204834821Y-81709208D01*
X204946926Y-81621049D01*
X204997611Y-81588475D01*
X205047273Y-81551644D01*
X205160854Y-81483566D01*
X205275273Y-81410034D01*
X205334345Y-81379579D01*
X205392519Y-81344712D01*
X205507067Y-81290534D01*
X205622187Y-81231186D01*
X205689673Y-81204168D01*
X205756386Y-81172616D01*
X205870305Y-81131854D01*
X205984544Y-81086121D01*
X206060248Y-81063892D01*
X206135368Y-81037014D01*
X206247130Y-81009018D01*
X206359048Y-80976157D01*
X206442645Y-80960044D01*
X206525818Y-80939211D01*
X206634002Y-80923163D01*
X206742302Y-80902290D01*
X206833282Y-80893602D01*
X206923973Y-80880150D01*
X207027365Y-80875070D01*
X207130845Y-80865190D01*
X207228496Y-80865190D01*
X207326000Y-80860400D01*
X207423504Y-80865190D01*
G37*
M02*
