G04 #@! TF.GenerationSoftware,KiCad,Pcbnew,7.0.7*
G04 #@! TF.CreationDate,2023-09-14T15:12:29+02:00*
G04 #@! TF.ProjectId,5uH_LISN,3575485f-4c49-4534-9e2e-6b696361645f,V1 R0*
G04 #@! TF.SameCoordinates,Original*
G04 #@! TF.FileFunction,Paste,Bot*
G04 #@! TF.FilePolarity,Positive*
%FSLAX46Y46*%
G04 Gerber Fmt 4.6, Leading zero omitted, Abs format (unit mm)*
G04 Created by KiCad (PCBNEW 7.0.7) date 2023-09-14 15:12:29*
%MOMM*%
%LPD*%
G01*
G04 APERTURE LIST*
G04 Aperture macros list*
%AMRoundRect*
0 Rectangle with rounded corners*
0 $1 Rounding radius*
0 $2 $3 $4 $5 $6 $7 $8 $9 X,Y pos of 4 corners*
0 Add a 4 corners polygon primitive as box body*
4,1,4,$2,$3,$4,$5,$6,$7,$8,$9,$2,$3,0*
0 Add four circle primitives for the rounded corners*
1,1,$1+$1,$2,$3*
1,1,$1+$1,$4,$5*
1,1,$1+$1,$6,$7*
1,1,$1+$1,$8,$9*
0 Add four rect primitives between the rounded corners*
20,1,$1+$1,$2,$3,$4,$5,0*
20,1,$1+$1,$4,$5,$6,$7,0*
20,1,$1+$1,$6,$7,$8,$9,0*
20,1,$1+$1,$8,$9,$2,$3,0*%
G04 Aperture macros list end*
%ADD10RoundRect,0.250000X-2.450000X0.650000X-2.450000X-0.650000X2.450000X-0.650000X2.450000X0.650000X0*%
%ADD11RoundRect,0.250000X2.450000X-0.650000X2.450000X0.650000X-2.450000X0.650000X-2.450000X-0.650000X0*%
%ADD12RoundRect,0.249999X-1.100001X0.325001X-1.100001X-0.325001X1.100001X-0.325001X1.100001X0.325001X0*%
%ADD13RoundRect,0.249999X1.100001X-0.325001X1.100001X0.325001X-1.100001X0.325001X-1.100001X-0.325001X0*%
%ADD14R,0.914400X0.914400*%
%ADD15R,2.540000X1.016000*%
%ADD16RoundRect,0.249998X0.450002X-0.262502X0.450002X0.262502X-0.450002X0.262502X-0.450002X-0.262502X0*%
%ADD17RoundRect,0.249998X-0.450002X0.262502X-0.450002X-0.262502X0.450002X-0.262502X0.450002X0.262502X0*%
%ADD18RoundRect,0.249999X-2.125001X0.275001X-2.125001X-0.275001X2.125001X-0.275001X2.125001X0.275001X0*%
%ADD19RoundRect,0.249999X2.125001X-0.275001X2.125001X0.275001X-2.125001X0.275001X-2.125001X-0.275001X0*%
%ADD20RoundRect,0.249997X-0.312503X-0.625003X0.312503X-0.625003X0.312503X0.625003X-0.312503X0.625003X0*%
%ADD21RoundRect,0.249997X-0.625003X0.312503X-0.625003X-0.312503X0.625003X-0.312503X0.625003X0.312503X0*%
%ADD22RoundRect,0.249997X0.625003X-0.312503X0.625003X0.312503X-0.625003X0.312503X-0.625003X-0.312503X0*%
%ADD23RoundRect,0.250000X-0.250000X-0.475000X0.250000X-0.475000X0.250000X0.475000X-0.250000X0.475000X0*%
%ADD24RoundRect,0.249999X-0.650001X0.325001X-0.650001X-0.325001X0.650001X-0.325001X0.650001X0.325001X0*%
%ADD25RoundRect,0.249999X0.650001X-0.325001X0.650001X0.325001X-0.650001X0.325001X-0.650001X-0.325001X0*%
%ADD26R,3.600000X1.050000*%
%ADD27R,3.000000X3.000000*%
G04 APERTURE END LIST*
D10*
X107342000Y-93978000D03*
X107342000Y-99078000D03*
D11*
X107400000Y-126535000D03*
X107400000Y-121435000D03*
D12*
X117704000Y-96887000D03*
X117704000Y-99837000D03*
D13*
X112104000Y-123648000D03*
X112104000Y-120698000D03*
D12*
X112104000Y-96887000D03*
X112104000Y-99837000D03*
D13*
X117704000Y-123598000D03*
X117704000Y-120648000D03*
D14*
X135665000Y-105078000D03*
X133887000Y-105078000D03*
X134776000Y-103046000D03*
X153565000Y-105128000D03*
X151787000Y-105128000D03*
X152676000Y-103096000D03*
X135665000Y-119528000D03*
X133887000Y-119528000D03*
X134776000Y-117496000D03*
X153565000Y-119628000D03*
X151787000Y-119628000D03*
X152676000Y-117596000D03*
D15*
X168776000Y-103219000D03*
X168776000Y-105505000D03*
D16*
X139120000Y-104830500D03*
X139120000Y-103005500D03*
D17*
X139120000Y-115637000D03*
X139120000Y-117462000D03*
D18*
X107342000Y-101159000D03*
X107342000Y-104109000D03*
D19*
X107400000Y-119364000D03*
X107400000Y-116414000D03*
D16*
X141152000Y-104830500D03*
X141152000Y-103005500D03*
D17*
X141152000Y-115637000D03*
X141152000Y-117462000D03*
D20*
X142991500Y-103009000D03*
X145916500Y-103009000D03*
X142991500Y-117448000D03*
X145916500Y-117448000D03*
D21*
X120504000Y-99949500D03*
X120504000Y-102874500D03*
D22*
X114904000Y-120585500D03*
X114904000Y-117660500D03*
D16*
X147756000Y-104830500D03*
X147756000Y-103005500D03*
D17*
X147756000Y-115637000D03*
X147756000Y-117462000D03*
D21*
X114904000Y-99949500D03*
X114904000Y-102874500D03*
D22*
X120504000Y-120585500D03*
X120504000Y-117660500D03*
D16*
X149788000Y-104830500D03*
X149788000Y-103005500D03*
D17*
X149788000Y-115637000D03*
X149788000Y-117462000D03*
D23*
X164086000Y-103009000D03*
X165986000Y-103009000D03*
X164086000Y-117448000D03*
X165986000Y-117448000D03*
X171706000Y-103009000D03*
X173606000Y-103009000D03*
X171706000Y-117448000D03*
X173606000Y-117448000D03*
D24*
X192076000Y-96671000D03*
X192076000Y-99621000D03*
D25*
X192118000Y-123903000D03*
X192118000Y-120953000D03*
D20*
X155445500Y-103009000D03*
X158370500Y-103009000D03*
X155445500Y-117448000D03*
X158370500Y-117448000D03*
D16*
X160210000Y-104830500D03*
X160210000Y-103005500D03*
D17*
X160210000Y-115637000D03*
X160210000Y-117462000D03*
D16*
X162242000Y-104830500D03*
X162242000Y-103005500D03*
D17*
X162242000Y-115637000D03*
X162242000Y-117462000D03*
D16*
X175450000Y-104830500D03*
X175450000Y-103005500D03*
D17*
X175450000Y-115637000D03*
X175450000Y-117462000D03*
D16*
X177482000Y-104830500D03*
X177482000Y-103005500D03*
D17*
X177482000Y-115637000D03*
X177482000Y-117462000D03*
D20*
X179321500Y-103009000D03*
X182246500Y-103009000D03*
X179321500Y-117448000D03*
X182246500Y-117448000D03*
D16*
X186118000Y-104824500D03*
X186118000Y-102999500D03*
D17*
X186118000Y-115637000D03*
X186118000Y-117462000D03*
D16*
X184086000Y-104824500D03*
X184086000Y-102999500D03*
D17*
X184086000Y-115637000D03*
X184086000Y-117462000D03*
D26*
X190000000Y-107860000D03*
X190000000Y-103010000D03*
X190000000Y-112612000D03*
X190000000Y-117462000D03*
D27*
X140776000Y-130462000D03*
X146376000Y-130462000D03*
X128776000Y-130462000D03*
X134376000Y-130462000D03*
X177776000Y-130462000D03*
X183376000Y-130462000D03*
X165276000Y-130462000D03*
X170876000Y-130462000D03*
X165276000Y-89962000D03*
X170876000Y-89962000D03*
D15*
X168876000Y-117319000D03*
X168876000Y-119605000D03*
D27*
X140776000Y-89962000D03*
X146376000Y-89962000D03*
X129376000Y-89962000D03*
X134976000Y-89962000D03*
X153276000Y-89962000D03*
X158876000Y-89962000D03*
X153276000Y-130462000D03*
X158876000Y-130462000D03*
X177776000Y-89962000D03*
X183376000Y-89962000D03*
M02*
