G04 #@! TF.GenerationSoftware,KiCad,Pcbnew,7.0.7*
G04 #@! TF.CreationDate,2023-09-14T15:12:29+02:00*
G04 #@! TF.ProjectId,5uH_LISN,3575485f-4c49-4534-9e2e-6b696361645f,V1 R0*
G04 #@! TF.SameCoordinates,Original*
G04 #@! TF.FileFunction,Copper,L2,Bot*
G04 #@! TF.FilePolarity,Positive*
%FSLAX46Y46*%
G04 Gerber Fmt 4.6, Leading zero omitted, Abs format (unit mm)*
G04 Created by KiCad (PCBNEW 7.0.7) date 2023-09-14 15:12:29*
%MOMM*%
%LPD*%
G01*
G04 APERTURE LIST*
G04 Aperture macros list*
%AMRoundRect*
0 Rectangle with rounded corners*
0 $1 Rounding radius*
0 $2 $3 $4 $5 $6 $7 $8 $9 X,Y pos of 4 corners*
0 Add a 4 corners polygon primitive as box body*
4,1,4,$2,$3,$4,$5,$6,$7,$8,$9,$2,$3,0*
0 Add four circle primitives for the rounded corners*
1,1,$1+$1,$2,$3*
1,1,$1+$1,$4,$5*
1,1,$1+$1,$6,$7*
1,1,$1+$1,$8,$9*
0 Add four rect primitives between the rounded corners*
20,1,$1+$1,$2,$3,$4,$5,0*
20,1,$1+$1,$4,$5,$6,$7,0*
20,1,$1+$1,$6,$7,$8,$9,0*
20,1,$1+$1,$8,$9,$2,$3,0*%
G04 Aperture macros list end*
G04 #@! TA.AperFunction,ComponentPad*
%ADD10C,2.050000*%
G04 #@! TD*
G04 #@! TA.AperFunction,ComponentPad*
%ADD11C,2.250000*%
G04 #@! TD*
G04 #@! TA.AperFunction,ComponentPad*
%ADD12C,10.000000*%
G04 #@! TD*
G04 #@! TA.AperFunction,ComponentPad*
%ADD13C,8.000000*%
G04 #@! TD*
G04 #@! TA.AperFunction,SMDPad,CuDef*
%ADD14RoundRect,0.250000X-2.450000X0.650000X-2.450000X-0.650000X2.450000X-0.650000X2.450000X0.650000X0*%
G04 #@! TD*
G04 #@! TA.AperFunction,SMDPad,CuDef*
%ADD15RoundRect,0.250000X2.450000X-0.650000X2.450000X0.650000X-2.450000X0.650000X-2.450000X-0.650000X0*%
G04 #@! TD*
G04 #@! TA.AperFunction,SMDPad,CuDef*
%ADD16RoundRect,0.249999X-1.100001X0.325001X-1.100001X-0.325001X1.100001X-0.325001X1.100001X0.325001X0*%
G04 #@! TD*
G04 #@! TA.AperFunction,SMDPad,CuDef*
%ADD17RoundRect,0.249999X1.100001X-0.325001X1.100001X0.325001X-1.100001X0.325001X-1.100001X-0.325001X0*%
G04 #@! TD*
G04 #@! TA.AperFunction,SMDPad,CuDef*
%ADD18R,0.914400X0.914400*%
G04 #@! TD*
G04 #@! TA.AperFunction,SMDPad,CuDef*
%ADD19R,2.540000X1.016000*%
G04 #@! TD*
G04 #@! TA.AperFunction,SMDPad,CuDef*
%ADD20RoundRect,0.249998X0.450002X-0.262502X0.450002X0.262502X-0.450002X0.262502X-0.450002X-0.262502X0*%
G04 #@! TD*
G04 #@! TA.AperFunction,SMDPad,CuDef*
%ADD21RoundRect,0.249998X-0.450002X0.262502X-0.450002X-0.262502X0.450002X-0.262502X0.450002X0.262502X0*%
G04 #@! TD*
G04 #@! TA.AperFunction,SMDPad,CuDef*
%ADD22RoundRect,0.249999X-2.125001X0.275001X-2.125001X-0.275001X2.125001X-0.275001X2.125001X0.275001X0*%
G04 #@! TD*
G04 #@! TA.AperFunction,SMDPad,CuDef*
%ADD23RoundRect,0.249999X2.125001X-0.275001X2.125001X0.275001X-2.125001X0.275001X-2.125001X-0.275001X0*%
G04 #@! TD*
G04 #@! TA.AperFunction,SMDPad,CuDef*
%ADD24RoundRect,0.249997X-0.312503X-0.625003X0.312503X-0.625003X0.312503X0.625003X-0.312503X0.625003X0*%
G04 #@! TD*
G04 #@! TA.AperFunction,SMDPad,CuDef*
%ADD25RoundRect,0.249997X-0.625003X0.312503X-0.625003X-0.312503X0.625003X-0.312503X0.625003X0.312503X0*%
G04 #@! TD*
G04 #@! TA.AperFunction,SMDPad,CuDef*
%ADD26RoundRect,0.249997X0.625003X-0.312503X0.625003X0.312503X-0.625003X0.312503X-0.625003X-0.312503X0*%
G04 #@! TD*
G04 #@! TA.AperFunction,SMDPad,CuDef*
%ADD27RoundRect,0.250000X-0.250000X-0.475000X0.250000X-0.475000X0.250000X0.475000X-0.250000X0.475000X0*%
G04 #@! TD*
G04 #@! TA.AperFunction,SMDPad,CuDef*
%ADD28RoundRect,0.249999X-0.650001X0.325001X-0.650001X-0.325001X0.650001X-0.325001X0.650001X0.325001X0*%
G04 #@! TD*
G04 #@! TA.AperFunction,SMDPad,CuDef*
%ADD29RoundRect,0.249999X0.650001X-0.325001X0.650001X0.325001X-0.650001X0.325001X-0.650001X-0.325001X0*%
G04 #@! TD*
G04 #@! TA.AperFunction,SMDPad,CuDef*
%ADD30R,3.600000X1.050000*%
G04 #@! TD*
G04 #@! TA.AperFunction,SMDPad,CuDef*
%ADD31R,3.000000X3.000000*%
G04 #@! TD*
G04 #@! TA.AperFunction,ViaPad*
%ADD32C,0.900000*%
G04 #@! TD*
G04 #@! TA.AperFunction,ViaPad*
%ADD33C,0.800000*%
G04 #@! TD*
G04 #@! TA.AperFunction,Conductor*
%ADD34C,3.000000*%
G04 #@! TD*
G04 #@! TA.AperFunction,Conductor*
%ADD35C,1.774160*%
G04 #@! TD*
G04 #@! TA.AperFunction,Conductor*
%ADD36C,1.231000*%
G04 #@! TD*
G04 APERTURE END LIST*
D10*
X128576000Y-103005500D03*
D11*
X126036000Y-100465500D03*
X131116000Y-105545500D03*
X126036000Y-105545500D03*
X131116000Y-100465500D03*
D10*
X128576000Y-117462000D03*
D11*
X126036000Y-114922000D03*
X126036000Y-120002000D03*
X131116000Y-120002000D03*
X131116000Y-114922000D03*
D12*
X115076000Y-110262000D03*
D13*
X105226000Y-135462000D03*
X105226000Y-84962000D03*
X207326000Y-84962000D03*
X207326000Y-135462000D03*
D12*
X115076000Y-91202000D03*
X115076000Y-129322000D03*
X197476000Y-110262000D03*
X197476000Y-91202000D03*
X197476000Y-129322000D03*
D14*
X107342000Y-93978000D03*
X107342000Y-99078000D03*
D15*
X107400000Y-126535000D03*
X107400000Y-121435000D03*
D16*
X117704000Y-96887000D03*
X117704000Y-99837000D03*
D17*
X112104000Y-123648000D03*
X112104000Y-120698000D03*
D16*
X112104000Y-96887000D03*
X112104000Y-99837000D03*
D17*
X117704000Y-123598000D03*
X117704000Y-120648000D03*
D18*
X135665000Y-105078000D03*
X133887000Y-105078000D03*
X134776000Y-103046000D03*
X153565000Y-105128000D03*
X151787000Y-105128000D03*
X152676000Y-103096000D03*
X135665000Y-119528000D03*
X133887000Y-119528000D03*
X134776000Y-117496000D03*
X153565000Y-119628000D03*
X151787000Y-119628000D03*
X152676000Y-117596000D03*
D19*
X168776000Y-103219000D03*
X168776000Y-105505000D03*
D20*
X139120000Y-104830500D03*
X139120000Y-103005500D03*
D21*
X139120000Y-115637000D03*
X139120000Y-117462000D03*
D22*
X107342000Y-101159000D03*
X107342000Y-104109000D03*
D23*
X107400000Y-119364000D03*
X107400000Y-116414000D03*
D20*
X141152000Y-104830500D03*
X141152000Y-103005500D03*
D21*
X141152000Y-115637000D03*
X141152000Y-117462000D03*
D24*
X142991500Y-103009000D03*
X145916500Y-103009000D03*
X142991500Y-117448000D03*
X145916500Y-117448000D03*
D25*
X120504000Y-99949500D03*
X120504000Y-102874500D03*
D26*
X114904000Y-120585500D03*
X114904000Y-117660500D03*
D20*
X147756000Y-104830500D03*
X147756000Y-103005500D03*
D21*
X147756000Y-115637000D03*
X147756000Y-117462000D03*
D25*
X114904000Y-99949500D03*
X114904000Y-102874500D03*
D26*
X120504000Y-120585500D03*
X120504000Y-117660500D03*
D20*
X149788000Y-104830500D03*
X149788000Y-103005500D03*
D21*
X149788000Y-115637000D03*
X149788000Y-117462000D03*
D27*
X164086000Y-103009000D03*
X165986000Y-103009000D03*
X164086000Y-117448000D03*
X165986000Y-117448000D03*
X171706000Y-103009000D03*
X173606000Y-103009000D03*
X171706000Y-117448000D03*
X173606000Y-117448000D03*
D28*
X192076000Y-96671000D03*
X192076000Y-99621000D03*
D29*
X192118000Y-123903000D03*
X192118000Y-120953000D03*
D24*
X155445500Y-103009000D03*
X158370500Y-103009000D03*
X155445500Y-117448000D03*
X158370500Y-117448000D03*
D20*
X160210000Y-104830500D03*
X160210000Y-103005500D03*
D21*
X160210000Y-115637000D03*
X160210000Y-117462000D03*
D20*
X162242000Y-104830500D03*
X162242000Y-103005500D03*
D21*
X162242000Y-115637000D03*
X162242000Y-117462000D03*
D20*
X175450000Y-104830500D03*
X175450000Y-103005500D03*
D21*
X175450000Y-115637000D03*
X175450000Y-117462000D03*
D20*
X177482000Y-104830500D03*
X177482000Y-103005500D03*
D21*
X177482000Y-115637000D03*
X177482000Y-117462000D03*
D24*
X179321500Y-103009000D03*
X182246500Y-103009000D03*
X179321500Y-117448000D03*
X182246500Y-117448000D03*
D20*
X186118000Y-104824500D03*
X186118000Y-102999500D03*
D21*
X186118000Y-115637000D03*
X186118000Y-117462000D03*
D20*
X184086000Y-104824500D03*
X184086000Y-102999500D03*
D21*
X184086000Y-115637000D03*
X184086000Y-117462000D03*
D30*
X190000000Y-107860000D03*
X190000000Y-103010000D03*
X190000000Y-112612000D03*
X190000000Y-117462000D03*
D31*
X140776000Y-130462000D03*
X146376000Y-130462000D03*
X128776000Y-130462000D03*
X134376000Y-130462000D03*
X177776000Y-130462000D03*
X183376000Y-130462000D03*
X165276000Y-130462000D03*
X170876000Y-130462000D03*
X165276000Y-89962000D03*
X170876000Y-89962000D03*
D19*
X168876000Y-117319000D03*
X168876000Y-119605000D03*
D31*
X140776000Y-89962000D03*
X146376000Y-89962000D03*
X129376000Y-89962000D03*
X134976000Y-89962000D03*
X153276000Y-89962000D03*
X158876000Y-89962000D03*
X153276000Y-130462000D03*
X158876000Y-130462000D03*
X177776000Y-89962000D03*
X183376000Y-89962000D03*
D32*
X111252000Y-81026000D03*
X113792000Y-81026000D03*
X116332000Y-81026000D03*
X118872000Y-81026000D03*
X121412000Y-81026000D03*
X123952000Y-81026000D03*
X126492000Y-81026000D03*
X129032000Y-81026000D03*
X131572000Y-81026000D03*
X134112000Y-81026000D03*
X136652000Y-81026000D03*
X139192000Y-81026000D03*
X141732000Y-81026000D03*
X144272000Y-81026000D03*
X146812000Y-81026000D03*
X149352000Y-81026000D03*
X151892000Y-81026000D03*
X154432000Y-81026000D03*
X156972000Y-81026000D03*
X159512000Y-81026000D03*
X162052000Y-81026000D03*
X164592000Y-81026000D03*
X167132000Y-81026000D03*
X169672000Y-81026000D03*
X172212000Y-81026000D03*
X174752000Y-81026000D03*
X177292000Y-81026000D03*
X179832000Y-81026000D03*
X182372000Y-81026000D03*
X184912000Y-81026000D03*
X187452000Y-81026000D03*
X189992000Y-81026000D03*
X192532000Y-81026000D03*
X195072000Y-81026000D03*
X197612000Y-81026000D03*
X200152000Y-81026000D03*
X202692000Y-81026000D03*
X172720000Y-139192000D03*
X175260000Y-139192000D03*
X127000000Y-139192000D03*
X162560000Y-139192000D03*
X165100000Y-139192000D03*
X187960000Y-139192000D03*
X190500000Y-139192000D03*
X119380000Y-139192000D03*
X132080000Y-139192000D03*
X134620000Y-139192000D03*
X142240000Y-139192000D03*
X144780000Y-139192000D03*
X147320000Y-139192000D03*
X149860000Y-139192000D03*
X121920000Y-139192000D03*
X177800000Y-139192000D03*
X180340000Y-139192000D03*
X203200000Y-139192000D03*
X114300000Y-139192000D03*
X116840000Y-139192000D03*
X109220000Y-139192000D03*
X193040000Y-139192000D03*
X195580000Y-139192000D03*
X182880000Y-139192000D03*
X185420000Y-139192000D03*
X167640000Y-139192000D03*
X170180000Y-139192000D03*
X152400000Y-139192000D03*
X154940000Y-139192000D03*
X129540000Y-139192000D03*
X198120000Y-139192000D03*
X200660000Y-139192000D03*
X124460000Y-139192000D03*
X111760000Y-139192000D03*
X137160000Y-139192000D03*
X139700000Y-139192000D03*
X157480000Y-139192000D03*
X160020000Y-139192000D03*
X165354000Y-110236000D03*
X167894000Y-110236000D03*
X155194000Y-110236000D03*
X157734000Y-110236000D03*
X180594000Y-110236000D03*
X183134000Y-110236000D03*
X127254000Y-110236000D03*
X134874000Y-110236000D03*
X137414000Y-110236000D03*
X139954000Y-110236000D03*
X142494000Y-110236000D03*
X170434000Y-110236000D03*
X172974000Y-110236000D03*
X185674000Y-110236000D03*
X188214000Y-110236000D03*
X175514000Y-110236000D03*
X178054000Y-110236000D03*
X160274000Y-110236000D03*
X162814000Y-110236000D03*
X145034000Y-110236000D03*
X147574000Y-110236000D03*
X190754000Y-110236000D03*
X129794000Y-110236000D03*
X132334000Y-110236000D03*
X150114000Y-110236000D03*
X152654000Y-110236000D03*
D33*
X160274000Y-98298000D03*
X162814000Y-98298000D03*
X137414000Y-98298000D03*
X172974000Y-98298000D03*
X170434000Y-98298000D03*
X165354000Y-98298000D03*
X157734000Y-98298000D03*
X152654000Y-98298000D03*
X127254000Y-98298000D03*
X139954000Y-98298000D03*
X142494000Y-98298000D03*
X145034000Y-98298000D03*
X147574000Y-98298000D03*
X167894000Y-98298000D03*
X180594000Y-98298000D03*
X124714000Y-98298000D03*
X132334000Y-98298000D03*
X150114000Y-98298000D03*
X129794000Y-98298000D03*
X134874000Y-98298000D03*
X155194000Y-98298000D03*
X175514000Y-98298000D03*
X178054000Y-98298000D03*
X183134000Y-98298000D03*
X162814000Y-122174000D03*
X178054000Y-122174000D03*
X183134000Y-122174000D03*
X165354000Y-122174000D03*
X170434000Y-122174000D03*
X180594000Y-122174000D03*
X124714000Y-122174000D03*
X172974000Y-122174000D03*
X160274000Y-122174000D03*
X157734000Y-122174000D03*
X155194000Y-122174000D03*
X175514000Y-122174000D03*
X129794000Y-122174000D03*
X134874000Y-122174000D03*
X152654000Y-122174000D03*
X139954000Y-122174000D03*
X137414000Y-122174000D03*
X142494000Y-122174000D03*
X147574000Y-122174000D03*
X167894000Y-122174000D03*
X127254000Y-122174000D03*
X132334000Y-122174000D03*
X150114000Y-122174000D03*
X145034000Y-122174000D03*
D32*
X211328000Y-88392000D03*
X211328000Y-90932000D03*
X211328000Y-93472000D03*
X211328000Y-96012000D03*
X211328000Y-98552000D03*
X211328000Y-101092000D03*
X211328000Y-103632000D03*
X211328000Y-106172000D03*
X211328000Y-108712000D03*
X211328000Y-111252000D03*
X211328000Y-113792000D03*
X211328000Y-116332000D03*
X211328000Y-118872000D03*
X211328000Y-121412000D03*
X211328000Y-123952000D03*
X211328000Y-126492000D03*
X211328000Y-129032000D03*
X211328000Y-131572000D03*
X101346000Y-108712000D03*
X101346000Y-118872000D03*
X101346000Y-121412000D03*
X101346000Y-129032000D03*
X101346000Y-131572000D03*
X101346000Y-93472000D03*
X101346000Y-98552000D03*
X101346000Y-111252000D03*
X101346000Y-103632000D03*
X101346000Y-96012000D03*
X101346000Y-101092000D03*
X101346000Y-123952000D03*
X101346000Y-126492000D03*
X101346000Y-106172000D03*
X101346000Y-113792000D03*
X101346000Y-116332000D03*
X101346000Y-88392000D03*
X101346000Y-90932000D03*
D33*
X185420000Y-98298000D03*
X185420000Y-122174000D03*
X195834000Y-98285300D03*
X195834000Y-100825300D03*
X195834000Y-103365300D03*
X195823840Y-122204480D03*
X195823840Y-117124480D03*
X195823840Y-119664480D03*
X123576000Y-108460540D03*
X123565840Y-112059720D03*
X123576000Y-103380540D03*
X123576000Y-100840540D03*
X123576000Y-105920540D03*
X123565840Y-119679720D03*
X123565840Y-117139720D03*
X123576000Y-110251240D03*
X123565840Y-114599720D03*
D32*
X135726000Y-120412000D03*
X205076000Y-130462000D03*
X103226000Y-90932000D03*
X103226000Y-111252000D03*
X105576000Y-132462000D03*
X133876000Y-120412000D03*
X185676000Y-114662000D03*
X182880000Y-137362000D03*
X141676000Y-105862000D03*
X209226000Y-113782000D03*
X103576000Y-132962000D03*
X210076000Y-85962000D03*
X199076000Y-122462000D03*
X159676000Y-105812000D03*
X148276000Y-105812000D03*
X116840000Y-137362000D03*
X152400000Y-137362000D03*
X108076000Y-85962000D03*
X175876000Y-114662000D03*
X185676000Y-105812000D03*
X174876000Y-105812000D03*
X207576000Y-81962000D03*
X210076000Y-83962000D03*
X118872000Y-82962000D03*
X169826000Y-106462000D03*
X205076000Y-92962000D03*
X151776000Y-106012000D03*
X200076000Y-97962000D03*
X147276000Y-114662000D03*
X119526000Y-116612000D03*
X114876000Y-116612000D03*
X210076000Y-136462000D03*
X150276000Y-105812000D03*
X102576000Y-134462000D03*
X102576000Y-136462000D03*
X123952000Y-82962000D03*
X156972000Y-82962000D03*
X191076000Y-108762000D03*
X151776000Y-120512000D03*
X105026000Y-105112000D03*
X103576000Y-87462000D03*
X142240000Y-137362000D03*
X139676000Y-105862000D03*
X157480000Y-137362000D03*
X167826000Y-120512000D03*
X103226000Y-118872000D03*
X144780000Y-137362000D03*
X195072000Y-82962000D03*
X111760000Y-137362000D03*
X131572000Y-82962000D03*
X209226000Y-93462000D03*
X198120000Y-137362000D03*
X119380000Y-137362000D03*
X127000000Y-137362000D03*
X105576000Y-138462000D03*
X102576000Y-85962000D03*
X179832000Y-82962000D03*
X113926000Y-103962000D03*
X108076000Y-136462000D03*
X102576000Y-83962000D03*
X168876000Y-120512000D03*
X209226000Y-116322000D03*
X106926000Y-115412000D03*
X103226000Y-113792000D03*
X189992000Y-82962000D03*
X135676000Y-105962000D03*
X180340000Y-137362000D03*
X209226000Y-111242000D03*
X182372000Y-82962000D03*
X116332000Y-82962000D03*
X148276000Y-114662000D03*
X108826000Y-105112000D03*
X209226000Y-121402000D03*
X105576000Y-87962000D03*
X109776000Y-105112000D03*
X205076000Y-127962000D03*
X197612000Y-82962000D03*
X183676000Y-114662000D03*
X204576000Y-83962000D03*
X185420000Y-137362000D03*
X105026000Y-115412000D03*
X209226000Y-108702000D03*
X203200000Y-137362000D03*
X136652000Y-82962000D03*
X205576000Y-132962000D03*
X177876000Y-105812000D03*
X175260000Y-137362000D03*
X162052000Y-82962000D03*
X202576000Y-97962000D03*
X121426000Y-116612000D03*
X147276000Y-105812000D03*
X137160000Y-137362000D03*
X149276000Y-114662000D03*
X172212000Y-82962000D03*
X165100000Y-137362000D03*
X121920000Y-137362000D03*
X103226000Y-93472000D03*
X174752000Y-82962000D03*
X197576000Y-97962000D03*
X205076000Y-125462000D03*
X202692000Y-82962000D03*
X151892000Y-82962000D03*
X187960000Y-137362000D03*
X103576000Y-137962000D03*
X107076000Y-132962000D03*
X114300000Y-137362000D03*
X141732000Y-82962000D03*
X149860000Y-137362000D03*
X103226000Y-101092000D03*
X209226000Y-123942000D03*
X176876000Y-114662000D03*
X204076000Y-124462000D03*
X149352000Y-82962000D03*
X200660000Y-137362000D03*
X134112000Y-82962000D03*
X187452000Y-82962000D03*
X161676000Y-114662000D03*
X195580000Y-137362000D03*
X172720000Y-137362000D03*
X205076000Y-90462000D03*
X190026000Y-111712000D03*
X177800000Y-137362000D03*
X103226000Y-126492000D03*
X174876000Y-114662000D03*
X168776000Y-106462000D03*
X153576000Y-120512000D03*
X205076000Y-95462000D03*
X188976000Y-111712000D03*
X154432000Y-82962000D03*
X176876000Y-105812000D03*
X167726000Y-106462000D03*
X167132000Y-82962000D03*
X177876000Y-114662000D03*
X167640000Y-137362000D03*
X126492000Y-82962000D03*
X115826000Y-103962000D03*
X164592000Y-82962000D03*
X114876000Y-103962000D03*
X140676000Y-114712000D03*
X204576000Y-134462000D03*
X159676000Y-114662000D03*
X129032000Y-82962000D03*
X205576000Y-87462000D03*
X162676000Y-114662000D03*
X103226000Y-121412000D03*
X108076000Y-83962000D03*
X205576000Y-82462000D03*
X205576000Y-137962000D03*
X210076000Y-134462000D03*
X144272000Y-82962000D03*
X161676000Y-105812000D03*
X197076000Y-122462000D03*
X201076000Y-122462000D03*
X209226000Y-129022000D03*
X106926000Y-105112000D03*
X188976000Y-108762000D03*
X146812000Y-82962000D03*
X129540000Y-137362000D03*
X184676000Y-114662000D03*
X108712000Y-82962000D03*
X207576000Y-132462000D03*
X108826000Y-115412000D03*
X209226000Y-98542000D03*
X103226000Y-108712000D03*
X162560000Y-137362000D03*
X105976000Y-105112000D03*
X140676000Y-105862000D03*
X139192000Y-82962000D03*
X107076000Y-82462000D03*
X138676000Y-105862000D03*
X108076000Y-134462000D03*
X200152000Y-82962000D03*
X103576000Y-82462000D03*
X160676000Y-114662000D03*
X209226000Y-90922000D03*
X107876000Y-105112000D03*
X209076000Y-87462000D03*
X162676000Y-105812000D03*
X209226000Y-106162000D03*
X184676000Y-105812000D03*
X183676000Y-105812000D03*
X209226000Y-96002000D03*
X209226000Y-118862000D03*
X105976000Y-115412000D03*
X107076000Y-87462000D03*
X169672000Y-82962000D03*
X109220000Y-137362000D03*
X193040000Y-137362000D03*
X209226000Y-101082000D03*
X170180000Y-137362000D03*
X190500000Y-137362000D03*
X192532000Y-82962000D03*
X177292000Y-82962000D03*
X203076000Y-122462000D03*
X109776000Y-115412000D03*
X160020000Y-137362000D03*
X111252000Y-82962000D03*
X209076000Y-82462000D03*
X107076000Y-137962000D03*
X138676000Y-114712000D03*
X108712000Y-81026000D03*
X209076000Y-137962000D03*
X141676000Y-114712000D03*
X207576000Y-138462000D03*
X159512000Y-82962000D03*
X150276000Y-114662000D03*
X160676000Y-105812000D03*
X113792000Y-82962000D03*
X175876000Y-105812000D03*
X120526000Y-103962000D03*
X120476000Y-116612000D03*
X169926000Y-120512000D03*
X107876000Y-115412000D03*
X190026000Y-108762000D03*
X139676000Y-114712000D03*
X204576000Y-136462000D03*
X191076000Y-111712000D03*
X184912000Y-82962000D03*
X133876000Y-105962000D03*
X113926000Y-116612000D03*
X153576000Y-106012000D03*
X103226000Y-103632000D03*
X149276000Y-105812000D03*
X154940000Y-137362000D03*
X209226000Y-103622000D03*
X119576000Y-103962000D03*
X134620000Y-137362000D03*
X139700000Y-137362000D03*
X115826000Y-116612000D03*
X103226000Y-116332000D03*
X121476000Y-103962000D03*
X103226000Y-123952000D03*
X103226000Y-106172000D03*
X103226000Y-129032000D03*
X147320000Y-137362000D03*
X121412000Y-82962000D03*
X105576000Y-81962000D03*
X132080000Y-137362000D03*
X186676000Y-114662000D03*
X209076000Y-132962000D03*
X204576000Y-85962000D03*
X103226000Y-98552000D03*
X209226000Y-126482000D03*
X186676000Y-105812000D03*
X124460000Y-137362000D03*
X103226000Y-96012000D03*
X207576000Y-87962000D03*
D34*
X129000000Y-89962000D02*
X115076000Y-89962000D01*
X165000000Y-130462000D02*
X159000000Y-130462000D01*
X172000000Y-130462000D02*
X177000000Y-130462000D01*
D35*
X175998000Y-130462000D02*
X178148000Y-130462000D01*
X170848000Y-130462000D02*
X172998000Y-130462000D01*
D36*
X171702500Y-103005500D02*
X171706000Y-103009000D01*
X168846000Y-103005500D02*
X171702500Y-103005500D01*
X165986000Y-103009000D02*
X168834000Y-103009000D01*
X168834000Y-103009000D02*
X168846000Y-102997000D01*
X158370500Y-103009000D02*
X160206500Y-103009000D01*
X164082500Y-103005500D02*
X164086000Y-103009000D01*
X160210000Y-103005500D02*
X162242000Y-103005500D01*
X162242000Y-103005500D02*
X164082500Y-103005500D01*
X160206500Y-103009000D02*
X160210000Y-103005500D01*
X165986000Y-117448000D02*
X168846000Y-117448000D01*
X168846000Y-117448000D02*
X171706000Y-117448000D01*
X158370500Y-117448000D02*
X160196000Y-117448000D01*
X160210000Y-117462000D02*
X162242000Y-117462000D01*
X162242000Y-117462000D02*
X164072000Y-117462000D01*
X164072000Y-117462000D02*
X164086000Y-117448000D01*
X160196000Y-117448000D02*
X160210000Y-117462000D01*
X177482000Y-103005500D02*
X179318000Y-103005500D01*
X173606000Y-103009000D02*
X175446500Y-103009000D01*
X175450000Y-103005500D02*
X177482000Y-103005500D01*
X179318000Y-103005500D02*
X179321500Y-103009000D01*
X175446500Y-103009000D02*
X175450000Y-103005500D01*
X177482000Y-117462000D02*
X179307500Y-117462000D01*
X175436000Y-117448000D02*
X175450000Y-117462000D01*
X175450000Y-117462000D02*
X177482000Y-117462000D01*
X179307500Y-117462000D02*
X179321500Y-117448000D01*
X173606000Y-117448000D02*
X175436000Y-117448000D01*
X184082500Y-103009000D02*
X184086000Y-103005500D01*
X182246500Y-103009000D02*
X184082500Y-103009000D01*
X184086000Y-103005500D02*
X186118000Y-103005500D01*
X192118000Y-103009680D02*
X192118000Y-99800000D01*
X185826000Y-103012000D02*
X192118000Y-103009680D01*
D34*
X192278000Y-89916000D02*
X197430000Y-89916000D01*
X197430000Y-89916000D02*
X197476000Y-89962000D01*
X184000000Y-89916000D02*
X189992000Y-89916000D01*
X189992000Y-89916000D02*
X192278000Y-89916000D01*
D36*
X197476000Y-91313000D02*
X192118000Y-96671000D01*
D35*
X197476000Y-89962000D02*
X197476000Y-91313000D01*
D36*
X186026000Y-117462000D02*
X192118000Y-117467400D01*
X184072000Y-117448000D02*
X184086000Y-117462000D01*
X192118000Y-117467400D02*
X191618000Y-117467400D01*
X182246500Y-117448000D02*
X184072000Y-117448000D01*
X192118000Y-117467400D02*
X192118000Y-120800000D01*
X184086000Y-117462000D02*
X186118000Y-117462000D01*
D35*
X197476000Y-130462000D02*
X197476000Y-129261000D01*
D34*
X197476000Y-130462000D02*
X184000000Y-130462000D01*
D36*
X197476000Y-129261000D02*
X192118000Y-123903000D01*
X115011000Y-123647000D02*
X115025000Y-130411000D01*
X112254000Y-123647000D02*
X115011000Y-123647000D01*
D34*
X127226000Y-130462000D02*
X115076000Y-130462000D01*
D36*
X115025000Y-130411000D02*
X115076000Y-130462000D01*
D34*
X153000000Y-89962000D02*
X147000000Y-89962000D01*
X171000000Y-89916000D02*
X177000000Y-89916000D01*
X140000000Y-89962000D02*
X135000000Y-89962000D01*
X159000000Y-89962000D02*
X165000000Y-89962000D01*
X140000000Y-130462000D02*
X135000000Y-130462000D01*
X153000000Y-130462000D02*
X147000000Y-130462000D01*
D36*
X139120000Y-103005500D02*
X141152000Y-103005500D01*
X142988000Y-103005500D02*
X142991500Y-103009000D01*
X136888000Y-103005500D02*
X139120000Y-103005500D01*
X134402000Y-103005500D02*
X136888000Y-103005500D01*
X141152000Y-103005500D02*
X142988000Y-103005500D01*
X128576000Y-103005500D02*
X134402000Y-103005500D01*
X155442000Y-103005500D02*
X155445500Y-103009000D01*
X147752500Y-103009000D02*
X147756000Y-103005500D01*
X153406000Y-103005500D02*
X155442000Y-103005500D01*
X151520000Y-103005500D02*
X153906000Y-103005500D01*
X149788000Y-103005500D02*
X152020000Y-103005500D01*
X147756000Y-103005500D02*
X149788000Y-103005500D01*
X145916500Y-103009000D02*
X147752500Y-103009000D01*
X141152000Y-117462000D02*
X142977500Y-117462000D01*
X139120000Y-117462000D02*
X141152000Y-117462000D01*
X136888000Y-117462000D02*
X139120000Y-117462000D01*
X128576000Y-117462000D02*
X134402000Y-117462000D01*
X142977500Y-117462000D02*
X142991500Y-117448000D01*
X134402000Y-117462000D02*
X136888000Y-117462000D01*
X151520000Y-117462000D02*
X153906000Y-117462000D01*
X153406000Y-117462000D02*
X155431500Y-117462000D01*
X147742000Y-117448000D02*
X147756000Y-117462000D01*
X149788000Y-117462000D02*
X152020000Y-117462000D01*
X145916500Y-117448000D02*
X147742000Y-117448000D01*
X155431500Y-117462000D02*
X155445500Y-117448000D01*
X147756000Y-117462000D02*
X149788000Y-117462000D01*
G04 #@! TA.AperFunction,Conductor*
G36*
X125418121Y-123018002D02*
G01*
X125464614Y-123071658D01*
X125476000Y-123123999D01*
X125476000Y-128912000D01*
X128398000Y-128912000D01*
X128466121Y-128932002D01*
X128512614Y-128985658D01*
X128524000Y-129038000D01*
X128523999Y-131935984D01*
X128503997Y-132004105D01*
X128450341Y-132050598D01*
X128397984Y-132061984D01*
X125430755Y-132061640D01*
X125426585Y-135462000D01*
X125426214Y-135764155D01*
X125406128Y-135832251D01*
X125352416Y-135878678D01*
X125300214Y-135890000D01*
X111476252Y-135890000D01*
X111471756Y-135889839D01*
X111198354Y-135870285D01*
X111180560Y-135867726D01*
X110919345Y-135810902D01*
X110902095Y-135805838D01*
X110651613Y-135712413D01*
X110635261Y-135704945D01*
X110400625Y-135576824D01*
X110385501Y-135567104D01*
X110171490Y-135406897D01*
X110157904Y-135395124D01*
X109968875Y-135206095D01*
X109957102Y-135192509D01*
X109796895Y-134978498D01*
X109787175Y-134963374D01*
X109659054Y-134728738D01*
X109651589Y-134712392D01*
X109558158Y-134461896D01*
X109553097Y-134444654D01*
X109496273Y-134183439D01*
X109493714Y-134165645D01*
X109474160Y-133892244D01*
X109474000Y-133887775D01*
X109474000Y-132556000D01*
X109474000Y-130556000D01*
X107474000Y-130556000D01*
X107473994Y-130556000D01*
X106396252Y-130556000D01*
X106391756Y-130555839D01*
X106118354Y-130536285D01*
X106100560Y-130533726D01*
X105839345Y-130476902D01*
X105822095Y-130471838D01*
X105571613Y-130378413D01*
X105555261Y-130370945D01*
X105320625Y-130242824D01*
X105305501Y-130233104D01*
X105091490Y-130072897D01*
X105077904Y-130061124D01*
X104888875Y-129872095D01*
X104877102Y-129858509D01*
X104716895Y-129644498D01*
X104707175Y-129629374D01*
X104579054Y-129394738D01*
X104571589Y-129378392D01*
X104478158Y-129127896D01*
X104473097Y-129110654D01*
X104434234Y-128932002D01*
X104416272Y-128849435D01*
X104413714Y-128831644D01*
X104394161Y-128558244D01*
X104394000Y-128553748D01*
X104394000Y-127732251D01*
X104394161Y-127727755D01*
X104413714Y-127454355D01*
X104416272Y-127436566D01*
X104473098Y-127175338D01*
X104478157Y-127158107D01*
X104571591Y-126907601D01*
X104579050Y-126891268D01*
X104707178Y-126656620D01*
X104716891Y-126641506D01*
X104877108Y-126427482D01*
X104888868Y-126413911D01*
X105077911Y-126224868D01*
X105091482Y-126213108D01*
X105305506Y-126052891D01*
X105320620Y-126043178D01*
X105555268Y-125915050D01*
X105571601Y-125907591D01*
X105822107Y-125814157D01*
X105839338Y-125809098D01*
X106100566Y-125752272D01*
X106118349Y-125749714D01*
X106236267Y-125741281D01*
X106391756Y-125730161D01*
X106396252Y-125730000D01*
X109377999Y-125730000D01*
X109378000Y-125730000D01*
X110744000Y-125730000D01*
X110744000Y-124363999D01*
X110763792Y-124137773D01*
X110767606Y-124116148D01*
X110823530Y-123907434D01*
X110831033Y-123886821D01*
X110922355Y-123690979D01*
X110933326Y-123671978D01*
X111057267Y-123494971D01*
X111071374Y-123478160D01*
X111224160Y-123325374D01*
X111240971Y-123311267D01*
X111417978Y-123187326D01*
X111436979Y-123176355D01*
X111632821Y-123085033D01*
X111653434Y-123077530D01*
X111862152Y-123021605D01*
X111883773Y-123017792D01*
X111964604Y-123010720D01*
X112107264Y-122998240D01*
X112112758Y-122998000D01*
X125350000Y-122998000D01*
X125418121Y-123018002D01*
G37*
G04 #@! TD.AperFunction*
G04 #@! TA.AperFunction,Conductor*
G36*
X118805015Y-119876145D02*
G01*
X118806363Y-119872894D01*
X118826000Y-119881028D01*
X118826000Y-119886000D01*
X120422456Y-119886000D01*
X120429514Y-119886395D01*
X120581460Y-119903516D01*
X120608956Y-119909792D01*
X120743220Y-119956773D01*
X120768634Y-119969012D01*
X120889081Y-120044693D01*
X120911141Y-120062286D01*
X121011713Y-120162858D01*
X121029306Y-120184918D01*
X121104987Y-120305365D01*
X121117228Y-120330784D01*
X121164205Y-120465035D01*
X121170484Y-120492544D01*
X121186410Y-120633892D01*
X121186410Y-120662106D01*
X121170484Y-120803455D01*
X121164205Y-120830964D01*
X121117228Y-120965215D01*
X121104987Y-120990634D01*
X121029306Y-121111081D01*
X121011713Y-121133141D01*
X120911141Y-121233713D01*
X120889081Y-121251306D01*
X120768634Y-121326987D01*
X120743215Y-121339228D01*
X120608964Y-121386205D01*
X120581456Y-121392484D01*
X120487658Y-121403052D01*
X120429513Y-121409604D01*
X120422456Y-121410000D01*
X111507544Y-121410000D01*
X111500486Y-121409604D01*
X111421980Y-121400758D01*
X111345873Y-121392183D01*
X111318366Y-121385904D01*
X111181574Y-121338038D01*
X111156154Y-121325797D01*
X111037601Y-121251306D01*
X111033436Y-121248689D01*
X111011379Y-121231098D01*
X110908901Y-121128620D01*
X110891311Y-121106564D01*
X110814201Y-120983844D01*
X110801961Y-120958425D01*
X110789735Y-120923486D01*
X110754094Y-120821628D01*
X110747817Y-120794132D01*
X110731589Y-120650102D01*
X110731589Y-120621893D01*
X110747817Y-120477867D01*
X110754093Y-120450373D01*
X110801961Y-120313572D01*
X110814199Y-120288158D01*
X110891314Y-120165430D01*
X110908897Y-120143383D01*
X111011383Y-120040897D01*
X111033430Y-120023314D01*
X111156158Y-119946199D01*
X111181574Y-119933961D01*
X111318373Y-119886093D01*
X111345867Y-119879817D01*
X111500485Y-119862395D01*
X111507544Y-119862000D01*
X118756839Y-119862000D01*
X118805015Y-119876145D01*
G37*
G04 #@! TD.AperFunction*
G04 #@! TA.AperFunction,Conductor*
G36*
X109197085Y-118651304D02*
G01*
X109254681Y-118656976D01*
X109376740Y-118668998D01*
X109400959Y-118673815D01*
X109564815Y-118723520D01*
X109587622Y-118732967D01*
X109713153Y-118800064D01*
X109738627Y-118813681D01*
X109759165Y-118827404D01*
X109891514Y-118936020D01*
X109908979Y-118953485D01*
X110017595Y-119085834D01*
X110031318Y-119106372D01*
X110112029Y-119257370D01*
X110121482Y-119280191D01*
X110171183Y-119444037D01*
X110176001Y-119468261D01*
X110193696Y-119647915D01*
X110194000Y-119654094D01*
X110194000Y-121457905D01*
X110193696Y-121464084D01*
X110176001Y-121643738D01*
X110171183Y-121667962D01*
X110121482Y-121831808D01*
X110112029Y-121854629D01*
X110031318Y-122005627D01*
X110017595Y-122026165D01*
X109908979Y-122158514D01*
X109891514Y-122175979D01*
X109759165Y-122284595D01*
X109738627Y-122298318D01*
X109587629Y-122379029D01*
X109564808Y-122388482D01*
X109400962Y-122438183D01*
X109376738Y-122443001D01*
X109197085Y-122460696D01*
X109190906Y-122461000D01*
X105609094Y-122461000D01*
X105602915Y-122460696D01*
X105423261Y-122443001D01*
X105399037Y-122438183D01*
X105235191Y-122388482D01*
X105212372Y-122379030D01*
X105164011Y-122353180D01*
X105061372Y-122298318D01*
X105040834Y-122284595D01*
X104908485Y-122175979D01*
X104891020Y-122158514D01*
X104782404Y-122026165D01*
X104768681Y-122005627D01*
X104755064Y-121980153D01*
X104687967Y-121854622D01*
X104678520Y-121831815D01*
X104628815Y-121667959D01*
X104623998Y-121643737D01*
X104606304Y-121464084D01*
X104606000Y-121457905D01*
X104606000Y-119654094D01*
X104606304Y-119647915D01*
X104623998Y-119468262D01*
X104623999Y-119468261D01*
X104623998Y-119468257D01*
X104628814Y-119444042D01*
X104678521Y-119280181D01*
X104687965Y-119257380D01*
X104768682Y-119106369D01*
X104782398Y-119085842D01*
X104891025Y-118953479D01*
X104908479Y-118936025D01*
X105040842Y-118827398D01*
X105061369Y-118813682D01*
X105212380Y-118732965D01*
X105235181Y-118723521D01*
X105399042Y-118673814D01*
X105423257Y-118668998D01*
X105555385Y-118655985D01*
X105602915Y-118651304D01*
X105609094Y-118651000D01*
X109190906Y-118651000D01*
X109197085Y-118651304D01*
G37*
G04 #@! TD.AperFunction*
G04 #@! TA.AperFunction,Conductor*
G36*
X109139085Y-98062304D02*
G01*
X109196681Y-98067976D01*
X109318740Y-98079998D01*
X109342959Y-98084815D01*
X109506815Y-98134520D01*
X109529622Y-98143967D01*
X109655153Y-98211064D01*
X109680627Y-98224681D01*
X109701165Y-98238404D01*
X109833514Y-98347020D01*
X109850979Y-98364485D01*
X109959595Y-98496834D01*
X109973318Y-98517372D01*
X110054029Y-98668370D01*
X110063482Y-98691191D01*
X110113183Y-98855037D01*
X110118001Y-98879261D01*
X110135696Y-99058915D01*
X110136000Y-99065094D01*
X110136000Y-100868905D01*
X110135696Y-100875084D01*
X110118001Y-101054738D01*
X110113183Y-101078962D01*
X110063482Y-101242808D01*
X110054029Y-101265629D01*
X109973318Y-101416627D01*
X109959595Y-101437165D01*
X109850979Y-101569514D01*
X109833514Y-101586979D01*
X109701165Y-101695595D01*
X109680627Y-101709318D01*
X109529629Y-101790029D01*
X109506808Y-101799482D01*
X109342962Y-101849183D01*
X109318738Y-101854001D01*
X109139085Y-101871696D01*
X109132906Y-101872000D01*
X105551094Y-101872000D01*
X105544915Y-101871696D01*
X105365261Y-101854001D01*
X105341037Y-101849183D01*
X105177191Y-101799482D01*
X105154372Y-101790030D01*
X105106011Y-101764180D01*
X105003372Y-101709318D01*
X104982834Y-101695595D01*
X104850485Y-101586979D01*
X104833020Y-101569514D01*
X104724404Y-101437165D01*
X104710681Y-101416627D01*
X104697064Y-101391153D01*
X104629967Y-101265622D01*
X104620520Y-101242815D01*
X104570815Y-101078959D01*
X104565998Y-101054737D01*
X104548304Y-100875084D01*
X104548000Y-100868905D01*
X104548000Y-99065094D01*
X104548304Y-99058915D01*
X104565998Y-98879262D01*
X104565999Y-98879261D01*
X104565998Y-98879257D01*
X104570814Y-98855042D01*
X104620521Y-98691181D01*
X104629965Y-98668380D01*
X104710682Y-98517369D01*
X104724398Y-98496842D01*
X104833025Y-98364479D01*
X104850479Y-98347025D01*
X104982842Y-98238398D01*
X105003369Y-98224682D01*
X105154380Y-98143965D01*
X105177181Y-98134521D01*
X105341042Y-98084814D01*
X105365257Y-98079998D01*
X105497385Y-98066985D01*
X105544915Y-98062304D01*
X105551094Y-98062000D01*
X109132906Y-98062000D01*
X109139085Y-98062304D01*
G37*
G04 #@! TD.AperFunction*
G04 #@! TA.AperFunction,Conductor*
G36*
X120939514Y-99124395D02*
G01*
X121091460Y-99141516D01*
X121118956Y-99147792D01*
X121253220Y-99194773D01*
X121278634Y-99207012D01*
X121399081Y-99282693D01*
X121421141Y-99300286D01*
X121521713Y-99400858D01*
X121539306Y-99422918D01*
X121614987Y-99543365D01*
X121627228Y-99568784D01*
X121674205Y-99703035D01*
X121680484Y-99730544D01*
X121696410Y-99871892D01*
X121696410Y-99900106D01*
X121680484Y-100041455D01*
X121674205Y-100068964D01*
X121627228Y-100203215D01*
X121614987Y-100228634D01*
X121539306Y-100349081D01*
X121521713Y-100371141D01*
X121421141Y-100471713D01*
X121399081Y-100489306D01*
X121278634Y-100564987D01*
X121253215Y-100577228D01*
X121118964Y-100624205D01*
X121091456Y-100630484D01*
X120997658Y-100641052D01*
X120939513Y-100647604D01*
X120932456Y-100648000D01*
X116740000Y-100648000D01*
X116740000Y-100652970D01*
X116720363Y-100661106D01*
X116718875Y-100657515D01*
X116697622Y-100669121D01*
X116670839Y-100672000D01*
X111421544Y-100672000D01*
X111414486Y-100671604D01*
X111321314Y-100661106D01*
X111259873Y-100654183D01*
X111232366Y-100647904D01*
X111095574Y-100600038D01*
X111070154Y-100587797D01*
X111008796Y-100549243D01*
X110947436Y-100510689D01*
X110925379Y-100493098D01*
X110822901Y-100390620D01*
X110805311Y-100368564D01*
X110728201Y-100245844D01*
X110715961Y-100220425D01*
X110703735Y-100185486D01*
X110668094Y-100083628D01*
X110661817Y-100056130D01*
X110645589Y-99912102D01*
X110645589Y-99883897D01*
X110661817Y-99739865D01*
X110668093Y-99712373D01*
X110715961Y-99575572D01*
X110728199Y-99550158D01*
X110805314Y-99427430D01*
X110822897Y-99405383D01*
X110925383Y-99302897D01*
X110947430Y-99285314D01*
X111070158Y-99208199D01*
X111095574Y-99195961D01*
X111098975Y-99194771D01*
X111232373Y-99148093D01*
X111259867Y-99141817D01*
X111414485Y-99124395D01*
X111421544Y-99124000D01*
X120932456Y-99124000D01*
X120939514Y-99124395D01*
G37*
G04 #@! TD.AperFunction*
G04 #@! TA.AperFunction,Conductor*
G36*
X125472121Y-84348002D02*
G01*
X125518614Y-84401658D01*
X125529999Y-84454000D01*
X125530000Y-88452374D01*
X128144000Y-88452374D01*
X128212121Y-88472376D01*
X128258614Y-88526032D01*
X128270000Y-88578374D01*
X128270000Y-91336000D01*
X128249998Y-91404121D01*
X128196342Y-91450614D01*
X128144000Y-91462000D01*
X125526000Y-91462000D01*
X125526000Y-97348000D01*
X125505998Y-97416121D01*
X125452342Y-97462614D01*
X125400000Y-97474000D01*
X111985482Y-97474000D01*
X111980537Y-97473806D01*
X111759329Y-97456397D01*
X111739800Y-97453304D01*
X111584924Y-97416121D01*
X111531275Y-97403240D01*
X111512475Y-97397131D01*
X111393860Y-97348000D01*
X111314350Y-97315066D01*
X111296733Y-97306089D01*
X111113892Y-97194043D01*
X111097897Y-97182422D01*
X110934830Y-97043150D01*
X110920849Y-97029169D01*
X110883551Y-96985499D01*
X110781577Y-96866102D01*
X110769956Y-96850107D01*
X110657910Y-96667266D01*
X110648933Y-96649649D01*
X110566865Y-96451516D01*
X110560761Y-96432732D01*
X110510693Y-96224188D01*
X110507603Y-96204679D01*
X110490000Y-95981000D01*
X110490000Y-95980999D01*
X110490000Y-94488000D01*
X108997003Y-94488000D01*
X106396252Y-94488000D01*
X106391756Y-94487839D01*
X106118354Y-94468285D01*
X106100560Y-94465726D01*
X105839345Y-94408902D01*
X105822095Y-94403838D01*
X105571613Y-94310413D01*
X105555261Y-94302945D01*
X105320625Y-94174824D01*
X105305501Y-94165104D01*
X105091490Y-94004897D01*
X105077904Y-93993124D01*
X104888875Y-93804095D01*
X104877102Y-93790509D01*
X104716895Y-93576498D01*
X104707175Y-93561374D01*
X104579054Y-93326738D01*
X104571589Y-93310392D01*
X104478158Y-93059896D01*
X104473097Y-93042654D01*
X104416273Y-92781439D01*
X104413714Y-92763644D01*
X104394161Y-92490244D01*
X104394000Y-92485748D01*
X104394000Y-91664251D01*
X104394161Y-91659755D01*
X104408304Y-91462000D01*
X104413714Y-91386349D01*
X104416272Y-91368566D01*
X104473098Y-91107338D01*
X104478157Y-91090107D01*
X104571591Y-90839601D01*
X104579050Y-90823268D01*
X104707178Y-90588620D01*
X104716891Y-90573506D01*
X104877108Y-90359482D01*
X104888868Y-90345911D01*
X105077911Y-90156868D01*
X105091482Y-90145108D01*
X105305506Y-89984891D01*
X105320620Y-89975178D01*
X105555268Y-89847050D01*
X105571601Y-89839591D01*
X105822107Y-89746157D01*
X105839338Y-89741098D01*
X106100566Y-89684272D01*
X106118349Y-89681714D01*
X106236267Y-89673281D01*
X106391756Y-89662161D01*
X106396252Y-89662000D01*
X107727994Y-89662000D01*
X107728000Y-89662000D01*
X109728000Y-89662000D01*
X109728000Y-86330251D01*
X109728161Y-86325755D01*
X109747714Y-86052355D01*
X109750272Y-86034566D01*
X109807098Y-85773338D01*
X109812157Y-85756107D01*
X109905591Y-85505601D01*
X109913050Y-85489268D01*
X110041178Y-85254620D01*
X110050891Y-85239506D01*
X110211108Y-85025482D01*
X110222868Y-85011911D01*
X110411911Y-84822868D01*
X110425482Y-84811108D01*
X110639506Y-84650891D01*
X110654620Y-84641178D01*
X110889268Y-84513050D01*
X110905601Y-84505591D01*
X111156107Y-84412157D01*
X111173338Y-84407098D01*
X111434566Y-84350272D01*
X111452349Y-84347714D01*
X111570267Y-84339281D01*
X111725756Y-84328161D01*
X111730252Y-84328000D01*
X125404000Y-84328000D01*
X125472121Y-84348002D01*
G37*
G04 #@! TD.AperFunction*
G04 #@! TA.AperFunction,Conductor*
G36*
X207899775Y-80056002D02*
G01*
X207910578Y-80056947D01*
X208325740Y-80111604D01*
X208336439Y-80113491D01*
X208745258Y-80204124D01*
X208755739Y-80206932D01*
X209155113Y-80332855D01*
X209165291Y-80336560D01*
X209552174Y-80496811D01*
X209562001Y-80501395D01*
X209747716Y-80598072D01*
X209933440Y-80694754D01*
X209942832Y-80700177D01*
X210295992Y-80925165D01*
X210304881Y-80931388D01*
X210637099Y-81186308D01*
X210645414Y-81193286D01*
X210954137Y-81476179D01*
X210961820Y-81483862D01*
X211244713Y-81792585D01*
X211251693Y-81800902D01*
X211506607Y-82133114D01*
X211512834Y-82142007D01*
X211737815Y-82495155D01*
X211743249Y-82504566D01*
X211936604Y-82875998D01*
X211941192Y-82885836D01*
X212036296Y-83115438D01*
X212101436Y-83272701D01*
X212105148Y-83282899D01*
X212185900Y-83539011D01*
X212231064Y-83682252D01*
X212233877Y-83692748D01*
X212324508Y-84101560D01*
X212326395Y-84112261D01*
X212381051Y-84527412D01*
X212381998Y-84538238D01*
X212400500Y-84962000D01*
X212400500Y-135462000D01*
X212381998Y-135885761D01*
X212381051Y-135896587D01*
X212326395Y-136311738D01*
X212324508Y-136322439D01*
X212233877Y-136731251D01*
X212231064Y-136741747D01*
X212105153Y-137141087D01*
X212101436Y-137151298D01*
X211941197Y-137538153D01*
X211936604Y-137548001D01*
X211743249Y-137919433D01*
X211737815Y-137928844D01*
X211512834Y-138281992D01*
X211506602Y-138290893D01*
X211251699Y-138623090D01*
X211244713Y-138631414D01*
X210961820Y-138940137D01*
X210954137Y-138947820D01*
X210645414Y-139230713D01*
X210637090Y-139237699D01*
X210304893Y-139492602D01*
X210295992Y-139498834D01*
X209942844Y-139723815D01*
X209933433Y-139729249D01*
X209562001Y-139922604D01*
X209552153Y-139927197D01*
X209165298Y-140087436D01*
X209155092Y-140091150D01*
X209035222Y-140128945D01*
X208755747Y-140217064D01*
X208745251Y-140219877D01*
X208336439Y-140310508D01*
X208325738Y-140312395D01*
X207910587Y-140367051D01*
X207899761Y-140367998D01*
X207476000Y-140386500D01*
X105076000Y-140386500D01*
X104652238Y-140367998D01*
X104641412Y-140367051D01*
X104226261Y-140312395D01*
X104215560Y-140310508D01*
X103806748Y-140219877D01*
X103796252Y-140217064D01*
X103653011Y-140171900D01*
X103396899Y-140091148D01*
X103386701Y-140087436D01*
X103237612Y-140025682D01*
X102999836Y-139927192D01*
X102989998Y-139922604D01*
X102618566Y-139729249D01*
X102609160Y-139723818D01*
X102408872Y-139596220D01*
X102256007Y-139498834D01*
X102247114Y-139492607D01*
X101914902Y-139237693D01*
X101906585Y-139230713D01*
X101597862Y-138947820D01*
X101590179Y-138940137D01*
X101307286Y-138631414D01*
X101300308Y-138623099D01*
X101045388Y-138290881D01*
X101039165Y-138281992D01*
X100814177Y-137928832D01*
X100808750Y-137919433D01*
X100615395Y-137548001D01*
X100610811Y-137538174D01*
X100450560Y-137151291D01*
X100446855Y-137141113D01*
X100320932Y-136741739D01*
X100318122Y-136731251D01*
X100292048Y-136613640D01*
X100227491Y-136322439D01*
X100225604Y-136311738D01*
X100221771Y-136282621D01*
X100170947Y-135896578D01*
X100170002Y-135885775D01*
X100151500Y-135462000D01*
X100151500Y-135437469D01*
X100151500Y-128562797D01*
X103888500Y-128562797D01*
X103889307Y-128585329D01*
X103910145Y-128876703D01*
X103912075Y-128894649D01*
X103917202Y-128930308D01*
X103920406Y-128948069D01*
X103981064Y-129226910D01*
X103985521Y-129244374D01*
X103995667Y-129278941D01*
X104001374Y-129296088D01*
X104101115Y-129563502D01*
X104108022Y-129580177D01*
X104122982Y-129612936D01*
X104122984Y-129612939D01*
X104131063Y-129629078D01*
X104267834Y-129879557D01*
X104277046Y-129895082D01*
X104296524Y-129925389D01*
X104306815Y-129940211D01*
X104477839Y-130168671D01*
X104489168Y-130182729D01*
X104512760Y-130209955D01*
X104525054Y-130223159D01*
X104726840Y-130424945D01*
X104740044Y-130437239D01*
X104767270Y-130460831D01*
X104781328Y-130472160D01*
X105009788Y-130643184D01*
X105024610Y-130653475D01*
X105054917Y-130672953D01*
X105064129Y-130678419D01*
X105070443Y-130682166D01*
X105320919Y-130818936D01*
X105337055Y-130827013D01*
X105369824Y-130841979D01*
X105386501Y-130848887D01*
X105545562Y-130908213D01*
X105653903Y-130948622D01*
X105671041Y-130954326D01*
X105705608Y-130964474D01*
X105723082Y-130968933D01*
X106001922Y-131029591D01*
X106014737Y-131031903D01*
X106019679Y-131032795D01*
X106046313Y-131036625D01*
X106055334Y-131037923D01*
X106073287Y-131039853D01*
X106364670Y-131060693D01*
X106387204Y-131061500D01*
X108719500Y-131061500D01*
X108814788Y-131080454D01*
X108895570Y-131134430D01*
X108949546Y-131215212D01*
X108968500Y-131310500D01*
X108968500Y-133896822D01*
X108969306Y-133919328D01*
X108990146Y-134210713D01*
X108992077Y-134228666D01*
X108997205Y-134264322D01*
X109000408Y-134282076D01*
X109061064Y-134560910D01*
X109065521Y-134578374D01*
X109075667Y-134612941D01*
X109081374Y-134630088D01*
X109181115Y-134897502D01*
X109188022Y-134914177D01*
X109202982Y-134946936D01*
X109202984Y-134946939D01*
X109211063Y-134963078D01*
X109347834Y-135213557D01*
X109357046Y-135229082D01*
X109376524Y-135259389D01*
X109386815Y-135274211D01*
X109557839Y-135502671D01*
X109569168Y-135516729D01*
X109592760Y-135543955D01*
X109605054Y-135557159D01*
X109806840Y-135758945D01*
X109820044Y-135771239D01*
X109847270Y-135794831D01*
X109861328Y-135806160D01*
X110089788Y-135977184D01*
X110104610Y-135987475D01*
X110134917Y-136006953D01*
X110144129Y-136012419D01*
X110150443Y-136016166D01*
X110400919Y-136152936D01*
X110417055Y-136161013D01*
X110449824Y-136175979D01*
X110466501Y-136182887D01*
X110625562Y-136242213D01*
X110733903Y-136282622D01*
X110751041Y-136288326D01*
X110785608Y-136298474D01*
X110803082Y-136302933D01*
X111081922Y-136363591D01*
X111094737Y-136365903D01*
X111099679Y-136366795D01*
X111126313Y-136370625D01*
X111135334Y-136371923D01*
X111153287Y-136373853D01*
X111444670Y-136394693D01*
X111467204Y-136395500D01*
X125176134Y-136395500D01*
X125271422Y-136414454D01*
X125352204Y-136468430D01*
X125406180Y-136549212D01*
X125417459Y-136605918D01*
X125425172Y-136613640D01*
X201676004Y-136614000D01*
X204470000Y-135128000D01*
X204470000Y-125984000D01*
X202438000Y-123190000D01*
X195164111Y-123190000D01*
X195068823Y-123171046D01*
X195002064Y-123130055D01*
X194904910Y-123046780D01*
X193526838Y-121865576D01*
X193466827Y-121789174D01*
X193440620Y-121695620D01*
X193452210Y-121599159D01*
X193452526Y-121598199D01*
X193452810Y-121597340D01*
X193452814Y-121597335D01*
X193507999Y-121430798D01*
X193518500Y-121328010D01*
X193518500Y-120577990D01*
X193507999Y-120475202D01*
X193506597Y-120470973D01*
X193452817Y-120308672D01*
X193452814Y-120308664D01*
X193360713Y-120159346D01*
X193360712Y-120159344D01*
X193360710Y-120159342D01*
X193360707Y-120159338D01*
X193306931Y-120105563D01*
X193252954Y-120024782D01*
X193233999Y-119929498D01*
X193233999Y-117565635D01*
X193236566Y-117529972D01*
X193237757Y-117521740D01*
X193237758Y-117521736D01*
X193237757Y-117521727D01*
X193237796Y-117520930D01*
X193237803Y-117520756D01*
X193237806Y-117520743D01*
X193234141Y-117443803D01*
X193234000Y-117437879D01*
X193234000Y-117414244D01*
X193232130Y-117394657D01*
X193231802Y-117391223D01*
X193231378Y-117385262D01*
X193227806Y-117308838D01*
X193227803Y-117308828D01*
X193227754Y-117308477D01*
X193227665Y-117307856D01*
X193227665Y-117307854D01*
X193225558Y-117299172D01*
X193219666Y-117264130D01*
X193218817Y-117255235D01*
X193197258Y-117181814D01*
X193195712Y-117176034D01*
X193177742Y-117101671D01*
X193177738Y-117101663D01*
X193177737Y-117101657D01*
X193177420Y-117100740D01*
X193177419Y-117100739D01*
X193177418Y-117100732D01*
X193173702Y-117092596D01*
X193161289Y-117059314D01*
X193158771Y-117050738D01*
X193123708Y-116982726D01*
X193121086Y-116977321D01*
X193089374Y-116907718D01*
X193088878Y-116906859D01*
X193083694Y-116899579D01*
X193065200Y-116869236D01*
X193061110Y-116861303D01*
X193061109Y-116861301D01*
X193013825Y-116801175D01*
X193010225Y-116796362D01*
X192989567Y-116767296D01*
X192965906Y-116734005D01*
X192965258Y-116733258D01*
X192965253Y-116733251D01*
X192958784Y-116727082D01*
X192934885Y-116700794D01*
X192929361Y-116693769D01*
X192871527Y-116643655D01*
X192867080Y-116639609D01*
X192811783Y-116586790D01*
X192811781Y-116586788D01*
X192811772Y-116586780D01*
X192811002Y-116586174D01*
X192803489Y-116581346D01*
X192775047Y-116560055D01*
X192768288Y-116554198D01*
X192702038Y-116515947D01*
X192696887Y-116512805D01*
X192665692Y-116492719D01*
X192632590Y-116471404D01*
X192632586Y-116471402D01*
X192632573Y-116471394D01*
X192632024Y-116471111D01*
X192631714Y-116470950D01*
X192623394Y-116467619D01*
X192591468Y-116452110D01*
X192583711Y-116447632D01*
X192511422Y-116422613D01*
X192505766Y-116420500D01*
X192434787Y-116392011D01*
X192434503Y-116391928D01*
X192433861Y-116391738D01*
X192425047Y-116390039D01*
X192390760Y-116380851D01*
X192382306Y-116377925D01*
X192306599Y-116367040D01*
X192300654Y-116366038D01*
X192273085Y-116360699D01*
X192225540Y-116351492D01*
X192225111Y-116351452D01*
X192224574Y-116351400D01*
X192224565Y-116351400D01*
X192215626Y-116351400D01*
X192180189Y-116348865D01*
X192171347Y-116347593D01*
X192094952Y-116351232D01*
X192088920Y-116351373D01*
X186232301Y-116346182D01*
X186228512Y-116346000D01*
X186224565Y-116346000D01*
X186026849Y-116346000D01*
X185971986Y-116345951D01*
X185969918Y-116346000D01*
X184274984Y-116346000D01*
X184227864Y-116341501D01*
X184197842Y-116335715D01*
X184178565Y-116332000D01*
X184178564Y-116332000D01*
X184145904Y-116332000D01*
X184131112Y-116331119D01*
X184098679Y-116327241D01*
X184098678Y-116327241D01*
X184036572Y-116331683D01*
X184027687Y-116332000D01*
X183232508Y-116332000D01*
X183137220Y-116313046D01*
X183056441Y-116259072D01*
X183027657Y-116230288D01*
X183017506Y-116224027D01*
X182998513Y-116212311D01*
X182878336Y-116138185D01*
X182711800Y-116083001D01*
X182650127Y-116076700D01*
X182609014Y-116072500D01*
X182609012Y-116072500D01*
X181883988Y-116072500D01*
X181883985Y-116072500D01*
X181822315Y-116078800D01*
X181781200Y-116083001D01*
X181614663Y-116138185D01*
X181614664Y-116138185D01*
X181465345Y-116230286D01*
X181341286Y-116354345D01*
X181269083Y-116471404D01*
X181249185Y-116503664D01*
X181194001Y-116670200D01*
X181194000Y-116670202D01*
X181194001Y-116670202D01*
X181183500Y-116772985D01*
X181183500Y-117065330D01*
X181169805Y-117146770D01*
X181157026Y-117183691D01*
X181157024Y-117183697D01*
X181126694Y-117394655D01*
X181136834Y-117607542D01*
X181136835Y-117607548D01*
X181176481Y-117770968D01*
X181183500Y-117829673D01*
X181183500Y-118123014D01*
X181185922Y-118146719D01*
X181194001Y-118225800D01*
X181249185Y-118392336D01*
X181341288Y-118541657D01*
X181465343Y-118665712D01*
X181614664Y-118757815D01*
X181781200Y-118812999D01*
X181883988Y-118823500D01*
X181883997Y-118823500D01*
X182609003Y-118823500D01*
X182609012Y-118823500D01*
X182711800Y-118812999D01*
X182878336Y-118757815D01*
X183027657Y-118665712D01*
X183056441Y-118636927D01*
X183137220Y-118582954D01*
X183232508Y-118564000D01*
X183883021Y-118564000D01*
X183930144Y-118568499D01*
X183979435Y-118578000D01*
X184012096Y-118578000D01*
X184026887Y-118578880D01*
X184059321Y-118582759D01*
X184113413Y-118578890D01*
X184121428Y-118578317D01*
X184130313Y-118578000D01*
X186025612Y-118578000D01*
X190753223Y-118582190D01*
X190848492Y-118601229D01*
X190929226Y-118655277D01*
X190983130Y-118736106D01*
X191002000Y-118831190D01*
X191002000Y-119929492D01*
X190983046Y-120024780D01*
X190929070Y-120105562D01*
X190875289Y-120159342D01*
X190875286Y-120159346D01*
X190783185Y-120308664D01*
X190783182Y-120308672D01*
X190728003Y-120475193D01*
X190728001Y-120475203D01*
X190717500Y-120577987D01*
X190717500Y-121328015D01*
X190724006Y-121391694D01*
X190714834Y-121488416D01*
X190669347Y-121574264D01*
X190594469Y-121636171D01*
X190501601Y-121664711D01*
X190476295Y-121666000D01*
X188467999Y-121666000D01*
X186756150Y-122940740D01*
X186668404Y-122982449D01*
X186607523Y-122990029D01*
X126153230Y-123011755D01*
X126057936Y-122992835D01*
X125977135Y-122938888D01*
X125928525Y-122870219D01*
X125924435Y-122861671D01*
X125924433Y-122861668D01*
X125924433Y-122861667D01*
X125846646Y-122740627D01*
X125846644Y-122740624D01*
X125824151Y-122714666D01*
X125802338Y-122689493D01*
X125800550Y-122687313D01*
X125691417Y-122592749D01*
X125691415Y-122592748D01*
X125560544Y-122532981D01*
X125560538Y-122532979D01*
X125560536Y-122532978D01*
X125492415Y-122512976D01*
X125350000Y-122492500D01*
X112101722Y-122492500D01*
X112101721Y-122492500D01*
X112074189Y-122493703D01*
X111828726Y-122515177D01*
X111806846Y-122518058D01*
X111763499Y-122525702D01*
X111741969Y-122530475D01*
X111673133Y-122548919D01*
X111616796Y-122564015D01*
X111552352Y-122572500D01*
X110953982Y-122572500D01*
X110845106Y-122583623D01*
X110748385Y-122574451D01*
X110662536Y-122528963D01*
X110600630Y-122454085D01*
X110572090Y-122361217D01*
X110581262Y-122264496D01*
X110583422Y-122257643D01*
X110589999Y-122237797D01*
X110600500Y-122135009D01*
X110600499Y-122031031D01*
X110611219Y-121958755D01*
X110611221Y-121958749D01*
X110615317Y-121945245D01*
X110661113Y-121859564D01*
X110736214Y-121797928D01*
X110829185Y-121769724D01*
X110925872Y-121779244D01*
X110961627Y-121793180D01*
X110975028Y-121799633D01*
X111001229Y-121810486D01*
X111001230Y-121810486D01*
X111001232Y-121810487D01*
X111071381Y-121835033D01*
X111164789Y-121867719D01*
X111164790Y-121867719D01*
X111164793Y-121867720D01*
X111192038Y-121875570D01*
X111192037Y-121875570D01*
X111192042Y-121875571D01*
X111192045Y-121875572D01*
X111247207Y-121888163D01*
X111247215Y-121888164D01*
X111247216Y-121888165D01*
X111267759Y-121891655D01*
X111275177Y-121892916D01*
X111450939Y-121912720D01*
X111458011Y-121913316D01*
X111465082Y-121913913D01*
X111472155Y-121914309D01*
X111486299Y-121915103D01*
X111500460Y-121915500D01*
X111500463Y-121915500D01*
X120429539Y-121915500D01*
X120429541Y-121915500D01*
X120443704Y-121915103D01*
X120454311Y-121914507D01*
X120464920Y-121913912D01*
X120471989Y-121913316D01*
X120479060Y-121912720D01*
X120652150Y-121893217D01*
X120658925Y-121892065D01*
X120680110Y-121888467D01*
X120681438Y-121888164D01*
X120735282Y-121875873D01*
X120762536Y-121868021D01*
X120762534Y-121868022D01*
X120923543Y-121811682D01*
X120923545Y-121811682D01*
X120949765Y-121800822D01*
X120949763Y-121800823D01*
X121000732Y-121776277D01*
X121000733Y-121776276D01*
X121000738Y-121776274D01*
X121025556Y-121762558D01*
X121025555Y-121762559D01*
X121025565Y-121762553D01*
X121163259Y-121676035D01*
X121254025Y-121641389D01*
X121270420Y-121639161D01*
X121281800Y-121637999D01*
X121448336Y-121582815D01*
X121597657Y-121490712D01*
X121721712Y-121366657D01*
X121813815Y-121217336D01*
X121868999Y-121050800D01*
X121879500Y-120948012D01*
X121879500Y-120222988D01*
X121868999Y-120120200D01*
X121813815Y-119953664D01*
X121721712Y-119804343D01*
X121597657Y-119680288D01*
X121448336Y-119588185D01*
X121281800Y-119533001D01*
X121220127Y-119526700D01*
X121179014Y-119522500D01*
X121179012Y-119522500D01*
X121063334Y-119522500D01*
X120968046Y-119503546D01*
X120955312Y-119497848D01*
X120949773Y-119495181D01*
X120949774Y-119495181D01*
X120949769Y-119495179D01*
X120949766Y-119495178D01*
X120940322Y-119491266D01*
X120923575Y-119484329D01*
X120869705Y-119465479D01*
X120854124Y-119460027D01*
X120762538Y-119427979D01*
X120762536Y-119427978D01*
X120735273Y-119420123D01*
X120735274Y-119420124D01*
X120680127Y-119407536D01*
X120680120Y-119407535D01*
X120652155Y-119402783D01*
X120479044Y-119383277D01*
X120464864Y-119382082D01*
X120443647Y-119380895D01*
X120429522Y-119380500D01*
X120429519Y-119380500D01*
X118941579Y-119380500D01*
X118906145Y-119377966D01*
X118899250Y-119376974D01*
X118899248Y-119376974D01*
X118756839Y-119356500D01*
X111500479Y-119356500D01*
X111486356Y-119356895D01*
X111465138Y-119358082D01*
X111456171Y-119358837D01*
X111450952Y-119359277D01*
X111275169Y-119379084D01*
X111275167Y-119379084D01*
X111247211Y-119383835D01*
X111247209Y-119383835D01*
X111247201Y-119383837D01*
X111192053Y-119396425D01*
X111192049Y-119396426D01*
X111192051Y-119396425D01*
X111164803Y-119404276D01*
X111164802Y-119404276D01*
X111164801Y-119404277D01*
X111001237Y-119461510D01*
X111001230Y-119461513D01*
X111001228Y-119461513D01*
X110991632Y-119465487D01*
X110896343Y-119484437D01*
X110801056Y-119465479D01*
X110720277Y-119411498D01*
X110666305Y-119330714D01*
X110658079Y-119307725D01*
X110601614Y-119121578D01*
X110593251Y-119098207D01*
X110574300Y-119052455D01*
X110574302Y-119052458D01*
X110563701Y-119030046D01*
X110563689Y-119030020D01*
X110471279Y-118857136D01*
X110458520Y-118835849D01*
X110431009Y-118794676D01*
X110431005Y-118794670D01*
X110416230Y-118774748D01*
X110416232Y-118774750D01*
X110291862Y-118623206D01*
X110275196Y-118604817D01*
X110240182Y-118569803D01*
X110221793Y-118553137D01*
X110221796Y-118553139D01*
X110070249Y-118428767D01*
X110070250Y-118428768D01*
X110050324Y-118413991D01*
X110050322Y-118413989D01*
X110009154Y-118386482D01*
X110009156Y-118386483D01*
X109987857Y-118373717D01*
X109987856Y-118373716D01*
X109814966Y-118281304D01*
X109814967Y-118281305D01*
X109792544Y-118270699D01*
X109785843Y-118267923D01*
X109746797Y-118251750D01*
X109723429Y-118243389D01*
X109535820Y-118186479D01*
X109519836Y-118182475D01*
X109511746Y-118180448D01*
X109511747Y-118180448D01*
X109463185Y-118170789D01*
X109463182Y-118170789D01*
X109463180Y-118170789D01*
X109438634Y-118167148D01*
X109438623Y-118167146D01*
X109438617Y-118167146D01*
X109438615Y-118167146D01*
X109240467Y-118147631D01*
X109228112Y-118146719D01*
X109209541Y-118145805D01*
X109197121Y-118145500D01*
X109197119Y-118145500D01*
X105602881Y-118145500D01*
X105602879Y-118145500D01*
X105590458Y-118145805D01*
X105590459Y-118145805D01*
X105571888Y-118146719D01*
X105565711Y-118147175D01*
X105559533Y-118147631D01*
X105361374Y-118167147D01*
X105361372Y-118167147D01*
X105336816Y-118170788D01*
X105336819Y-118170788D01*
X105311853Y-118175753D01*
X105288262Y-118180446D01*
X105264181Y-118186478D01*
X105076569Y-118243389D01*
X105053205Y-118251749D01*
X105007474Y-118270690D01*
X105007475Y-118270690D01*
X104985045Y-118281298D01*
X104985046Y-118281297D01*
X104985033Y-118281303D01*
X104985035Y-118281303D01*
X104812133Y-118373721D01*
X104812130Y-118373723D01*
X104812130Y-118373722D01*
X104790848Y-118386479D01*
X104790843Y-118386482D01*
X104783100Y-118391656D01*
X104749670Y-118413993D01*
X104729754Y-118428764D01*
X104729755Y-118428764D01*
X104729748Y-118428769D01*
X104592197Y-118541654D01*
X104578201Y-118553140D01*
X104578199Y-118553142D01*
X104559820Y-118569799D01*
X104524799Y-118604820D01*
X104522086Y-118607814D01*
X104508140Y-118623201D01*
X104383769Y-118774748D01*
X104383764Y-118774755D01*
X104383764Y-118774754D01*
X104368993Y-118794670D01*
X104368986Y-118794680D01*
X104356746Y-118812999D01*
X104341480Y-118835846D01*
X104328722Y-118857130D01*
X104328723Y-118857130D01*
X104328721Y-118857133D01*
X104296549Y-118917323D01*
X104236297Y-119030046D01*
X104236298Y-119030045D01*
X104225690Y-119052475D01*
X104206749Y-119098205D01*
X104198389Y-119121569D01*
X104141478Y-119309181D01*
X104135446Y-119333262D01*
X104135444Y-119333271D01*
X104135444Y-119333272D01*
X104135444Y-119333273D01*
X104125788Y-119381819D01*
X104122147Y-119406372D01*
X104122147Y-119406374D01*
X104102631Y-119604531D01*
X104102631Y-119604534D01*
X104101719Y-119616888D01*
X104100805Y-119635459D01*
X104100500Y-119647881D01*
X104100500Y-121464118D01*
X104100805Y-121476540D01*
X104101502Y-121490712D01*
X104101719Y-121495110D01*
X104102631Y-121507466D01*
X104122146Y-121705613D01*
X104122146Y-121705614D01*
X104125789Y-121730182D01*
X104135445Y-121778733D01*
X104141478Y-121802817D01*
X104188779Y-121958749D01*
X104199500Y-122031026D01*
X104199500Y-122135005D01*
X104210001Y-122237800D01*
X104250898Y-122361217D01*
X104265186Y-122404334D01*
X104319567Y-122492500D01*
X104332196Y-122512976D01*
X104357288Y-122553656D01*
X104481344Y-122677712D01*
X104630666Y-122769814D01*
X104630669Y-122769815D01*
X104630667Y-122769815D01*
X104794310Y-122824040D01*
X104797203Y-122824999D01*
X104899991Y-122835500D01*
X104943919Y-122835499D01*
X105039202Y-122854450D01*
X105049239Y-122858607D01*
X105053213Y-122860254D01*
X105053210Y-122860253D01*
X105066399Y-122864971D01*
X105076579Y-122868614D01*
X105110930Y-122879034D01*
X105264166Y-122925517D01*
X105264168Y-122925517D01*
X105264178Y-122925520D01*
X105276063Y-122928497D01*
X105288241Y-122931548D01*
X105288238Y-122931547D01*
X105288243Y-122931547D01*
X105288255Y-122931551D01*
X105336820Y-122941210D01*
X105336827Y-122941211D01*
X105336837Y-122941213D01*
X105336834Y-122941212D01*
X105361365Y-122944851D01*
X105531825Y-122961640D01*
X105559530Y-122964369D01*
X105565709Y-122964825D01*
X105571887Y-122965281D01*
X105590459Y-122966195D01*
X105602879Y-122966500D01*
X105602881Y-122966500D01*
X109197121Y-122966500D01*
X109209541Y-122966195D01*
X109209540Y-122966195D01*
X109228113Y-122965281D01*
X109234291Y-122964825D01*
X109240470Y-122964369D01*
X109264776Y-122961974D01*
X109438634Y-122944851D01*
X109463164Y-122941212D01*
X109463162Y-122941213D01*
X109463171Y-122941211D01*
X109463179Y-122941210D01*
X109511744Y-122931551D01*
X109511755Y-122931547D01*
X109511761Y-122931547D01*
X109511758Y-122931548D01*
X109523935Y-122928497D01*
X109535821Y-122925520D01*
X109535831Y-122925517D01*
X109535833Y-122925517D01*
X109639626Y-122894031D01*
X109723421Y-122868614D01*
X109746792Y-122860251D01*
X109746799Y-122860248D01*
X109746800Y-122860248D01*
X109760791Y-122854453D01*
X109856078Y-122835499D01*
X109900004Y-122835499D01*
X109900008Y-122835499D01*
X110002797Y-122824999D01*
X110002802Y-122824997D01*
X110008892Y-122824375D01*
X110105613Y-122833547D01*
X110191462Y-122879034D01*
X110253369Y-122953911D01*
X110281909Y-123046780D01*
X110272737Y-123143501D01*
X110270561Y-123150402D01*
X110264003Y-123170193D01*
X110264001Y-123170203D01*
X110253500Y-123272987D01*
X110253500Y-124022999D01*
X110253501Y-124023026D01*
X110258049Y-124067551D01*
X110258391Y-124114551D01*
X110239462Y-124330930D01*
X110238500Y-124352970D01*
X110238499Y-124893346D01*
X110219545Y-124988635D01*
X110165568Y-125069416D01*
X110084787Y-125123392D01*
X109989499Y-125142346D01*
X109964194Y-125141057D01*
X109918591Y-125136398D01*
X109900009Y-125134500D01*
X109900008Y-125134500D01*
X104899993Y-125134500D01*
X104797199Y-125145001D01*
X104630667Y-125200185D01*
X104481346Y-125292286D01*
X104357286Y-125416346D01*
X104265184Y-125565668D01*
X104210002Y-125732197D01*
X104210001Y-125732204D01*
X104199500Y-125834988D01*
X104199499Y-125835000D01*
X104199499Y-126468032D01*
X104180545Y-126563321D01*
X104169043Y-126587361D01*
X104131060Y-126656926D01*
X104122980Y-126673067D01*
X104108023Y-126705816D01*
X104102301Y-126719629D01*
X104101116Y-126722492D01*
X104001374Y-126989911D01*
X103995673Y-127007042D01*
X103985529Y-127041590D01*
X103981068Y-127059072D01*
X103920406Y-127337931D01*
X103917203Y-127355687D01*
X103912076Y-127391341D01*
X103910146Y-127409291D01*
X103891046Y-127676352D01*
X103889307Y-127700670D01*
X103888500Y-127723202D01*
X103888500Y-128562797D01*
X100151500Y-128562797D01*
X100151500Y-117462004D01*
X127045783Y-117462004D01*
X127064621Y-117701372D01*
X127064622Y-117701379D01*
X127120676Y-117934862D01*
X127120677Y-117934863D01*
X127212567Y-118156704D01*
X127338028Y-118361439D01*
X127493973Y-118544027D01*
X127676561Y-118699972D01*
X127881296Y-118825433D01*
X128103135Y-118917322D01*
X128103137Y-118917323D01*
X128336620Y-118973377D01*
X128336627Y-118973378D01*
X128575996Y-118992217D01*
X128576000Y-118992217D01*
X128576004Y-118992217D01*
X128815372Y-118973378D01*
X128815379Y-118973377D01*
X129048863Y-118917323D01*
X129270704Y-118825433D01*
X129475439Y-118699972D01*
X129548397Y-118637659D01*
X129633164Y-118590187D01*
X129710110Y-118578000D01*
X134295435Y-118578000D01*
X136781435Y-118578000D01*
X139013435Y-118578000D01*
X141045435Y-118578000D01*
X142019492Y-118578000D01*
X142114780Y-118596954D01*
X142195558Y-118650927D01*
X142210343Y-118665712D01*
X142359664Y-118757815D01*
X142526200Y-118812999D01*
X142628988Y-118823500D01*
X142628997Y-118823500D01*
X143354003Y-118823500D01*
X143354012Y-118823500D01*
X143456800Y-118812999D01*
X143623336Y-118757815D01*
X143772657Y-118665712D01*
X143896712Y-118541657D01*
X143988815Y-118392336D01*
X144043999Y-118225800D01*
X144054500Y-118123012D01*
X144054500Y-117826660D01*
X144066323Y-117750846D01*
X144082135Y-117701379D01*
X144086955Y-117686302D01*
X144112259Y-117474679D01*
X144111352Y-117462004D01*
X144106535Y-117394655D01*
X144796694Y-117394655D01*
X144806834Y-117607542D01*
X144806835Y-117607548D01*
X144846481Y-117770968D01*
X144853500Y-117829673D01*
X144853500Y-118123014D01*
X144855922Y-118146719D01*
X144864001Y-118225800D01*
X144919185Y-118392336D01*
X145011288Y-118541657D01*
X145135343Y-118665712D01*
X145284664Y-118757815D01*
X145451200Y-118812999D01*
X145553988Y-118823500D01*
X145553997Y-118823500D01*
X146279003Y-118823500D01*
X146279012Y-118823500D01*
X146381800Y-118812999D01*
X146548336Y-118757815D01*
X146697657Y-118665712D01*
X146726441Y-118636927D01*
X146807220Y-118582954D01*
X146902508Y-118564000D01*
X147553021Y-118564000D01*
X147600144Y-118568499D01*
X147649435Y-118578000D01*
X147682096Y-118578000D01*
X147696887Y-118578880D01*
X147729321Y-118582759D01*
X147783413Y-118578890D01*
X147791428Y-118578317D01*
X147800313Y-118578000D01*
X149681435Y-118578000D01*
X151413435Y-118578000D01*
X153299435Y-118578000D01*
X154473492Y-118578000D01*
X154568780Y-118596954D01*
X154649558Y-118650927D01*
X154664343Y-118665712D01*
X154813664Y-118757815D01*
X154980200Y-118812999D01*
X155082988Y-118823500D01*
X155082997Y-118823500D01*
X155808003Y-118823500D01*
X155808012Y-118823500D01*
X155910800Y-118812999D01*
X156077336Y-118757815D01*
X156226657Y-118665712D01*
X156350712Y-118541657D01*
X156442815Y-118392336D01*
X156497999Y-118225800D01*
X156508500Y-118123012D01*
X156508500Y-117826660D01*
X156520323Y-117750846D01*
X156536135Y-117701379D01*
X156540955Y-117686302D01*
X156566259Y-117474679D01*
X156565352Y-117462004D01*
X156560535Y-117394655D01*
X157250694Y-117394655D01*
X157260834Y-117607542D01*
X157260835Y-117607548D01*
X157300481Y-117770968D01*
X157307500Y-117829673D01*
X157307500Y-118123014D01*
X157309922Y-118146719D01*
X157318001Y-118225800D01*
X157373185Y-118392336D01*
X157465288Y-118541657D01*
X157589343Y-118665712D01*
X157738664Y-118757815D01*
X157905200Y-118812999D01*
X158007988Y-118823500D01*
X158007997Y-118823500D01*
X158733003Y-118823500D01*
X158733012Y-118823500D01*
X158835800Y-118812999D01*
X159002336Y-118757815D01*
X159151657Y-118665712D01*
X159180441Y-118636927D01*
X159261220Y-118582954D01*
X159356508Y-118564000D01*
X160007021Y-118564000D01*
X160054144Y-118568499D01*
X160103435Y-118578000D01*
X160136096Y-118578000D01*
X160150887Y-118578880D01*
X160183321Y-118582759D01*
X160237413Y-118578890D01*
X160245428Y-118578317D01*
X160254313Y-118578000D01*
X162135435Y-118578000D01*
X163397713Y-118578000D01*
X163493001Y-118596954D01*
X163503271Y-118602206D01*
X163503516Y-118601683D01*
X163516659Y-118607811D01*
X163516663Y-118607812D01*
X163516666Y-118607814D01*
X163683203Y-118662999D01*
X163785991Y-118673500D01*
X164386008Y-118673499D01*
X164488797Y-118662999D01*
X164655334Y-118607814D01*
X164804656Y-118515712D01*
X164859931Y-118460436D01*
X164940709Y-118406462D01*
X165035997Y-118387507D01*
X165131285Y-118406460D01*
X165212067Y-118460436D01*
X165267343Y-118515711D01*
X165267344Y-118515712D01*
X165416666Y-118607814D01*
X165416669Y-118607815D01*
X165416667Y-118607815D01*
X165580310Y-118662040D01*
X165583203Y-118662999D01*
X165685991Y-118673500D01*
X166286008Y-118673499D01*
X166388797Y-118662999D01*
X166555334Y-118607814D01*
X166566266Y-118601070D01*
X166657318Y-118567180D01*
X166696984Y-118564000D01*
X168739435Y-118564000D01*
X170995016Y-118564000D01*
X171090304Y-118582954D01*
X171125732Y-118601070D01*
X171136666Y-118607814D01*
X171136669Y-118607815D01*
X171136667Y-118607815D01*
X171300310Y-118662040D01*
X171303203Y-118662999D01*
X171405991Y-118673500D01*
X172006008Y-118673499D01*
X172108797Y-118662999D01*
X172275334Y-118607814D01*
X172424656Y-118515712D01*
X172479931Y-118460436D01*
X172560709Y-118406462D01*
X172655997Y-118387507D01*
X172751285Y-118406460D01*
X172832067Y-118460436D01*
X172887343Y-118515711D01*
X172887344Y-118515712D01*
X173036666Y-118607814D01*
X173036669Y-118607815D01*
X173036667Y-118607815D01*
X173200310Y-118662040D01*
X173203203Y-118662999D01*
X173305991Y-118673500D01*
X173906008Y-118673499D01*
X174008797Y-118662999D01*
X174175334Y-118607814D01*
X174186266Y-118601070D01*
X174277318Y-118567180D01*
X174316984Y-118564000D01*
X175247021Y-118564000D01*
X175294144Y-118568499D01*
X175343435Y-118578000D01*
X175376096Y-118578000D01*
X175390887Y-118578880D01*
X175423321Y-118582759D01*
X175477413Y-118578890D01*
X175485428Y-118578317D01*
X175494313Y-118578000D01*
X177375435Y-118578000D01*
X178349492Y-118578000D01*
X178444780Y-118596954D01*
X178525558Y-118650927D01*
X178540343Y-118665712D01*
X178689664Y-118757815D01*
X178856200Y-118812999D01*
X178958988Y-118823500D01*
X178958997Y-118823500D01*
X179684003Y-118823500D01*
X179684012Y-118823500D01*
X179786800Y-118812999D01*
X179953336Y-118757815D01*
X180102657Y-118665712D01*
X180226712Y-118541657D01*
X180318815Y-118392336D01*
X180373999Y-118225800D01*
X180384500Y-118123012D01*
X180384500Y-117826660D01*
X180396323Y-117750846D01*
X180412135Y-117701379D01*
X180416955Y-117686302D01*
X180442259Y-117474679D01*
X180441352Y-117462004D01*
X180427054Y-117262093D01*
X180427053Y-117262090D01*
X180425216Y-117255235D01*
X180392983Y-117134939D01*
X180384500Y-117070494D01*
X180384500Y-116772997D01*
X180384500Y-116772988D01*
X180373999Y-116670200D01*
X180318815Y-116503664D01*
X180226712Y-116354343D01*
X180102657Y-116230288D01*
X180092506Y-116224027D01*
X180073513Y-116212311D01*
X179953336Y-116138185D01*
X179786800Y-116083001D01*
X179725127Y-116076700D01*
X179684014Y-116072500D01*
X179684012Y-116072500D01*
X178958988Y-116072500D01*
X178958985Y-116072500D01*
X178897315Y-116078800D01*
X178856200Y-116083001D01*
X178689664Y-116138185D01*
X178540345Y-116230286D01*
X178540343Y-116230287D01*
X178540343Y-116230288D01*
X178497558Y-116273072D01*
X178416780Y-116327046D01*
X178321492Y-116346000D01*
X175638984Y-116346000D01*
X175591864Y-116341501D01*
X175561842Y-116335715D01*
X175542565Y-116332000D01*
X175542564Y-116332000D01*
X175509904Y-116332000D01*
X175495112Y-116331119D01*
X175462679Y-116327241D01*
X175462678Y-116327241D01*
X175400572Y-116331683D01*
X175391687Y-116332000D01*
X174316984Y-116332000D01*
X174221696Y-116313046D01*
X174186266Y-116294929D01*
X174175334Y-116288186D01*
X174175332Y-116288185D01*
X174175330Y-116288184D01*
X174175332Y-116288184D01*
X174008802Y-116233002D01*
X174008798Y-116233001D01*
X174008797Y-116233001D01*
X173906009Y-116222500D01*
X173906005Y-116222500D01*
X173305993Y-116222500D01*
X173203199Y-116233001D01*
X173036667Y-116288185D01*
X172887343Y-116380288D01*
X172832068Y-116435563D01*
X172751286Y-116489539D01*
X172655998Y-116508492D01*
X172560710Y-116489537D01*
X172479932Y-116435563D01*
X172424656Y-116380288D01*
X172371650Y-116347594D01*
X172275334Y-116288186D01*
X172275332Y-116288185D01*
X172275330Y-116288184D01*
X172275332Y-116288184D01*
X172108802Y-116233002D01*
X172108798Y-116233001D01*
X172108797Y-116233001D01*
X172006009Y-116222500D01*
X172006005Y-116222500D01*
X171405993Y-116222500D01*
X171303199Y-116233001D01*
X171136667Y-116288185D01*
X171125734Y-116294929D01*
X171034682Y-116328820D01*
X170995016Y-116332000D01*
X170338868Y-116332000D01*
X170268906Y-116319377D01*
X170268643Y-116320491D01*
X170253485Y-116316909D01*
X170193873Y-116310500D01*
X167558134Y-116310500D01*
X167558130Y-116310500D01*
X167558128Y-116310501D01*
X167545313Y-116311878D01*
X167498519Y-116316908D01*
X167483361Y-116320491D01*
X167483097Y-116319377D01*
X167413132Y-116332000D01*
X166696984Y-116332000D01*
X166601696Y-116313046D01*
X166566266Y-116294929D01*
X166555334Y-116288186D01*
X166555332Y-116288185D01*
X166555330Y-116288184D01*
X166555332Y-116288184D01*
X166388802Y-116233002D01*
X166388798Y-116233001D01*
X166388797Y-116233001D01*
X166286009Y-116222500D01*
X166286005Y-116222500D01*
X165685993Y-116222500D01*
X165583199Y-116233001D01*
X165416667Y-116288185D01*
X165267343Y-116380288D01*
X165212068Y-116435563D01*
X165131286Y-116489539D01*
X165035998Y-116508492D01*
X164940710Y-116489537D01*
X164859932Y-116435563D01*
X164804656Y-116380288D01*
X164751650Y-116347594D01*
X164655334Y-116288186D01*
X164655332Y-116288185D01*
X164655330Y-116288184D01*
X164655332Y-116288184D01*
X164488802Y-116233002D01*
X164488798Y-116233001D01*
X164488797Y-116233001D01*
X164386009Y-116222500D01*
X164386005Y-116222500D01*
X163785993Y-116222500D01*
X163683199Y-116233001D01*
X163516665Y-116288185D01*
X163516664Y-116288186D01*
X163483035Y-116308929D01*
X163391983Y-116342820D01*
X163352318Y-116346000D01*
X160398984Y-116346000D01*
X160351864Y-116341501D01*
X160321842Y-116335715D01*
X160302565Y-116332000D01*
X160302564Y-116332000D01*
X160269904Y-116332000D01*
X160255112Y-116331119D01*
X160222679Y-116327241D01*
X160222678Y-116327241D01*
X160160572Y-116331683D01*
X160151687Y-116332000D01*
X159356508Y-116332000D01*
X159261220Y-116313046D01*
X159180441Y-116259072D01*
X159151657Y-116230288D01*
X159141506Y-116224027D01*
X159122513Y-116212311D01*
X159002336Y-116138185D01*
X158835800Y-116083001D01*
X158774127Y-116076700D01*
X158733014Y-116072500D01*
X158733012Y-116072500D01*
X158007988Y-116072500D01*
X158007985Y-116072500D01*
X157946315Y-116078800D01*
X157905200Y-116083001D01*
X157738663Y-116138185D01*
X157738664Y-116138185D01*
X157589345Y-116230286D01*
X157465286Y-116354345D01*
X157393083Y-116471404D01*
X157373185Y-116503664D01*
X157318001Y-116670200D01*
X157318000Y-116670202D01*
X157318001Y-116670202D01*
X157307500Y-116772985D01*
X157307500Y-117065330D01*
X157293805Y-117146770D01*
X157281026Y-117183691D01*
X157281024Y-117183697D01*
X157250694Y-117394655D01*
X156560535Y-117394655D01*
X156551054Y-117262093D01*
X156551053Y-117262090D01*
X156549216Y-117255235D01*
X156516983Y-117134939D01*
X156508500Y-117070494D01*
X156508500Y-116772997D01*
X156508500Y-116772988D01*
X156497999Y-116670200D01*
X156442815Y-116503664D01*
X156350712Y-116354343D01*
X156226657Y-116230288D01*
X156216506Y-116224027D01*
X156197513Y-116212311D01*
X156077336Y-116138185D01*
X155910800Y-116083001D01*
X155849127Y-116076700D01*
X155808014Y-116072500D01*
X155808012Y-116072500D01*
X155082988Y-116072500D01*
X155082985Y-116072500D01*
X155021315Y-116078800D01*
X154980200Y-116083001D01*
X154813664Y-116138185D01*
X154664345Y-116230286D01*
X154664343Y-116230287D01*
X154664343Y-116230288D01*
X154621558Y-116273072D01*
X154540780Y-116327046D01*
X154445492Y-116346000D01*
X147944984Y-116346000D01*
X147897864Y-116341501D01*
X147867842Y-116335715D01*
X147848565Y-116332000D01*
X147848564Y-116332000D01*
X147815904Y-116332000D01*
X147801112Y-116331119D01*
X147768679Y-116327241D01*
X147768678Y-116327241D01*
X147706572Y-116331683D01*
X147697687Y-116332000D01*
X146902508Y-116332000D01*
X146807220Y-116313046D01*
X146726441Y-116259072D01*
X146697657Y-116230288D01*
X146687506Y-116224027D01*
X146668513Y-116212311D01*
X146548336Y-116138185D01*
X146381800Y-116083001D01*
X146320127Y-116076700D01*
X146279014Y-116072500D01*
X146279012Y-116072500D01*
X145553988Y-116072500D01*
X145553985Y-116072500D01*
X145492315Y-116078800D01*
X145451200Y-116083001D01*
X145284663Y-116138185D01*
X145284664Y-116138185D01*
X145135345Y-116230286D01*
X145011286Y-116354345D01*
X144939083Y-116471404D01*
X144919185Y-116503664D01*
X144864001Y-116670200D01*
X144864000Y-116670202D01*
X144864001Y-116670202D01*
X144853500Y-116772985D01*
X144853500Y-117065330D01*
X144839805Y-117146770D01*
X144827026Y-117183691D01*
X144827024Y-117183697D01*
X144796694Y-117394655D01*
X144106535Y-117394655D01*
X144097054Y-117262093D01*
X144097053Y-117262090D01*
X144095216Y-117255235D01*
X144062983Y-117134939D01*
X144054500Y-117070494D01*
X144054500Y-116772997D01*
X144054500Y-116772988D01*
X144043999Y-116670200D01*
X143988815Y-116503664D01*
X143896712Y-116354343D01*
X143772657Y-116230288D01*
X143762506Y-116224027D01*
X143743513Y-116212311D01*
X143623336Y-116138185D01*
X143456800Y-116083001D01*
X143395127Y-116076700D01*
X143354014Y-116072500D01*
X143354012Y-116072500D01*
X142628988Y-116072500D01*
X142628985Y-116072500D01*
X142567315Y-116078800D01*
X142526200Y-116083001D01*
X142359664Y-116138185D01*
X142210345Y-116230286D01*
X142210343Y-116230287D01*
X142210343Y-116230288D01*
X142167558Y-116273072D01*
X142086780Y-116327046D01*
X141991492Y-116346000D01*
X129710110Y-116346000D01*
X129614822Y-116327046D01*
X129548397Y-116286340D01*
X129475441Y-116224029D01*
X129335355Y-116138185D01*
X129270704Y-116098567D01*
X129159783Y-116052622D01*
X129048864Y-116006677D01*
X129048862Y-116006676D01*
X128815379Y-115950622D01*
X128815372Y-115950621D01*
X128576004Y-115931783D01*
X128575996Y-115931783D01*
X128336627Y-115950621D01*
X128336620Y-115950622D01*
X128103137Y-116006676D01*
X128103135Y-116006677D01*
X127881296Y-116098567D01*
X127676562Y-116224027D01*
X127493976Y-116379970D01*
X127493970Y-116379976D01*
X127338027Y-116562562D01*
X127212567Y-116767296D01*
X127120677Y-116989135D01*
X127120676Y-116989137D01*
X127064622Y-117222620D01*
X127064621Y-117222627D01*
X127045783Y-117461995D01*
X127045783Y-117462004D01*
X100151500Y-117462004D01*
X100151500Y-103005504D01*
X127045783Y-103005504D01*
X127064621Y-103244872D01*
X127064622Y-103244879D01*
X127120676Y-103478362D01*
X127120677Y-103478364D01*
X127166088Y-103587995D01*
X127212567Y-103700204D01*
X127338028Y-103904939D01*
X127493973Y-104087527D01*
X127676561Y-104243472D01*
X127881296Y-104368933D01*
X128103135Y-104460822D01*
X128103137Y-104460823D01*
X128336620Y-104516877D01*
X128336627Y-104516878D01*
X128575996Y-104535717D01*
X128576000Y-104535717D01*
X128576004Y-104535717D01*
X128815372Y-104516878D01*
X128815379Y-104516877D01*
X128815378Y-104516876D01*
X129048863Y-104460823D01*
X129270704Y-104368933D01*
X129475439Y-104243472D01*
X129548397Y-104181159D01*
X129633164Y-104133687D01*
X129710110Y-104121500D01*
X134295435Y-104121500D01*
X136781435Y-104121500D01*
X139013435Y-104121500D01*
X141045435Y-104121500D01*
X142001992Y-104121500D01*
X142097280Y-104140454D01*
X142178058Y-104194427D01*
X142210343Y-104226712D01*
X142359664Y-104318815D01*
X142526200Y-104373999D01*
X142628988Y-104384500D01*
X142628997Y-104384500D01*
X143354003Y-104384500D01*
X143354012Y-104384500D01*
X143456800Y-104373999D01*
X143623336Y-104318815D01*
X143772657Y-104226712D01*
X143896712Y-104102657D01*
X143988815Y-103953336D01*
X144043999Y-103786800D01*
X144054500Y-103684012D01*
X144054500Y-103397369D01*
X144070200Y-103310351D01*
X144074376Y-103299156D01*
X144109720Y-103088977D01*
X144107732Y-103005500D01*
X144106545Y-102955655D01*
X144796694Y-102955655D01*
X144806834Y-103168542D01*
X144806835Y-103168548D01*
X144825351Y-103244872D01*
X144844917Y-103325524D01*
X144846481Y-103331968D01*
X144853500Y-103390673D01*
X144853500Y-103684012D01*
X144864001Y-103786800D01*
X144919185Y-103953336D01*
X145011288Y-104102657D01*
X145135343Y-104226712D01*
X145284664Y-104318815D01*
X145451200Y-104373999D01*
X145553988Y-104384500D01*
X145553997Y-104384500D01*
X146279003Y-104384500D01*
X146279012Y-104384500D01*
X146381800Y-104373999D01*
X146548336Y-104318815D01*
X146697657Y-104226712D01*
X146726441Y-104197927D01*
X146807220Y-104143954D01*
X146902508Y-104125000D01*
X147638533Y-104125000D01*
X147660665Y-104126847D01*
X147660699Y-104126374D01*
X147672518Y-104127219D01*
X147672523Y-104127220D01*
X147672527Y-104127219D01*
X147672529Y-104127220D01*
X147765765Y-104125000D01*
X147805656Y-104125000D01*
X147805659Y-104125000D01*
X147814488Y-104124156D01*
X147823335Y-104123628D01*
X147885593Y-104122147D01*
X147885593Y-104122146D01*
X147888868Y-104122069D01*
X147898426Y-104121500D01*
X149681435Y-104121500D01*
X151413435Y-104121500D01*
X153299435Y-104121500D01*
X154455992Y-104121500D01*
X154551280Y-104140454D01*
X154632058Y-104194427D01*
X154664343Y-104226712D01*
X154813664Y-104318815D01*
X154980200Y-104373999D01*
X155082988Y-104384500D01*
X155082997Y-104384500D01*
X155808003Y-104384500D01*
X155808012Y-104384500D01*
X155910800Y-104373999D01*
X156077336Y-104318815D01*
X156226657Y-104226712D01*
X156350712Y-104102657D01*
X156442815Y-103953336D01*
X156497999Y-103786800D01*
X156508500Y-103684012D01*
X156508500Y-103397368D01*
X156524200Y-103310351D01*
X156528376Y-103299156D01*
X156563720Y-103088977D01*
X156561732Y-103005500D01*
X156560545Y-102955655D01*
X157250694Y-102955655D01*
X157260834Y-103168542D01*
X157260835Y-103168548D01*
X157279351Y-103244872D01*
X157298917Y-103325524D01*
X157300481Y-103331968D01*
X157307500Y-103390672D01*
X157307500Y-103684012D01*
X157318001Y-103786800D01*
X157373185Y-103953336D01*
X157465288Y-104102657D01*
X157589343Y-104226712D01*
X157738664Y-104318815D01*
X157905200Y-104373999D01*
X158007988Y-104384500D01*
X158007997Y-104384500D01*
X158733003Y-104384500D01*
X158733012Y-104384500D01*
X158835800Y-104373999D01*
X159002336Y-104318815D01*
X159151657Y-104226712D01*
X159180441Y-104197927D01*
X159261220Y-104143954D01*
X159356508Y-104125000D01*
X160092533Y-104125000D01*
X160114665Y-104126847D01*
X160114699Y-104126374D01*
X160126518Y-104127219D01*
X160126523Y-104127220D01*
X160126527Y-104127219D01*
X160126529Y-104127220D01*
X160219765Y-104125000D01*
X160259656Y-104125000D01*
X160259659Y-104125000D01*
X160268488Y-104124156D01*
X160277335Y-104123628D01*
X160339593Y-104122147D01*
X160339593Y-104122146D01*
X160342868Y-104122069D01*
X160352426Y-104121500D01*
X162135435Y-104121500D01*
X163369341Y-104121500D01*
X163464629Y-104140454D01*
X163500057Y-104158570D01*
X163516666Y-104168814D01*
X163516667Y-104168815D01*
X163674424Y-104221090D01*
X163683203Y-104223999D01*
X163785991Y-104234500D01*
X164386008Y-104234499D01*
X164488797Y-104223999D01*
X164655334Y-104168814D01*
X164804656Y-104076712D01*
X164859933Y-104021434D01*
X164940712Y-103967461D01*
X165036000Y-103948507D01*
X165131288Y-103967461D01*
X165212066Y-104021434D01*
X165267344Y-104076712D01*
X165416666Y-104168814D01*
X165416669Y-104168815D01*
X165416667Y-104168815D01*
X165574424Y-104221090D01*
X165583203Y-104223999D01*
X165685991Y-104234500D01*
X166286008Y-104234499D01*
X166388797Y-104223999D01*
X166555334Y-104168814D01*
X166566266Y-104162070D01*
X166657318Y-104128180D01*
X166696984Y-104125000D01*
X167119618Y-104125000D01*
X167214906Y-104143954D01*
X167247804Y-104162688D01*
X167248038Y-104162260D01*
X167263666Y-104170793D01*
X167263669Y-104170796D01*
X167398517Y-104221091D01*
X167458127Y-104227500D01*
X170093872Y-104227499D01*
X170153483Y-104221091D01*
X170288331Y-104170796D01*
X170288333Y-104170794D01*
X170303964Y-104162260D01*
X170304479Y-104163203D01*
X170375477Y-104129235D01*
X170437058Y-104121500D01*
X170989341Y-104121500D01*
X171084629Y-104140454D01*
X171120057Y-104158570D01*
X171136666Y-104168814D01*
X171136667Y-104168815D01*
X171294424Y-104221090D01*
X171303203Y-104223999D01*
X171405991Y-104234500D01*
X172006008Y-104234499D01*
X172108797Y-104223999D01*
X172275334Y-104168814D01*
X172424656Y-104076712D01*
X172479933Y-104021434D01*
X172560712Y-103967461D01*
X172656000Y-103948507D01*
X172751288Y-103967461D01*
X172832066Y-104021434D01*
X172887344Y-104076712D01*
X173036666Y-104168814D01*
X173036669Y-104168815D01*
X173036667Y-104168815D01*
X173194424Y-104221090D01*
X173203203Y-104223999D01*
X173305991Y-104234500D01*
X173906008Y-104234499D01*
X174008797Y-104223999D01*
X174175334Y-104168814D01*
X174186266Y-104162070D01*
X174277318Y-104128180D01*
X174316984Y-104125000D01*
X175332533Y-104125000D01*
X175354665Y-104126847D01*
X175354699Y-104126374D01*
X175366518Y-104127219D01*
X175366523Y-104127220D01*
X175366527Y-104127219D01*
X175366529Y-104127220D01*
X175459765Y-104125000D01*
X175499656Y-104125000D01*
X175499659Y-104125000D01*
X175508488Y-104124156D01*
X175517335Y-104123628D01*
X175579593Y-104122147D01*
X175579593Y-104122146D01*
X175582868Y-104122069D01*
X175592426Y-104121500D01*
X177375435Y-104121500D01*
X178331992Y-104121500D01*
X178427280Y-104140454D01*
X178508058Y-104194427D01*
X178540343Y-104226712D01*
X178689664Y-104318815D01*
X178856200Y-104373999D01*
X178958988Y-104384500D01*
X178958997Y-104384500D01*
X179684003Y-104384500D01*
X179684012Y-104384500D01*
X179786800Y-104373999D01*
X179953336Y-104318815D01*
X180102657Y-104226712D01*
X180226712Y-104102657D01*
X180318815Y-103953336D01*
X180373999Y-103786800D01*
X180384500Y-103684012D01*
X180384500Y-103397368D01*
X180400200Y-103310351D01*
X180404376Y-103299156D01*
X180439720Y-103088977D01*
X180437732Y-103005500D01*
X180434647Y-102875908D01*
X180390190Y-102671535D01*
X180384500Y-102618608D01*
X180384500Y-102333997D01*
X180384500Y-102333988D01*
X180373999Y-102231200D01*
X180318815Y-102064664D01*
X180226712Y-101915343D01*
X180102657Y-101791288D01*
X180090032Y-101783501D01*
X180032895Y-101748258D01*
X179953336Y-101699185D01*
X179786800Y-101644001D01*
X179725127Y-101637700D01*
X179684014Y-101633500D01*
X179684012Y-101633500D01*
X178958988Y-101633500D01*
X178958985Y-101633500D01*
X178897315Y-101639800D01*
X178856200Y-101644001D01*
X178689664Y-101699185D01*
X178540345Y-101791286D01*
X178540343Y-101791287D01*
X178540343Y-101791288D01*
X178515058Y-101816572D01*
X178434280Y-101870546D01*
X178338992Y-101889500D01*
X175563967Y-101889500D01*
X175541834Y-101887652D01*
X175541801Y-101888126D01*
X175529970Y-101887279D01*
X175436735Y-101889500D01*
X175396833Y-101889500D01*
X175388000Y-101890343D01*
X175379139Y-101890870D01*
X175377706Y-101890905D01*
X175313626Y-101892430D01*
X175304076Y-101893000D01*
X174316984Y-101893000D01*
X174221696Y-101874046D01*
X174186266Y-101855929D01*
X174180595Y-101852431D01*
X174175334Y-101849186D01*
X174175332Y-101849185D01*
X174175330Y-101849184D01*
X174175332Y-101849184D01*
X174008802Y-101794002D01*
X174008798Y-101794001D01*
X174008797Y-101794001D01*
X173906009Y-101783500D01*
X173906005Y-101783500D01*
X173305993Y-101783500D01*
X173203199Y-101794001D01*
X173036667Y-101849185D01*
X172887346Y-101941286D01*
X172887344Y-101941287D01*
X172887344Y-101941288D01*
X172832066Y-101996565D01*
X172751288Y-102050539D01*
X172656000Y-102069493D01*
X172560712Y-102050539D01*
X172479933Y-101996565D01*
X172424656Y-101941288D01*
X172275334Y-101849186D01*
X172275332Y-101849185D01*
X172275330Y-101849184D01*
X172275332Y-101849184D01*
X172108802Y-101794002D01*
X172108798Y-101794001D01*
X172108797Y-101794001D01*
X172006009Y-101783500D01*
X172006005Y-101783500D01*
X171405993Y-101783500D01*
X171303199Y-101794001D01*
X171136667Y-101849185D01*
X171131405Y-101852431D01*
X171040353Y-101886321D01*
X171000690Y-101889500D01*
X169010514Y-101889500D01*
X168969222Y-101886052D01*
X168925973Y-101878779D01*
X168712908Y-101883851D01*
X168697010Y-101887310D01*
X168644083Y-101893000D01*
X166696984Y-101893000D01*
X166601696Y-101874046D01*
X166566266Y-101855929D01*
X166560595Y-101852431D01*
X166555334Y-101849186D01*
X166555332Y-101849185D01*
X166555330Y-101849184D01*
X166555332Y-101849184D01*
X166388802Y-101794002D01*
X166388798Y-101794001D01*
X166388797Y-101794001D01*
X166286009Y-101783500D01*
X166286005Y-101783500D01*
X165685993Y-101783500D01*
X165583199Y-101794001D01*
X165416667Y-101849185D01*
X165267346Y-101941286D01*
X165267344Y-101941287D01*
X165267344Y-101941288D01*
X165212066Y-101996565D01*
X165131288Y-102050539D01*
X165036000Y-102069493D01*
X164940712Y-102050539D01*
X164859933Y-101996565D01*
X164804656Y-101941288D01*
X164655334Y-101849186D01*
X164655332Y-101849185D01*
X164655330Y-101849184D01*
X164655332Y-101849184D01*
X164488802Y-101794002D01*
X164488798Y-101794001D01*
X164488797Y-101794001D01*
X164386009Y-101783500D01*
X164386005Y-101783500D01*
X163785993Y-101783500D01*
X163683199Y-101794001D01*
X163516667Y-101849185D01*
X163511405Y-101852431D01*
X163420353Y-101886321D01*
X163380690Y-101889500D01*
X160323967Y-101889500D01*
X160301834Y-101887652D01*
X160301801Y-101888126D01*
X160289970Y-101887279D01*
X160196735Y-101889500D01*
X160156833Y-101889500D01*
X160148000Y-101890343D01*
X160139139Y-101890870D01*
X160137706Y-101890905D01*
X160073626Y-101892430D01*
X160064076Y-101893000D01*
X159356508Y-101893000D01*
X159261220Y-101874046D01*
X159180441Y-101820072D01*
X159151657Y-101791288D01*
X159139032Y-101783501D01*
X159081895Y-101748258D01*
X159002336Y-101699185D01*
X158835800Y-101644001D01*
X158774127Y-101637700D01*
X158733014Y-101633500D01*
X158733012Y-101633500D01*
X158007988Y-101633500D01*
X158007985Y-101633500D01*
X157946315Y-101639800D01*
X157905200Y-101644001D01*
X157738664Y-101699185D01*
X157589345Y-101791286D01*
X157465286Y-101915345D01*
X157381897Y-102050539D01*
X157373185Y-102064664D01*
X157318001Y-102231200D01*
X157315845Y-102252300D01*
X157307500Y-102333985D01*
X157307500Y-102626330D01*
X157293805Y-102707770D01*
X157281026Y-102744691D01*
X157281024Y-102744697D01*
X157250694Y-102955655D01*
X156560545Y-102955655D01*
X156558647Y-102875908D01*
X156514190Y-102671535D01*
X156508500Y-102618608D01*
X156508500Y-102333997D01*
X156508500Y-102333988D01*
X156497999Y-102231200D01*
X156442815Y-102064664D01*
X156350712Y-101915343D01*
X156226657Y-101791288D01*
X156214032Y-101783501D01*
X156156895Y-101748258D01*
X156077336Y-101699185D01*
X155910800Y-101644001D01*
X155849127Y-101637700D01*
X155808014Y-101633500D01*
X155808012Y-101633500D01*
X155082988Y-101633500D01*
X155082985Y-101633500D01*
X155021315Y-101639800D01*
X154980200Y-101644001D01*
X154813664Y-101699185D01*
X154664345Y-101791286D01*
X154664343Y-101791287D01*
X154664343Y-101791288D01*
X154639058Y-101816572D01*
X154558280Y-101870546D01*
X154462992Y-101889500D01*
X147869967Y-101889500D01*
X147847834Y-101887652D01*
X147847801Y-101888126D01*
X147835970Y-101887279D01*
X147742735Y-101889500D01*
X147702833Y-101889500D01*
X147694000Y-101890343D01*
X147685139Y-101890870D01*
X147683706Y-101890905D01*
X147619626Y-101892430D01*
X147610076Y-101893000D01*
X146902508Y-101893000D01*
X146807220Y-101874046D01*
X146726441Y-101820072D01*
X146697657Y-101791288D01*
X146685032Y-101783501D01*
X146627895Y-101748258D01*
X146548336Y-101699185D01*
X146381800Y-101644001D01*
X146320127Y-101637700D01*
X146279014Y-101633500D01*
X146279012Y-101633500D01*
X145553988Y-101633500D01*
X145553985Y-101633500D01*
X145492315Y-101639800D01*
X145451200Y-101644001D01*
X145284664Y-101699185D01*
X145135345Y-101791286D01*
X145011286Y-101915345D01*
X144927897Y-102050539D01*
X144919185Y-102064664D01*
X144864001Y-102231200D01*
X144861845Y-102252300D01*
X144853500Y-102333985D01*
X144853500Y-102626330D01*
X144839805Y-102707770D01*
X144827026Y-102744691D01*
X144827024Y-102744697D01*
X144796694Y-102955655D01*
X144106545Y-102955655D01*
X144104647Y-102875908D01*
X144060190Y-102671535D01*
X144054500Y-102618608D01*
X144054500Y-102333997D01*
X144054500Y-102333988D01*
X144043999Y-102231200D01*
X143988815Y-102064664D01*
X143896712Y-101915343D01*
X143772657Y-101791288D01*
X143760032Y-101783501D01*
X143702895Y-101748258D01*
X143623336Y-101699185D01*
X143456800Y-101644001D01*
X143395127Y-101637700D01*
X143354014Y-101633500D01*
X143354012Y-101633500D01*
X142628988Y-101633500D01*
X142628985Y-101633500D01*
X142567315Y-101639800D01*
X142526200Y-101644001D01*
X142359664Y-101699185D01*
X142210345Y-101791286D01*
X142210343Y-101791287D01*
X142210343Y-101791288D01*
X142185058Y-101816572D01*
X142104280Y-101870546D01*
X142008992Y-101889500D01*
X129710110Y-101889500D01*
X129614822Y-101870546D01*
X129548397Y-101829840D01*
X129475441Y-101767529D01*
X129411460Y-101728322D01*
X129270704Y-101642067D01*
X129159783Y-101596121D01*
X129048864Y-101550177D01*
X129048862Y-101550176D01*
X128815379Y-101494122D01*
X128815372Y-101494121D01*
X128576004Y-101475283D01*
X128575996Y-101475283D01*
X128336627Y-101494121D01*
X128336620Y-101494122D01*
X128103137Y-101550176D01*
X128103135Y-101550177D01*
X127881296Y-101642067D01*
X127676562Y-101767527D01*
X127493976Y-101923470D01*
X127493970Y-101923476D01*
X127338027Y-102106062D01*
X127212567Y-102310796D01*
X127120677Y-102532635D01*
X127120676Y-102532637D01*
X127064622Y-102766120D01*
X127064621Y-102766127D01*
X127045783Y-103005495D01*
X127045783Y-103005504D01*
X100151500Y-103005504D01*
X100151500Y-92494797D01*
X103888500Y-92494797D01*
X103889307Y-92517329D01*
X103910145Y-92808708D01*
X103912076Y-92826659D01*
X103917204Y-92862322D01*
X103920408Y-92880076D01*
X103981064Y-93158910D01*
X103985521Y-93176374D01*
X103995667Y-93210941D01*
X104001374Y-93228088D01*
X104101115Y-93495502D01*
X104108022Y-93512176D01*
X104118998Y-93536210D01*
X104141341Y-93630761D01*
X104141500Y-93639650D01*
X104141500Y-94677997D01*
X104141501Y-94678014D01*
X104152001Y-94780800D01*
X104207185Y-94947332D01*
X104207186Y-94947334D01*
X104299288Y-95096656D01*
X104423344Y-95220712D01*
X104572666Y-95312814D01*
X104572669Y-95312815D01*
X104572667Y-95312815D01*
X104736310Y-95367040D01*
X104739203Y-95367999D01*
X104841991Y-95378500D01*
X109735500Y-95378499D01*
X109830788Y-95397453D01*
X109911570Y-95451429D01*
X109965546Y-95532211D01*
X109984500Y-95627499D01*
X109984500Y-95990925D01*
X109985279Y-96010762D01*
X110004440Y-96254235D01*
X110006774Y-96273953D01*
X110012970Y-96313072D01*
X110016843Y-96332544D01*
X110071547Y-96560397D01*
X110076938Y-96579512D01*
X110089178Y-96617176D01*
X110096046Y-96635793D01*
X110185711Y-96852268D01*
X110194027Y-96870306D01*
X110212019Y-96905614D01*
X110221716Y-96922930D01*
X110221757Y-96923003D01*
X110251775Y-97015404D01*
X110253499Y-97044659D01*
X110253500Y-97262010D01*
X110264001Y-97364798D01*
X110264002Y-97364800D01*
X110267732Y-97376058D01*
X110279709Y-97472472D01*
X110253879Y-97566130D01*
X110194174Y-97642775D01*
X110109683Y-97690737D01*
X110013269Y-97702714D01*
X109953051Y-97690736D01*
X109944797Y-97688001D01*
X109910534Y-97684500D01*
X109842011Y-97677500D01*
X109842009Y-97677500D01*
X109773225Y-97677500D01*
X109689341Y-97662945D01*
X109688803Y-97662752D01*
X109688797Y-97662750D01*
X109665429Y-97654389D01*
X109477820Y-97597479D01*
X109461836Y-97593475D01*
X109453746Y-97591448D01*
X109453747Y-97591448D01*
X109405185Y-97581789D01*
X109405182Y-97581789D01*
X109405180Y-97581789D01*
X109380634Y-97578148D01*
X109380623Y-97578146D01*
X109380617Y-97578146D01*
X109380615Y-97578146D01*
X109182467Y-97558631D01*
X109181180Y-97558536D01*
X109170112Y-97557719D01*
X109151541Y-97556805D01*
X109139121Y-97556500D01*
X109139119Y-97556500D01*
X105544881Y-97556500D01*
X105544879Y-97556500D01*
X105532459Y-97556805D01*
X105513888Y-97557719D01*
X105507711Y-97558175D01*
X105501533Y-97558631D01*
X105303374Y-97578147D01*
X105303372Y-97578147D01*
X105278816Y-97581788D01*
X105278819Y-97581788D01*
X105253853Y-97586753D01*
X105230262Y-97591446D01*
X105206181Y-97597478D01*
X105018572Y-97654388D01*
X104994657Y-97662945D01*
X104910776Y-97677500D01*
X104841994Y-97677500D01*
X104739199Y-97688001D01*
X104572667Y-97743185D01*
X104423346Y-97835286D01*
X104299286Y-97959346D01*
X104207184Y-98108668D01*
X104152002Y-98275197D01*
X104152001Y-98275204D01*
X104141500Y-98377988D01*
X104141500Y-98491971D01*
X104130778Y-98564251D01*
X104102211Y-98658425D01*
X104083478Y-98720181D01*
X104077446Y-98744262D01*
X104077444Y-98744271D01*
X104077444Y-98744272D01*
X104077444Y-98744273D01*
X104067788Y-98792819D01*
X104064147Y-98817372D01*
X104064147Y-98817374D01*
X104044631Y-99015533D01*
X104043719Y-99027889D01*
X104042805Y-99046459D01*
X104042634Y-99053443D01*
X104042500Y-99058881D01*
X104042500Y-100875118D01*
X104042805Y-100887540D01*
X104043091Y-100893361D01*
X104043719Y-100906110D01*
X104044631Y-100918466D01*
X104064146Y-101116613D01*
X104064146Y-101116614D01*
X104067789Y-101141182D01*
X104077445Y-101189733D01*
X104083478Y-101213817D01*
X104140389Y-101401429D01*
X104148750Y-101424797D01*
X104164923Y-101463843D01*
X104167699Y-101470544D01*
X104178305Y-101492967D01*
X104178304Y-101492966D01*
X104270716Y-101665856D01*
X104270717Y-101665857D01*
X104283483Y-101687156D01*
X104310989Y-101728322D01*
X104310991Y-101728324D01*
X104325768Y-101748250D01*
X104325767Y-101748249D01*
X104450139Y-101899796D01*
X104450137Y-101899793D01*
X104466803Y-101918182D01*
X104501817Y-101953196D01*
X104520206Y-101969862D01*
X104520203Y-101969860D01*
X104671750Y-102094232D01*
X104671748Y-102094230D01*
X104687701Y-102106061D01*
X104691676Y-102109009D01*
X104732849Y-102136520D01*
X104754136Y-102149279D01*
X104927023Y-102241690D01*
X104949452Y-102252298D01*
X104949455Y-102252299D01*
X104949460Y-102252302D01*
X104969237Y-102260494D01*
X104995211Y-102271253D01*
X104995210Y-102271253D01*
X105008399Y-102275971D01*
X105018579Y-102279614D01*
X105059743Y-102292100D01*
X105206166Y-102336517D01*
X105206168Y-102336517D01*
X105206178Y-102336520D01*
X105218063Y-102339497D01*
X105230241Y-102342548D01*
X105230238Y-102342547D01*
X105230243Y-102342547D01*
X105230255Y-102342551D01*
X105278820Y-102352210D01*
X105278827Y-102352211D01*
X105278837Y-102352213D01*
X105278834Y-102352212D01*
X105303365Y-102355851D01*
X105473825Y-102372640D01*
X105501530Y-102375369D01*
X105507709Y-102375825D01*
X105513887Y-102376281D01*
X105532458Y-102377195D01*
X105532459Y-102377195D01*
X105544879Y-102377500D01*
X105544881Y-102377500D01*
X109139121Y-102377500D01*
X109151541Y-102377195D01*
X109151540Y-102377195D01*
X109170113Y-102376281D01*
X109176291Y-102375825D01*
X109182470Y-102375369D01*
X109206776Y-102372974D01*
X109380634Y-102355851D01*
X109405164Y-102352212D01*
X109405162Y-102352213D01*
X109405171Y-102352211D01*
X109405179Y-102352210D01*
X109453744Y-102342551D01*
X109453755Y-102342547D01*
X109453761Y-102342547D01*
X109453758Y-102342548D01*
X109465935Y-102339497D01*
X109477821Y-102336520D01*
X109477831Y-102336517D01*
X109477833Y-102336517D01*
X109581626Y-102305031D01*
X109665421Y-102279614D01*
X109688792Y-102271251D01*
X109688799Y-102271248D01*
X109688800Y-102271248D01*
X109734544Y-102252300D01*
X109734541Y-102252302D01*
X109745761Y-102246994D01*
X109756979Y-102241689D01*
X109776599Y-102231202D01*
X109810221Y-102213229D01*
X109929863Y-102149279D01*
X109951150Y-102136520D01*
X109992323Y-102109009D01*
X109996298Y-102106061D01*
X110012251Y-102094230D01*
X110012249Y-102094232D01*
X110163796Y-101969860D01*
X110163793Y-101969862D01*
X110182182Y-101953196D01*
X110217196Y-101918182D01*
X110233862Y-101899793D01*
X110233860Y-101899796D01*
X110358230Y-101748251D01*
X110373007Y-101728326D01*
X110373008Y-101728324D01*
X110373009Y-101728323D01*
X110400520Y-101687150D01*
X110413279Y-101665863D01*
X110505689Y-101492979D01*
X110514059Y-101475283D01*
X110516302Y-101470541D01*
X110516300Y-101470544D01*
X110535248Y-101424800D01*
X110535248Y-101424799D01*
X110535249Y-101424796D01*
X110535251Y-101424792D01*
X110543614Y-101401421D01*
X110594091Y-101235014D01*
X110639888Y-101149333D01*
X110714989Y-101087698D01*
X110807960Y-101059494D01*
X110904647Y-101069016D01*
X110914610Y-101072269D01*
X110915226Y-101072484D01*
X110915232Y-101072487D01*
X110991349Y-101099122D01*
X111078789Y-101129719D01*
X111078790Y-101129719D01*
X111078793Y-101129720D01*
X111106038Y-101137570D01*
X111106037Y-101137570D01*
X111106042Y-101137571D01*
X111106045Y-101137572D01*
X111161207Y-101150163D01*
X111161215Y-101150164D01*
X111161216Y-101150165D01*
X111178508Y-101153103D01*
X111189177Y-101154916D01*
X111364939Y-101174720D01*
X111372011Y-101175316D01*
X111379082Y-101175913D01*
X111381543Y-101176051D01*
X111400299Y-101177103D01*
X111414460Y-101177500D01*
X111414463Y-101177500D01*
X116684384Y-101177500D01*
X116711398Y-101176052D01*
X116711401Y-101176052D01*
X116751645Y-101171727D01*
X116751643Y-101171727D01*
X116755839Y-101171046D01*
X116805091Y-101163065D01*
X116805095Y-101163063D01*
X116809887Y-101161795D01*
X116873622Y-101153500D01*
X120939539Y-101153500D01*
X120939541Y-101153500D01*
X120953704Y-101153103D01*
X120964311Y-101152507D01*
X120974920Y-101151912D01*
X120981989Y-101151316D01*
X120989060Y-101150720D01*
X121162150Y-101131217D01*
X121170967Y-101129719D01*
X121190110Y-101126467D01*
X121245269Y-101113876D01*
X121245269Y-101113875D01*
X121245282Y-101113873D01*
X121272536Y-101106021D01*
X121272534Y-101106022D01*
X121433543Y-101049682D01*
X121433545Y-101049682D01*
X121459765Y-101038822D01*
X121459763Y-101038823D01*
X121510732Y-101014277D01*
X121510733Y-101014276D01*
X121510738Y-101014274D01*
X121535565Y-101000553D01*
X121680033Y-100909779D01*
X121680036Y-100909777D01*
X121680038Y-100909776D01*
X121680037Y-100909777D01*
X121703167Y-100893365D01*
X121703169Y-100893363D01*
X121703172Y-100893361D01*
X121747410Y-100858081D01*
X121768556Y-100839183D01*
X121889183Y-100718556D01*
X121908081Y-100697410D01*
X121943361Y-100653172D01*
X121943365Y-100653167D01*
X121959777Y-100630037D01*
X121959776Y-100630038D01*
X122036947Y-100507219D01*
X122050553Y-100485565D01*
X122064274Y-100460738D01*
X122086466Y-100414657D01*
X122088822Y-100409765D01*
X122093317Y-100398910D01*
X122099676Y-100383559D01*
X122156022Y-100222535D01*
X122163874Y-100195279D01*
X122176465Y-100140115D01*
X122176467Y-100140107D01*
X122176466Y-100140108D01*
X122181216Y-100112154D01*
X122181217Y-100112147D01*
X122200320Y-99942610D01*
X122201910Y-99914289D01*
X122201910Y-99857709D01*
X122200320Y-99829388D01*
X122181217Y-99659851D01*
X122181216Y-99659841D01*
X122176467Y-99631891D01*
X122163873Y-99576716D01*
X122163873Y-99576717D01*
X122156022Y-99549464D01*
X122099676Y-99388440D01*
X122094249Y-99375337D01*
X122088823Y-99362236D01*
X122064277Y-99311267D01*
X122063792Y-99310390D01*
X122050553Y-99286434D01*
X121959779Y-99141966D01*
X121959776Y-99141961D01*
X121959777Y-99141962D01*
X121943365Y-99118832D01*
X121943363Y-99118830D01*
X121912439Y-99080054D01*
X121908081Y-99074589D01*
X121889183Y-99053443D01*
X121768556Y-98932816D01*
X121747410Y-98913918D01*
X121703172Y-98878638D01*
X121680033Y-98862220D01*
X121535566Y-98771447D01*
X121533141Y-98770106D01*
X121510752Y-98757731D01*
X121510753Y-98757732D01*
X121500437Y-98752764D01*
X121459773Y-98733181D01*
X121450322Y-98729266D01*
X121433575Y-98722329D01*
X121427436Y-98720181D01*
X121312101Y-98679823D01*
X121272538Y-98665979D01*
X121272536Y-98665978D01*
X121245273Y-98658123D01*
X121245274Y-98658124D01*
X121190127Y-98645536D01*
X121190120Y-98645535D01*
X121162155Y-98640783D01*
X120989044Y-98621277D01*
X120974864Y-98620082D01*
X120953647Y-98618895D01*
X120939522Y-98618500D01*
X111414479Y-98618500D01*
X111400356Y-98618895D01*
X111379138Y-98620082D01*
X111370171Y-98620837D01*
X111364952Y-98621277D01*
X111189169Y-98641084D01*
X111189167Y-98641084D01*
X111161211Y-98645835D01*
X111161209Y-98645835D01*
X111161201Y-98645837D01*
X111107376Y-98658123D01*
X111106049Y-98658426D01*
X111106051Y-98658425D01*
X111078803Y-98666276D01*
X111078802Y-98666276D01*
X111078801Y-98666277D01*
X110915237Y-98723510D01*
X110915228Y-98723513D01*
X110915230Y-98723513D01*
X110915226Y-98723514D01*
X110890351Y-98733816D01*
X110795061Y-98752764D01*
X110699774Y-98733804D01*
X110618996Y-98679823D01*
X110565025Y-98599038D01*
X110556796Y-98576034D01*
X110553218Y-98564237D01*
X110542499Y-98491967D01*
X110542499Y-98377993D01*
X110542499Y-98377991D01*
X110531999Y-98275203D01*
X110528269Y-98263949D01*
X110516289Y-98167536D01*
X110542115Y-98073877D01*
X110601818Y-97997230D01*
X110686307Y-97949265D01*
X110782721Y-97937284D01*
X110842954Y-97949266D01*
X110851202Y-97951999D01*
X110953990Y-97962500D01*
X111742242Y-97962500D01*
X111752004Y-97962883D01*
X111916340Y-97975817D01*
X111950786Y-97978528D01*
X111975569Y-97979500D01*
X111975570Y-97979500D01*
X125399998Y-97979500D01*
X125400000Y-97979500D01*
X125507449Y-97967948D01*
X125559791Y-97956562D01*
X125662333Y-97922433D01*
X125783373Y-97844646D01*
X125834506Y-97800338D01*
X125836687Y-97798549D01*
X125931250Y-97689417D01*
X125931250Y-97689416D01*
X125931249Y-97689416D01*
X125931252Y-97689414D01*
X125968884Y-97607010D01*
X126025707Y-97528210D01*
X126108363Y-97477151D01*
X126195174Y-97461451D01*
X186434160Y-97412075D01*
X186529463Y-97430951D01*
X186595892Y-97471577D01*
X187171816Y-97962499D01*
X188468000Y-99067376D01*
X190425740Y-99061391D01*
X190521084Y-99080054D01*
X190602031Y-99133783D01*
X190656254Y-99214399D01*
X190675499Y-99309629D01*
X190675500Y-99310390D01*
X190675500Y-99996012D01*
X190686001Y-100098796D01*
X190686003Y-100098806D01*
X190741182Y-100265327D01*
X190741185Y-100265335D01*
X190833286Y-100414653D01*
X190833289Y-100414657D01*
X190929070Y-100510438D01*
X190983046Y-100591220D01*
X191002000Y-100686508D01*
X191002000Y-101645182D01*
X190983046Y-101740470D01*
X190929070Y-101821252D01*
X190848288Y-101875228D01*
X190753092Y-101894182D01*
X186281286Y-101895832D01*
X186234072Y-101891332D01*
X186224565Y-101889500D01*
X186224564Y-101889500D01*
X184199967Y-101889500D01*
X184177834Y-101887652D01*
X184177801Y-101888126D01*
X184165970Y-101887279D01*
X184072735Y-101889500D01*
X184032833Y-101889500D01*
X184024000Y-101890343D01*
X184015139Y-101890870D01*
X184013706Y-101890905D01*
X183949626Y-101892430D01*
X183940076Y-101893000D01*
X183232508Y-101893000D01*
X183137220Y-101874046D01*
X183056441Y-101820072D01*
X183027657Y-101791288D01*
X183015032Y-101783501D01*
X182957895Y-101748258D01*
X182878336Y-101699185D01*
X182711800Y-101644001D01*
X182650127Y-101637700D01*
X182609014Y-101633500D01*
X182609012Y-101633500D01*
X181883988Y-101633500D01*
X181883985Y-101633500D01*
X181822315Y-101639800D01*
X181781200Y-101644001D01*
X181614664Y-101699185D01*
X181465345Y-101791286D01*
X181341286Y-101915345D01*
X181257897Y-102050539D01*
X181249185Y-102064664D01*
X181194001Y-102231200D01*
X181191845Y-102252300D01*
X181183500Y-102333985D01*
X181183500Y-102626330D01*
X181169805Y-102707770D01*
X181157026Y-102744691D01*
X181157024Y-102744697D01*
X181126694Y-102955655D01*
X181136834Y-103168542D01*
X181136835Y-103168548D01*
X181155351Y-103244872D01*
X181174917Y-103325524D01*
X181176481Y-103331968D01*
X181183500Y-103390673D01*
X181183500Y-103684012D01*
X181194001Y-103786800D01*
X181249185Y-103953336D01*
X181341288Y-104102657D01*
X181465343Y-104226712D01*
X181614664Y-104318815D01*
X181781200Y-104373999D01*
X181883988Y-104384500D01*
X181883997Y-104384500D01*
X182609003Y-104384500D01*
X182609012Y-104384500D01*
X182711800Y-104373999D01*
X182878336Y-104318815D01*
X183027657Y-104226712D01*
X183056441Y-104197927D01*
X183137220Y-104143954D01*
X183232508Y-104125000D01*
X183968533Y-104125000D01*
X183990665Y-104126847D01*
X183990699Y-104126374D01*
X184002518Y-104127219D01*
X184002523Y-104127220D01*
X184002527Y-104127219D01*
X184002529Y-104127220D01*
X184095765Y-104125000D01*
X184135656Y-104125000D01*
X184135659Y-104125000D01*
X184144488Y-104124156D01*
X184153335Y-104123628D01*
X184215593Y-104122147D01*
X184215593Y-104122146D01*
X184218868Y-104122069D01*
X184228426Y-104121500D01*
X185662121Y-104121500D01*
X185709153Y-104125982D01*
X185719847Y-104128039D01*
X192020537Y-104125715D01*
X192056058Y-104128249D01*
X192064657Y-104129486D01*
X192138199Y-104125982D01*
X192141831Y-104125809D01*
X192147714Y-104125668D01*
X192171570Y-104125660D01*
X192194903Y-104123422D01*
X192200785Y-104123000D01*
X192277546Y-104119345D01*
X192286474Y-104117178D01*
X192321417Y-104111296D01*
X192330570Y-104110419D01*
X192404262Y-104088750D01*
X192410013Y-104087209D01*
X192453281Y-104076712D01*
X192484668Y-104069098D01*
X192493028Y-104065279D01*
X192526234Y-104052887D01*
X192535045Y-104050297D01*
X192603321Y-104015065D01*
X192608633Y-104012483D01*
X192678538Y-103980560D01*
X192686021Y-103975230D01*
X192716289Y-103956773D01*
X192724446Y-103952565D01*
X192784792Y-103905071D01*
X192789554Y-103901504D01*
X192852149Y-103856933D01*
X192858485Y-103850287D01*
X192884709Y-103826438D01*
X192891930Y-103820756D01*
X192942227Y-103762665D01*
X192946195Y-103758297D01*
X192999225Y-103702683D01*
X193004193Y-103694951D01*
X193025420Y-103666584D01*
X193031441Y-103659631D01*
X193069834Y-103593073D01*
X193072899Y-103588041D01*
X193114452Y-103523387D01*
X193117865Y-103514859D01*
X193133343Y-103482980D01*
X193137938Y-103475016D01*
X193163046Y-103402382D01*
X193165107Y-103396856D01*
X193193665Y-103325524D01*
X193195403Y-103316506D01*
X193204571Y-103282261D01*
X193207572Y-103273582D01*
X193218476Y-103197533D01*
X193219455Y-103191709D01*
X193234000Y-103116245D01*
X193234000Y-103107045D01*
X193236521Y-103071703D01*
X193237825Y-103062610D01*
X193234143Y-102985901D01*
X193234000Y-102979932D01*
X193234000Y-101791286D01*
X193234000Y-100602501D01*
X193252953Y-100507219D01*
X193306925Y-100426442D01*
X193318712Y-100414656D01*
X193410814Y-100265335D01*
X193465999Y-100098798D01*
X193476500Y-99996010D01*
X193476500Y-99245990D01*
X193465999Y-99143202D01*
X193449178Y-99092439D01*
X193437197Y-98996025D01*
X193463024Y-98902366D01*
X193509833Y-98837684D01*
X194796050Y-97556805D01*
X194999133Y-97354565D01*
X195080026Y-97300756D01*
X195174836Y-97282000D01*
X202437999Y-97282000D01*
X202438000Y-97282000D01*
X204471773Y-94742000D01*
X204470000Y-85090000D01*
X203625417Y-84701262D01*
X201676001Y-83804000D01*
X201676000Y-83804000D01*
X125530000Y-83804000D01*
X125501367Y-83804000D01*
X125408361Y-83822500D01*
X111721203Y-83822500D01*
X111698672Y-83823307D01*
X111552976Y-83833726D01*
X111407280Y-83844146D01*
X111398298Y-83845112D01*
X111389316Y-83846078D01*
X111353667Y-83851206D01*
X111335925Y-83854408D01*
X111057072Y-83915068D01*
X111039589Y-83919529D01*
X111025228Y-83923745D01*
X111005042Y-83929673D01*
X110996454Y-83932530D01*
X110987910Y-83935374D01*
X110828836Y-83994705D01*
X110720492Y-84035116D01*
X110720490Y-84035117D01*
X110703816Y-84042023D01*
X110671069Y-84056979D01*
X110671067Y-84056980D01*
X110654928Y-84065059D01*
X110404440Y-84201836D01*
X110388920Y-84211044D01*
X110358623Y-84230515D01*
X110343796Y-84240809D01*
X110115320Y-84411845D01*
X110101262Y-84423174D01*
X110074051Y-84446753D01*
X110060847Y-84459047D01*
X109859047Y-84660847D01*
X109846753Y-84674051D01*
X109823174Y-84701262D01*
X109811845Y-84715320D01*
X109640809Y-84943796D01*
X109630515Y-84958623D01*
X109611044Y-84988920D01*
X109601836Y-85004440D01*
X109465059Y-85254928D01*
X109456980Y-85271067D01*
X109456979Y-85271069D01*
X109442023Y-85303816D01*
X109436301Y-85317629D01*
X109435116Y-85320492D01*
X109335374Y-85587911D01*
X109329673Y-85605042D01*
X109319529Y-85639590D01*
X109315068Y-85657072D01*
X109254406Y-85935931D01*
X109251203Y-85953687D01*
X109246076Y-85989341D01*
X109244146Y-86007291D01*
X109225046Y-86274352D01*
X109223307Y-86298670D01*
X109222500Y-86321202D01*
X109222500Y-88907500D01*
X109203546Y-89002788D01*
X109149570Y-89083570D01*
X109068788Y-89137546D01*
X108973500Y-89156500D01*
X106387203Y-89156500D01*
X106364672Y-89157307D01*
X106218976Y-89167726D01*
X106073280Y-89178146D01*
X106064298Y-89179112D01*
X106055316Y-89180078D01*
X106019667Y-89185206D01*
X106001925Y-89188408D01*
X105723072Y-89249068D01*
X105705589Y-89253529D01*
X105691228Y-89257745D01*
X105671042Y-89263673D01*
X105662454Y-89266530D01*
X105653910Y-89269374D01*
X105494836Y-89328705D01*
X105386492Y-89369116D01*
X105386490Y-89369117D01*
X105369816Y-89376023D01*
X105337069Y-89390979D01*
X105337067Y-89390980D01*
X105320928Y-89399059D01*
X105070440Y-89535836D01*
X105054920Y-89545044D01*
X105024623Y-89564515D01*
X105009796Y-89574809D01*
X104781320Y-89745845D01*
X104767262Y-89757174D01*
X104740051Y-89780753D01*
X104726847Y-89793047D01*
X104525047Y-89994847D01*
X104512753Y-90008051D01*
X104489174Y-90035262D01*
X104477845Y-90049320D01*
X104306809Y-90277796D01*
X104296515Y-90292623D01*
X104277044Y-90322920D01*
X104267836Y-90338440D01*
X104131059Y-90588928D01*
X104122980Y-90605067D01*
X104122979Y-90605069D01*
X104108023Y-90637816D01*
X104101117Y-90654490D01*
X104001374Y-90921910D01*
X103995674Y-90939040D01*
X103985529Y-90973589D01*
X103981068Y-90991072D01*
X103920408Y-91269925D01*
X103917206Y-91287667D01*
X103912078Y-91323316D01*
X103910146Y-91341281D01*
X103889307Y-91632671D01*
X103888500Y-91655202D01*
X103888500Y-92494797D01*
X100151500Y-92494797D01*
X100151500Y-84962000D01*
X100170002Y-84538222D01*
X100170948Y-84527413D01*
X100170949Y-84527412D01*
X100225605Y-84112255D01*
X100227491Y-84101560D01*
X100237374Y-84056980D01*
X100318125Y-83692735D01*
X100320931Y-83682266D01*
X100446857Y-83282879D01*
X100450557Y-83272716D01*
X100610815Y-82885816D01*
X100615395Y-82875998D01*
X100690901Y-82730952D01*
X100808759Y-82504549D01*
X100814171Y-82495177D01*
X101039172Y-82141996D01*
X101045380Y-82133128D01*
X101300317Y-81800888D01*
X101307286Y-81792585D01*
X101590179Y-81483862D01*
X101597862Y-81476179D01*
X101906585Y-81193286D01*
X101914888Y-81186317D01*
X102247128Y-80931380D01*
X102255996Y-80925172D01*
X102609177Y-80700171D01*
X102618549Y-80694759D01*
X102989999Y-80501394D01*
X102999816Y-80496815D01*
X103386716Y-80336557D01*
X103396879Y-80332857D01*
X103796266Y-80206931D01*
X103806735Y-80204125D01*
X104215564Y-80113490D01*
X104226255Y-80111605D01*
X104641423Y-80056947D01*
X104652222Y-80056002D01*
X105076000Y-80037500D01*
X105100531Y-80037500D01*
X207451469Y-80037500D01*
X207476000Y-80037500D01*
X207899775Y-80056002D01*
G37*
G04 #@! TD.AperFunction*
M02*
